<?xml version="1.0" standalone="no"?>
 <!DOCTYPE svg PUBLIC "-//W3C//DTD SVG 1.1//EN" 
 "http://www.w3.org/Graphics/SVG/1.1/DTD/svg11.dtd"> 
<svg
  xmlns:svg="http://www.w3.org/2000/svg"
  xmlns="http://www.w3.org/2000/svg"
  xmlns:xlink="http://www.w3.org/1999/xlink"
  version="1.1"
  width="99.9744mm" height="85.3948mm" viewBox="0.0000 0.0000 99.9744 85.3948">
<title>SVG Image created as sprucep2_right-brd.svg date 2024/03/08 20:57:13 </title>
  <desc>Image generated by PCBNEW </desc>
<g style="fill:#000000; fill-opacity:1.0000;stroke:#000000; stroke-opacity:1.0000;
stroke-linecap:round; stroke-linejoin:round;"
 transform="translate(0 0) scale(1 1)">
</g>
<g style="fill:#000000; fill-opacity:0.0; 
stroke:#000000; stroke-width:0.0000; stroke-opacity:1; 
stroke-linecap:round; stroke-linejoin:round;">
</g>
<g style="fill:#26E9FF; fill-opacity:0.0; 
stroke:#26E9FF; stroke-width:0.0000; stroke-opacity:1; 
stroke-linecap:round; stroke-linejoin:round;">
</g>
<g style="fill:#26E9FF; fill-opacity:0.0; 
stroke:#26E9FF; stroke-width:0.0500; stroke-opacity:1; 
stroke-linecap:round; stroke-linejoin:round;">
<path d="M62.2076 51.6250
L62.2076 48.4250
" />
<path d="M64.1076 51.6250
L62.2076 51.6250
" />
<path d="M64.1076 51.6250
L64.1076 48.4250
" />
<path d="M64.1076 48.4250
L62.2076 48.4250
" />
<path d="M37.6014 47.1187
L37.6014 43.9187
" />
<path d="M39.5014 47.1187
L37.6014 47.1187
" />
<path d="M39.5014 47.1187
L39.5014 43.9187
" />
<path d="M39.5014 43.9187
L37.6014 43.9187
" />
<path d="M96.3389 30.1937
L96.3389 26.9937
" />
<path d="M98.2389 30.1937
L96.3389 30.1937
" />
<path d="M98.2389 30.1937
L98.2389 26.9937
" />
<path d="M98.2389 26.9937
L96.3389 26.9937
" />
<path d="M73.4507 29.8431
L74.3708 29.8431
" />
<path d="M74.3708 29.8431
L74.3708 28.0231
" />
<path d="M73.4507 28.0231
L73.4507 29.8431
" />
<path d="M74.3708 28.0231
L73.4507 28.0231
" />
<path d="M75.2608 38.3331
L78.4107 38.3331
" />
<path d="M81.5607 38.3331
L78.4107 38.3331
" />
<path d="M74.6607 36.9331
L75.2608 36.9331
" />
<path d="M75.2608 36.9331
L75.2608 38.3331
" />
<path d="M81.5607 36.9331
L81.5607 38.3331
" />
<path d="M82.1607 36.9331
L81.5607 36.9331
" />
<path d="M73.2608 36.3331
L74.6607 36.3331
" />
<path d="M74.6607 36.3331
L74.6607 36.9331
" />
<path d="M82.1607 36.3331
L82.1607 36.9331
" />
<path d="M83.5607 36.3331
L82.1607 36.3331
" />
<path d="M73.2608 33.1831
L73.2608 36.3331
" />
<path d="M73.2608 33.1831
L73.2608 30.0331
" />
<path d="M83.5607 33.1831
L83.5607 36.3331
" />
<path d="M83.5607 33.1831
L83.5607 30.0331
" />
<path d="M73.2608 30.0331
L74.6607 30.0331
" />
<path d="M74.6607 30.0331
L74.6607 29.4331
" />
<path d="M82.1607 30.0331
L82.1607 29.4331
" />
<path d="M83.5607 30.0331
L82.1607 30.0331
" />
<path d="M74.6607 29.4331
L75.2608 29.4331
" />
<path d="M75.2608 29.4331
L75.2608 28.0331
" />
<path d="M81.5607 29.4331
L81.5607 28.0331
" />
<path d="M82.1607 29.4331
L81.5607 29.4331
" />
<path d="M75.2608 28.0331
L78.4107 28.0331
" />
<path d="M81.5607 28.0331
L78.4107 28.0331
" />
<path d="M60.2233 51.6250
L60.2233 48.4250
" />
<path d="M62.1232 51.6250
L60.2233 51.6250
" />
<path d="M62.1232 51.6250
L62.1232 48.4250
" />
<path d="M62.1232 48.4250
L60.2233 48.4250
" />
<path d="M59.8264 71.6094
L59.8264 68.4094
" />
<path d="M61.7264 71.6094
L59.8264 71.6094
" />
<path d="M61.7264 71.6094
L61.7264 68.4094
" />
<path d="M61.7264 68.4094
L59.8264 68.4094
" />
<path d="M39.9826 28.2094
L39.9826 25.0094
" />
<path d="M41.8826 28.2094
L39.9826 28.2094
" />
<path d="M41.8826 28.2094
L41.8826 25.0094
" />
<path d="M41.8826 25.0094
L39.9826 25.0094
" />
<path d="M81.7507 28.2231
L81.7507 29.1431
" />
<path d="M81.7507 29.1431
L83.5707 29.1431
" />
<path d="M83.5707 28.2231
L81.7507 28.2231
" />
<path d="M83.5707 29.1431
L83.5707 28.2231
" />
<path d="M73.6983 51.7281
L67.6983 51.7281
" />
<path d="M67.6983 51.7281
L67.6983 60.2281
" />
<path d="M73.6983 60.2281
L73.6983 51.7281
" />
<path d="M67.6983 60.2281
L73.6983 60.2281
" />
<path d="M77.3889 12.9894
L77.3889 16.3894
" />
<path d="M77.3889 12.9894
L80.5889 12.9894
" />
<path d="M80.5889 16.3894
L77.3889 16.3894
" />
<path d="M80.5889 16.3894
L80.5889 12.9894
" />
<path d="M83.3708 36.5231
L82.4507 36.5231
" />
<path d="M82.4507 36.5231
L82.4507 38.3431
" />
<path d="M83.3708 38.3431
L83.3708 36.5231
" />
<path d="M82.4507 38.3431
L83.3708 38.3431
" />
<path d="M74.4451 60.2281
L80.4451 60.2281
" />
<path d="M80.4451 60.2281
L80.4451 51.7281
" />
<path d="M74.4451 51.7281
L74.4451 60.2281
" />
<path d="M80.4451 51.7281
L74.4451 51.7281
" />
<path d="M39.5857 66.3094
L39.5857 63.1094
" />
<path d="M41.4857 66.3094
L39.5857 66.3094
" />
<path d="M41.4857 66.3094
L41.4857 63.1094
" />
<path d="M41.4857 63.1094
L39.5857 63.1094
" />
<path d="M37.9982 28.2094
L37.9982 25.0094
" />
<path d="M39.8982 28.2094
L37.9982 28.2094
" />
<path d="M39.8982 28.2094
L39.8982 25.0094
" />
<path d="M39.8982 25.0094
L37.9982 25.0094
" />
<path d="M35.6170 66.3094
L35.6170 63.1094
" />
<path d="M37.5170 66.3094
L35.6170 66.3094
" />
<path d="M37.5170 66.3094
L37.5170 63.1094
" />
<path d="M37.5170 63.1094
L35.6170 63.1094
" />
<path d="M41.5701 66.3094
L41.5701 63.1094
" />
<path d="M43.4701 66.3094
L41.5701 66.3094
" />
<path d="M43.4701 66.3094
L43.4701 63.1094
" />
<path d="M43.4701 63.1094
L41.5701 63.1094
" />
<path d="M85.1589 23.8894
L81.3189 23.8894
" />
<path d="M85.1589 20.4894
L85.1589 23.8894
" />
<path d="M81.3189 23.8894
L81.3189 20.4894
" />
<path d="M81.3189 20.4894
L85.1589 20.4894
" />
<path d="M41.9670 28.2094
L41.9670 25.0094
" />
<path d="M43.8670 28.2094
L41.9670 28.2094
" />
<path d="M43.8670 28.2094
L43.8670 25.0094
" />
<path d="M43.8670 25.0094
L41.9670 25.0094
" />
<path d="M81.5007 38.4731
L81.5007 39.3931
" />
<path d="M81.5007 39.3931
L83.3207 39.3931
" />
<path d="M83.3207 38.4731
L81.5007 38.4731
" />
<path d="M83.3207 39.3931
L83.3207 38.4731
" />
<path d="M39.5857 47.1187
L39.5857 43.9187
" />
<path d="M41.4857 47.1187
L39.5857 47.1187
" />
<path d="M41.4857 47.1187
L41.4857 43.9187
" />
<path d="M41.4857 43.9187
L39.5857 43.9187
" />
<path d="M82.9189 16.4094
L82.9189 15.4694
" />
<path d="M82.9189 15.4694
L81.0589 15.4694
" />
<path d="M81.0589 16.4094
L82.9189 16.4094
" />
<path d="M81.0589 15.4694
L81.0589 16.4094
" />
<path d="M82.6489 25.1494
L82.6489 24.2294
" />
<path d="M82.6489 24.2294
L80.8289 24.2294
" />
<path d="M80.8289 25.1494
L82.6489 25.1494
" />
<path d="M80.8289 24.2294
L80.8289 25.1494
" />
<path d="M76.7089 17.8194
L76.7089 20.0594
" />
<path d="M76.7089 20.0594
L81.2689 20.0594
" />
<path d="M81.2689 17.8194
L76.7089 17.8194
" />
<path d="M81.2689 20.0594
L81.2689 17.8194
" />
<path d="M80.0289 22.0994
L80.9489 22.0994
" />
<path d="M80.9489 22.0994
L80.9489 20.2794
" />
<path d="M80.0289 20.2794
L80.0289 22.0994
" />
<path d="M80.9489 20.2794
L80.0289 20.2794
" />
<path d="M35.6170 47.1187
L35.6170 43.9187
" />
<path d="M37.5170 47.1187
L35.6170 47.1187
" />
<path d="M37.5170 47.1187
L37.5170 43.9187
" />
<path d="M37.5170 43.9187
L35.6170 43.9187
" />
<path d="M77.8073 41.3797
L77.8073 40.4597
" />
<path d="M77.8073 40.4597
L75.9873 40.4597
" />
<path d="M75.9873 41.3797
L77.8073 41.3797
" />
<path d="M75.9873 40.4597
L75.9873 41.3797
" />
<path d="M78.0907 43.6531
L78.0907 42.7131
" />
<path d="M78.0907 42.7131
L76.2308 42.7131
" />
<path d="M76.2308 43.6531
L78.0907 43.6531
" />
<path d="M76.2308 42.7131
L76.2308 43.6531
" />
<path d="M75.9873 39.2097
L75.9873 40.1297
" />
<path d="M75.9873 40.1297
L77.8073 40.1297
" />
<path d="M77.8073 39.2097
L75.9873 39.2097
" />
<path d="M77.8073 40.1297
L77.8073 39.2097
" />
<path d="M81.0589 12.9694
L81.0589 13.9094
" />
<path d="M81.0589 13.9094
L82.9189 13.9094
" />
<path d="M82.9189 12.9694
L81.0589 12.9694
" />
<path d="M82.9189 13.9094
L82.9189 12.9694
" />
<path d="M73.6689 2.5394
L84.3089 2.5394
" />
<path d="M73.6689 11.9594
L73.6689 2.5394
" />
<path d="M73.6689 11.9594
L84.3089 11.9594
" />
<path d="M84.3089 11.9594
L84.3089 2.5394
" />
<path d="M61.8107 71.6094
L61.8107 68.4094
" />
<path d="M63.7107 71.6094
L61.8107 71.6094
" />
<path d="M63.7107 71.6094
L63.7107 68.4094
" />
<path d="M63.7107 68.4094
L61.8107 68.4094
" />
<path d="M80.5907 43.6531
L80.5907 42.7131
" />
<path d="M80.5907 42.7131
L78.7308 42.7131
" />
<path d="M78.7308 43.6531
L80.5907 43.6531
" />
<path d="M78.7308 42.7131
L78.7308 43.6531
" />
<path d="M36.0139 28.2094
L36.0139 25.0094
" />
<path d="M37.9139 28.2094
L36.0139 28.2094
" />
<path d="M37.9139 28.2094
L37.9139 25.0094
" />
<path d="M37.9139 25.0094
L36.0139 25.0094
" />
<path d="M37.6014 66.3094
L37.6014 63.1094
" />
<path d="M39.5014 66.3094
L37.6014 66.3094
" />
<path d="M39.5014 66.3094
L39.5014 63.1094
" />
<path d="M39.5014 63.1094
L37.6014 63.1094
" />
<path d="M83.0089 24.2094
L83.0089 25.6694
" />
<path d="M83.0089 25.6694
L85.9689 25.6694
" />
<path d="M85.9689 24.2094
L83.0089 24.2094
" />
<path d="M85.9689 25.6694
L85.9689 24.2094
" />
<path d="M81.5289 18.8494
L82.4489 18.8494
" />
<path d="M82.4489 18.8494
L82.4489 17.0294
" />
<path d="M81.5289 17.0294
L81.5289 18.8494
" />
<path d="M82.4489 17.0294
L81.5289 17.0294
" />
<path d="M33.6326 66.3094
L33.6326 63.1094
" />
<path d="M35.5326 66.3094
L33.6326 66.3094
" />
<path d="M35.5326 66.3094
L35.5326 63.1094
" />
<path d="M35.5326 63.1094
L33.6326 63.1094
" />
<path d="M57.8420 71.6094
L57.8420 68.4094
" />
<path d="M59.7420 71.6094
L57.8420 71.6094
" />
<path d="M59.7420 71.6094
L59.7420 68.4094
" />
<path d="M59.7420 68.4094
L57.8420 68.4094
" />
<g >
</g>
<g >
</g>
<g >
</g>
<g >
</g>
<g >
</g>
<g >
</g>
<g >
</g>
<g >
</g>
<g >
</g>
<g >
</g>
<g >
</g>
<g >
</g>
<g >
</g>
<g >
</g>
<g >
</g>
<g >
</g>
<g >
</g>
<g >
</g>
<g >
</g>
<g >
</g>
<g >
</g>
<g >
</g>
<g >
</g>
<g >
</g>
<g >
</g>
<g >
</g>
<g >
</g>
<g >
</g>
<g >
</g>
<g >
</g>
<g >
</g>
<g >
</g>
<g >
</g>
<g >
</g>
<g >
</g>
<g >
</g>
<g >
</g>
<g >
</g>
<g >
</g>
<g >
</g>
<g >
</g>
<g >
</g>
<g >
</g>
<g >
</g>
<g >
</g>
<g >
</g>
<g >
</g>
<g >
</g>
<g >
</g>
<g >
</g>
<g >
</g>
<g >
</g>
<g >
</g>
<g >
</g>
<g >
</g>
<g >
</g>
<g >
</g>
<g >
</g>
<g >
</g>
<g >
</g>
<g >
</g>
<g >
</g>
</g>
<g style="fill:#000000; fill-opacity:0.0; 
stroke:#000000; stroke-width:0.0500; stroke-opacity:1; 
stroke-linecap:round; stroke-linejoin:round;">
</g>
<g style="fill:#E8B2A7; fill-opacity:0.0; 
stroke:#E8B2A7; stroke-width:0.0500; stroke-opacity:1; 
stroke-linecap:round; stroke-linejoin:round;">
</g>
<g style="fill:#E8B2A7; fill-opacity:0.0; 
stroke:#E8B2A7; stroke-width:0.2500; stroke-opacity:1; 
stroke-linecap:round; stroke-linejoin:round;">
<text x="96.4951" y="82.5463"
transform="scale(-1 1) translate(-192.990250 0)"
textLength="15.0214" font-size="2.0000" lengthAdjust="spacingAndGlyphs"
text-anchor="start" opacity="0">prototype #2</text>
<g class="stroked-text"><desc>prototype #2</desc>
<path d="M95.9735 81.7442
L95.9735 82.7442
" />
<path d="M95.9735 81.7918
L95.8307 81.7442
" />
<path d="M95.8307 81.7442
L95.5449 81.7442
" />
<path d="M95.5449 81.7442
L95.4021 81.7918
" />
<path d="M95.4021 81.7918
L95.3307 81.8394
" />
<path d="M95.3307 81.8394
L95.2592 81.9347
" />
<path d="M95.2592 81.9347
L95.2592 82.2204
" />
<path d="M95.2592 82.2204
L95.3307 82.3156
" />
<path d="M95.3307 82.3156
L95.4021 82.3632
" />
<path d="M95.4021 82.3632
L95.5449 82.4109
" />
<path d="M95.5449 82.4109
L95.8307 82.4109
" />
<path d="M95.8307 82.4109
L95.9735 82.3632
" />
<path d="M94.6164 82.4109
L94.6164 81.7442
" />
<path d="M94.6164 81.9347
L94.5449 81.8394
" />
<path d="M94.5449 81.8394
L94.4735 81.7918
" />
<path d="M94.4735 81.7918
L94.3307 81.7442
" />
<path d="M94.3307 81.7442
L94.1878 81.7442
" />
<path d="M93.4735 82.4109
L93.6164 82.3632
" />
<path d="M93.6164 82.3632
L93.6878 82.3156
" />
<path d="M93.6878 82.3156
L93.7592 82.2204
" />
<path d="M93.7592 82.2204
L93.7592 81.9347
" />
<path d="M93.7592 81.9347
L93.6878 81.8394
" />
<path d="M93.6878 81.8394
L93.6164 81.7918
" />
<path d="M93.6164 81.7918
L93.4735 81.7442
" />
<path d="M93.4735 81.7442
L93.2592 81.7442
" />
<path d="M93.2592 81.7442
L93.1164 81.7918
" />
<path d="M93.1164 81.7918
L93.0449 81.8394
" />
<path d="M93.0449 81.8394
L92.9735 81.9347
" />
<path d="M92.9735 81.9347
L92.9735 82.2204
" />
<path d="M92.9735 82.2204
L93.0449 82.3156
" />
<path d="M93.0449 82.3156
L93.1164 82.3632
" />
<path d="M93.1164 82.3632
L93.2592 82.4109
" />
<path d="M93.2592 82.4109
L93.4735 82.4109
" />
<path d="M92.5449 81.7442
L91.9735 81.7442
" />
<path d="M92.3307 81.4109
L92.3307 82.2680
" />
<path d="M92.3307 82.2680
L92.2592 82.3632
" />
<path d="M92.2592 82.3632
L92.1164 82.4109
" />
<path d="M92.1164 82.4109
L91.9735 82.4109
" />
<path d="M91.2592 82.4109
L91.4021 82.3632
" />
<path d="M91.4021 82.3632
L91.4735 82.3156
" />
<path d="M91.4735 82.3156
L91.5449 82.2204
" />
<path d="M91.5449 82.2204
L91.5449 81.9347
" />
<path d="M91.5449 81.9347
L91.4735 81.8394
" />
<path d="M91.4735 81.8394
L91.4021 81.7918
" />
<path d="M91.4021 81.7918
L91.2592 81.7442
" />
<path d="M91.2592 81.7442
L91.0449 81.7442
" />
<path d="M91.0449 81.7442
L90.9021 81.7918
" />
<path d="M90.9021 81.7918
L90.8307 81.8394
" />
<path d="M90.8307 81.8394
L90.7592 81.9347
" />
<path d="M90.7592 81.9347
L90.7592 82.2204
" />
<path d="M90.7592 82.2204
L90.8307 82.3156
" />
<path d="M90.8307 82.3156
L90.9021 82.3632
" />
<path d="M90.9021 82.3632
L91.0449 82.4109
" />
<path d="M91.0449 82.4109
L91.2592 82.4109
" />
<path d="M90.3307 81.7442
L89.7592 81.7442
" />
<path d="M90.1164 81.4109
L90.1164 82.2680
" />
<path d="M90.1164 82.2680
L90.0449 82.3632
" />
<path d="M90.0449 82.3632
L89.9021 82.4109
" />
<path d="M89.9021 82.4109
L89.7592 82.4109
" />
<path d="M89.4021 81.7442
L89.0449 82.4109
" />
<path d="M88.6878 81.7442
L89.0449 82.4109
" />
<path d="M89.0449 82.4109
L89.1878 82.6490
" />
<path d="M89.1878 82.6490
L89.2592 82.6966
" />
<path d="M89.2592 82.6966
L89.4021 82.7442
" />
<path d="M88.1164 81.7442
L88.1164 82.7442
" />
<path d="M88.1164 81.7918
L87.9735 81.7442
" />
<path d="M87.9735 81.7442
L87.6878 81.7442
" />
<path d="M87.6878 81.7442
L87.5449 81.7918
" />
<path d="M87.5449 81.7918
L87.4735 81.8394
" />
<path d="M87.4735 81.8394
L87.4021 81.9347
" />
<path d="M87.4021 81.9347
L87.4021 82.2204
" />
<path d="M87.4021 82.2204
L87.4735 82.3156
" />
<path d="M87.4735 82.3156
L87.5449 82.3632
" />
<path d="M87.5449 82.3632
L87.6878 82.4109
" />
<path d="M87.6878 82.4109
L87.9735 82.4109
" />
<path d="M87.9735 82.4109
L88.1164 82.3632
" />
<path d="M86.1878 82.3632
L86.3307 82.4109
" />
<path d="M86.3307 82.4109
L86.6164 82.4109
" />
<path d="M86.6164 82.4109
L86.7592 82.3632
" />
<path d="M86.7592 82.3632
L86.8307 82.2680
" />
<path d="M86.8307 82.2680
L86.8307 81.8871
" />
<path d="M86.8307 81.8871
L86.7592 81.7918
" />
<path d="M86.7592 81.7918
L86.6164 81.7442
" />
<path d="M86.6164 81.7442
L86.3307 81.7442
" />
<path d="M86.3307 81.7442
L86.1878 81.7918
" />
<path d="M86.1878 81.7918
L86.1164 81.8871
" />
<path d="M86.1164 81.8871
L86.1164 81.9823
" />
<path d="M86.1164 81.9823
L86.8307 82.0775
" />
<path d="M84.4021 81.7442
L83.3307 81.7442
" />
<path d="M83.9735 81.3156
L84.4021 82.6013
" />
<path d="M83.4735 82.1728
L84.5449 82.1728
" />
<path d="M83.9021 82.6013
L83.4735 81.3156
" />
<path d="M82.9021 81.5061
L82.8307 81.4585
" />
<path d="M82.8307 81.4585
L82.6878 81.4109
" />
<path d="M82.6878 81.4109
L82.3307 81.4109
" />
<path d="M82.3307 81.4109
L82.1878 81.4585
" />
<path d="M82.1878 81.4585
L82.1164 81.5061
" />
<path d="M82.1164 81.5061
L82.0449 81.6013
" />
<path d="M82.0449 81.6013
L82.0449 81.6966
" />
<path d="M82.0449 81.6966
L82.1164 81.8394
" />
<path d="M82.1164 81.8394
L82.9735 82.4109
" />
<path d="M82.9735 82.4109
L82.0449 82.4109
" />
</g><text x="96.4951" y="84.1562"
transform="scale(-1 1) translate(-192.990250 0)"
textLength="11.1643" font-size="2.0000" lengthAdjust="spacingAndGlyphs"
text-anchor="start" opacity="0">right half</text>
<g class="stroked-text"><desc>right half</desc>
<path d="M95.9735 84.0209
L95.9735 83.3542
" />
<path d="M95.9735 83.5447
L95.9021 83.4494
" />
<path d="M95.9021 83.4494
L95.8307 83.4018
" />
<path d="M95.8307 83.4018
L95.6878 83.3542
" />
<path d="M95.6878 83.3542
L95.5449 83.3542
" />
<path d="M95.0449 84.0209
L95.0449 83.3542
" />
<path d="M95.0449 83.0209
L95.1164 83.0685
" />
<path d="M95.1164 83.0685
L95.0449 83.1161
" />
<path d="M95.0449 83.1161
L94.9735 83.0685
" />
<path d="M94.9735 83.0685
L95.0449 83.0209
" />
<path d="M95.0449 83.0209
L95.0449 83.1161
" />
<path d="M93.6878 83.3542
L93.6878 84.1637
" />
<path d="M93.6878 84.1637
L93.7592 84.2590
" />
<path d="M93.7592 84.2590
L93.8307 84.3066
" />
<path d="M93.8307 84.3066
L93.9735 84.3542
" />
<path d="M93.9735 84.3542
L94.1878 84.3542
" />
<path d="M94.1878 84.3542
L94.3307 84.3066
" />
<path d="M93.6878 83.9732
L93.8307 84.0209
" />
<path d="M93.8307 84.0209
L94.1164 84.0209
" />
<path d="M94.1164 84.0209
L94.2592 83.9732
" />
<path d="M94.2592 83.9732
L94.3307 83.9256
" />
<path d="M94.3307 83.9256
L94.4021 83.8304
" />
<path d="M94.4021 83.8304
L94.4021 83.5447
" />
<path d="M94.4021 83.5447
L94.3307 83.4494
" />
<path d="M94.3307 83.4494
L94.2592 83.4018
" />
<path d="M94.2592 83.4018
L94.1164 83.3542
" />
<path d="M94.1164 83.3542
L93.8307 83.3542
" />
<path d="M93.8307 83.3542
L93.6878 83.4018
" />
<path d="M92.9735 84.0209
L92.9735 83.0209
" />
<path d="M92.3307 84.0209
L92.3307 83.4971
" />
<path d="M92.3307 83.4971
L92.4021 83.4018
" />
<path d="M92.4021 83.4018
L92.5449 83.3542
" />
<path d="M92.5449 83.3542
L92.7592 83.3542
" />
<path d="M92.7592 83.3542
L92.9021 83.4018
" />
<path d="M92.9021 83.4018
L92.9735 83.4494
" />
<path d="M91.8307 83.3542
L91.2592 83.3542
" />
<path d="M91.6164 83.0209
L91.6164 83.8780
" />
<path d="M91.6164 83.8780
L91.5449 83.9732
" />
<path d="M91.5449 83.9732
L91.4021 84.0209
" />
<path d="M91.4021 84.0209
L91.2592 84.0209
" />
<path d="M89.6164 84.0209
L89.6164 83.0209
" />
<path d="M88.9735 84.0209
L88.9735 83.4971
" />
<path d="M88.9735 83.4971
L89.0449 83.4018
" />
<path d="M89.0449 83.4018
L89.1878 83.3542
" />
<path d="M89.1878 83.3542
L89.4021 83.3542
" />
<path d="M89.4021 83.3542
L89.5449 83.4018
" />
<path d="M89.5449 83.4018
L89.6164 83.4494
" />
<path d="M87.6164 84.0209
L87.6164 83.4971
" />
<path d="M87.6164 83.4971
L87.6878 83.4018
" />
<path d="M87.6878 83.4018
L87.8307 83.3542
" />
<path d="M87.8307 83.3542
L88.1164 83.3542
" />
<path d="M88.1164 83.3542
L88.2592 83.4018
" />
<path d="M87.6164 83.9732
L87.7592 84.0209
" />
<path d="M87.7592 84.0209
L88.1164 84.0209
" />
<path d="M88.1164 84.0209
L88.2592 83.9732
" />
<path d="M88.2592 83.9732
L88.3307 83.8780
" />
<path d="M88.3307 83.8780
L88.3307 83.7828
" />
<path d="M88.3307 83.7828
L88.2592 83.6875
" />
<path d="M88.2592 83.6875
L88.1164 83.6399
" />
<path d="M88.1164 83.6399
L87.7592 83.6399
" />
<path d="M87.7592 83.6399
L87.6164 83.5923
" />
<path d="M86.6878 84.0209
L86.8307 83.9732
" />
<path d="M86.8307 83.9732
L86.9021 83.8780
" />
<path d="M86.9021 83.8780
L86.9021 83.0209
" />
<path d="M86.3307 83.3542
L85.7592 83.3542
" />
<path d="M86.1164 84.0209
L86.1164 83.1637
" />
<path d="M86.1164 83.1637
L86.0449 83.0685
" />
<path d="M86.0449 83.0685
L85.9021 83.0209
" />
<path d="M85.9021 83.0209
L85.7592 83.0209
" />
</g></g>
<g style="fill:#E8B2A7; fill-opacity:0.0; 
stroke:#E8B2A7; stroke-width:0.1500; stroke-opacity:1; 
stroke-linecap:round; stroke-linejoin:round;">
<g transform="rotate(-90.000000 72.6607 28.9331)">
<text x="72.6607" y="29.4331"
transform="scale(-1 1) translate(-145.321500 0)"
textLength="2.2024" font-size="1.3333" lengthAdjust="spacingAndGlyphs"
text-anchor="middle" opacity="0">C4</text>
</g>
<g class="stroked-text"><desc>C4</desc>
<path d="M73.0203 28.7665
L73.0679 28.7188
" />
<path d="M73.0679 28.7188
L73.1156 28.5760
" />
<path d="M73.1156 28.5760
L73.1156 28.4807
" />
<path d="M73.1156 28.4807
L73.0679 28.3379
" />
<path d="M73.0679 28.3379
L72.9727 28.2426
" />
<path d="M72.9727 28.2426
L72.8775 28.1950
" />
<path d="M72.8775 28.1950
L72.6870 28.1474
" />
<path d="M72.6870 28.1474
L72.5441 28.1474
" />
<path d="M72.5441 28.1474
L72.3537 28.1950
" />
<path d="M72.3537 28.1950
L72.2584 28.2426
" />
<path d="M72.2584 28.2426
L72.1632 28.3379
" />
<path d="M72.1632 28.3379
L72.1156 28.4807
" />
<path d="M72.1156 28.4807
L72.1156 28.5760
" />
<path d="M72.1156 28.5760
L72.1632 28.7188
" />
<path d="M72.1632 28.7188
L72.2108 28.7665
" />
<path d="M72.4489 29.6236
L73.1156 29.6236
" />
<path d="M72.0679 29.3855
L72.7822 29.1474
" />
<path d="M72.7822 29.1474
L72.7822 29.7665
" />
</g><g transform="rotate(-90.000000 84.2608 33.1831)">
<text x="84.2608" y="33.6831"
transform="scale(-1 1) translate(-168.521500 0)"
textLength="2.2500" font-size="1.3333" lengthAdjust="spacingAndGlyphs"
text-anchor="middle" opacity="0">U1</text>
</g>
<g class="stroked-text"><desc>U1</desc>
<path d="M83.7156 32.4212
L84.5251 32.4212
" />
<path d="M84.5251 32.4212
L84.6203 32.4688
" />
<path d="M84.6203 32.4688
L84.6679 32.5165
" />
<path d="M84.6679 32.5165
L84.7156 32.6117
" />
<path d="M84.7156 32.6117
L84.7156 32.8022
" />
<path d="M84.7156 32.8022
L84.6679 32.8974
" />
<path d="M84.6679 32.8974
L84.6203 32.9450
" />
<path d="M84.6203 32.9450
L84.5251 32.9926
" />
<path d="M84.5251 32.9926
L83.7156 32.9926
" />
<path d="M84.7156 33.9926
L84.7156 33.4212
" />
<path d="M84.7156 33.7069
L83.7156 33.7069
" />
<path d="M83.7156 33.7069
L83.8584 33.6117
" />
<path d="M83.8584 33.6117
L83.9537 33.5165
" />
<path d="M83.9537 33.5165
L84.0013 33.4212
" />
</g><text x="82.4107" y="27.9331"
transform="scale(-1 1) translate(-164.821500 0)"
textLength="2.2024" font-size="1.3333" lengthAdjust="spacingAndGlyphs"
text-anchor="middle" opacity="0">C3</text>
<g class="stroked-text"><desc>C3</desc>
<path d="M82.5774 27.7927
L82.6250 27.8403
" />
<path d="M82.6250 27.8403
L82.7679 27.8879
" />
<path d="M82.7679 27.8879
L82.8631 27.8879
" />
<path d="M82.8631 27.8879
L83.0060 27.8403
" />
<path d="M83.0060 27.8403
L83.1012 27.7451
" />
<path d="M83.1012 27.7451
L83.1488 27.6498
" />
<path d="M83.1488 27.6498
L83.1965 27.4594
" />
<path d="M83.1965 27.4594
L83.1965 27.3165
" />
<path d="M83.1965 27.3165
L83.1488 27.1260
" />
<path d="M83.1488 27.1260
L83.1012 27.0308
" />
<path d="M83.1012 27.0308
L83.0060 26.9356
" />
<path d="M83.0060 26.9356
L82.8631 26.8879
" />
<path d="M82.8631 26.8879
L82.7679 26.8879
" />
<path d="M82.7679 26.8879
L82.6250 26.9356
" />
<path d="M82.6250 26.9356
L82.5774 26.9832
" />
<path d="M82.2441 26.8879
L81.6250 26.8879
" />
<path d="M81.6250 26.8879
L81.9584 27.2689
" />
<path d="M81.9584 27.2689
L81.8155 27.2689
" />
<path d="M81.8155 27.2689
L81.7203 27.3165
" />
<path d="M81.7203 27.3165
L81.6727 27.3641
" />
<path d="M81.6727 27.3641
L81.6250 27.4594
" />
<path d="M81.6250 27.4594
L81.6250 27.6975
" />
<path d="M81.6250 27.6975
L81.6727 27.7927
" />
<path d="M81.6727 27.7927
L81.7203 27.8403
" />
<path d="M81.7203 27.8403
L81.8155 27.8879
" />
<path d="M81.8155 27.8879
L82.1012 27.8879
" />
<path d="M82.1012 27.8879
L82.1965 27.8403
" />
<path d="M82.1965 27.8403
L82.2441 27.7927
" />
</g><text x="70.6983" y="61.4781"
transform="scale(-1 1) translate(-141.396500 0)"
textLength="3.8690" font-size="1.3333" lengthAdjust="spacingAndGlyphs"
text-anchor="middle" opacity="0">boop</text>
<g class="stroked-text"><desc>boop</desc>
<path d="M72.2697 61.4329
L72.2697 60.4329
" />
<path d="M72.2697 60.8139
L72.1744 60.7663
" />
<path d="M72.1744 60.7663
L71.9840 60.7663
" />
<path d="M71.9840 60.7663
L71.8887 60.8139
" />
<path d="M71.8887 60.8139
L71.8411 60.8615
" />
<path d="M71.8411 60.8615
L71.7935 60.9568
" />
<path d="M71.7935 60.9568
L71.7935 61.2425
" />
<path d="M71.7935 61.2425
L71.8411 61.3377
" />
<path d="M71.8411 61.3377
L71.8887 61.3853
" />
<path d="M71.8887 61.3853
L71.9840 61.4329
" />
<path d="M71.9840 61.4329
L72.1744 61.4329
" />
<path d="M72.1744 61.4329
L72.2697 61.3853
" />
<path d="M71.2221 61.4329
L71.3173 61.3853
" />
<path d="M71.3173 61.3853
L71.3649 61.3377
" />
<path d="M71.3649 61.3377
L71.4125 61.2425
" />
<path d="M71.4125 61.2425
L71.4125 60.9568
" />
<path d="M71.4125 60.9568
L71.3649 60.8615
" />
<path d="M71.3649 60.8615
L71.3173 60.8139
" />
<path d="M71.3173 60.8139
L71.2221 60.7663
" />
<path d="M71.2221 60.7663
L71.0792 60.7663
" />
<path d="M71.0792 60.7663
L70.9840 60.8139
" />
<path d="M70.9840 60.8139
L70.9363 60.8615
" />
<path d="M70.9363 60.8615
L70.8887 60.9568
" />
<path d="M70.8887 60.9568
L70.8887 61.2425
" />
<path d="M70.8887 61.2425
L70.9363 61.3377
" />
<path d="M70.9363 61.3377
L70.9840 61.3853
" />
<path d="M70.9840 61.3853
L71.0792 61.4329
" />
<path d="M71.0792 61.4329
L71.2221 61.4329
" />
<path d="M70.3173 61.4329
L70.4125 61.3853
" />
<path d="M70.4125 61.3853
L70.4602 61.3377
" />
<path d="M70.4602 61.3377
L70.5078 61.2425
" />
<path d="M70.5078 61.2425
L70.5078 60.9568
" />
<path d="M70.5078 60.9568
L70.4602 60.8615
" />
<path d="M70.4602 60.8615
L70.4125 60.8139
" />
<path d="M70.4125 60.8139
L70.3173 60.7663
" />
<path d="M70.3173 60.7663
L70.1744 60.7663
" />
<path d="M70.1744 60.7663
L70.0792 60.8139
" />
<path d="M70.0792 60.8139
L70.0316 60.8615
" />
<path d="M70.0316 60.8615
L69.9840 60.9568
" />
<path d="M69.9840 60.9568
L69.9840 61.2425
" />
<path d="M69.9840 61.2425
L70.0316 61.3377
" />
<path d="M70.0316 61.3377
L70.0792 61.3853
" />
<path d="M70.0792 61.3853
L70.1744 61.4329
" />
<path d="M70.1744 61.4329
L70.3173 61.4329
" />
<path d="M69.5554 60.7663
L69.5554 61.7663
" />
<path d="M69.5554 60.8139
L69.4602 60.7663
" />
<path d="M69.4602 60.7663
L69.2697 60.7663
" />
<path d="M69.2697 60.7663
L69.1744 60.8139
" />
<path d="M69.1744 60.8139
L69.1268 60.8615
" />
<path d="M69.1268 60.8615
L69.0792 60.9568
" />
<path d="M69.0792 60.9568
L69.0792 61.2425
" />
<path d="M69.0792 61.2425
L69.1268 61.3377
" />
<path d="M69.1268 61.3377
L69.1744 61.3853
" />
<path d="M69.1744 61.3853
L69.2697 61.4329
" />
<path d="M69.2697 61.4329
L69.4602 61.4329
" />
<path d="M69.4602 61.4329
L69.5554 61.3853
" />
</g><text x="79.0089" y="17.5694"
transform="scale(-1 1) translate(-158.017750 0)"
textLength="2.2500" font-size="1.3333" lengthAdjust="spacingAndGlyphs"
text-anchor="middle" opacity="0">U2</text>
<g class="stroked-text"><desc>U2</desc>
<path d="M79.7708 16.5242
L79.7708 17.3337
" />
<path d="M79.7708 17.3337
L79.7232 17.4290
" />
<path d="M79.7232 17.4290
L79.6755 17.4766
" />
<path d="M79.6755 17.4766
L79.5803 17.5242
" />
<path d="M79.5803 17.5242
L79.3898 17.5242
" />
<path d="M79.3898 17.5242
L79.2946 17.4766
" />
<path d="M79.2946 17.4766
L79.2470 17.4290
" />
<path d="M79.2470 17.4290
L79.1994 17.3337
" />
<path d="M79.1994 17.3337
L79.1994 16.5242
" />
<path d="M78.7708 16.6194
L78.7232 16.5718
" />
<path d="M78.7232 16.5718
L78.6279 16.5242
" />
<path d="M78.6279 16.5242
L78.3898 16.5242
" />
<path d="M78.3898 16.5242
L78.2946 16.5718
" />
<path d="M78.2946 16.5718
L78.2470 16.6194
" />
<path d="M78.2470 16.6194
L78.1994 16.7147
" />
<path d="M78.1994 16.7147
L78.1994 16.8099
" />
<path d="M78.1994 16.8099
L78.2470 16.9528
" />
<path d="M78.2470 16.9528
L78.8184 17.5242
" />
<path d="M78.8184 17.5242
L78.1994 17.5242
" />
</g><g transform="rotate(-90.000000 84.1607 37.4331)">
<text x="84.1607" y="37.9331"
transform="scale(-1 1) translate(-168.321500 0)"
textLength="2.2024" font-size="1.3333" lengthAdjust="spacingAndGlyphs"
text-anchor="middle" opacity="0">C5</text>
</g>
<g class="stroked-text"><desc>C5</desc>
<path d="M84.5203 37.2665
L84.5679 37.2188
" />
<path d="M84.5679 37.2188
L84.6156 37.0760
" />
<path d="M84.6156 37.0760
L84.6156 36.9807
" />
<path d="M84.6156 36.9807
L84.5679 36.8379
" />
<path d="M84.5679 36.8379
L84.4727 36.7426
" />
<path d="M84.4727 36.7426
L84.3775 36.6950
" />
<path d="M84.3775 36.6950
L84.1870 36.6474
" />
<path d="M84.1870 36.6474
L84.0441 36.6474
" />
<path d="M84.0441 36.6474
L83.8537 36.6950
" />
<path d="M83.8537 36.6950
L83.7584 36.7426
" />
<path d="M83.7584 36.7426
L83.6632 36.8379
" />
<path d="M83.6632 36.8379
L83.6156 36.9807
" />
<path d="M83.6156 36.9807
L83.6156 37.0760
" />
<path d="M83.6156 37.0760
L83.6632 37.2188
" />
<path d="M83.6632 37.2188
L83.7108 37.2665
" />
<path d="M83.6156 38.1712
L83.6156 37.6950
" />
<path d="M83.6156 37.6950
L84.0918 37.6474
" />
<path d="M84.0918 37.6474
L84.0441 37.6950
" />
<path d="M84.0441 37.6950
L83.9965 37.7903
" />
<path d="M83.9965 37.7903
L83.9965 38.0284
" />
<path d="M83.9965 38.0284
L84.0441 38.1236
" />
<path d="M84.0441 38.1236
L84.0918 38.1712
" />
<path d="M84.0918 38.1712
L84.1870 38.2188
" />
<path d="M84.1870 38.2188
L84.4251 38.2188
" />
<path d="M84.4251 38.2188
L84.5203 38.1712
" />
<path d="M84.5203 38.1712
L84.5679 38.1236
" />
<path d="M84.5679 38.1236
L84.6156 38.0284
" />
<path d="M84.6156 38.0284
L84.6156 37.7903
" />
<path d="M84.6156 37.7903
L84.5679 37.6950
" />
<path d="M84.5679 37.6950
L84.5203 37.6474
" />
</g><text x="77.4451" y="61.4781"
transform="scale(-1 1) translate(-154.890250 0)"
textLength="3.9643" font-size="1.3333" lengthAdjust="spacingAndGlyphs"
text-anchor="middle" opacity="0">reset</text>
<g class="stroked-text"><desc>reset</desc>
<path d="M79.0642 61.4329
L79.0642 60.7663
" />
<path d="M79.0642 60.9568
L79.0166 60.8615
" />
<path d="M79.0166 60.8615
L78.9689 60.8139
" />
<path d="M78.9689 60.8139
L78.8737 60.7663
" />
<path d="M78.8737 60.7663
L78.7785 60.7663
" />
<path d="M78.0642 61.3853
L78.1594 61.4329
" />
<path d="M78.1594 61.4329
L78.3499 61.4329
" />
<path d="M78.3499 61.4329
L78.4451 61.3853
" />
<path d="M78.4451 61.3853
L78.4927 61.2901
" />
<path d="M78.4927 61.2901
L78.4927 60.9091
" />
<path d="M78.4927 60.9091
L78.4451 60.8139
" />
<path d="M78.4451 60.8139
L78.3499 60.7663
" />
<path d="M78.3499 60.7663
L78.1594 60.7663
" />
<path d="M78.1594 60.7663
L78.0642 60.8139
" />
<path d="M78.0642 60.8139
L78.0166 60.9091
" />
<path d="M78.0166 60.9091
L78.0166 61.0044
" />
<path d="M78.0166 61.0044
L78.4927 61.0996
" />
<path d="M77.6356 61.3853
L77.5404 61.4329
" />
<path d="M77.5404 61.4329
L77.3499 61.4329
" />
<path d="M77.3499 61.4329
L77.2546 61.3853
" />
<path d="M77.2546 61.3853
L77.2070 61.2901
" />
<path d="M77.2070 61.2901
L77.2070 61.2425
" />
<path d="M77.2070 61.2425
L77.2546 61.1472
" />
<path d="M77.2546 61.1472
L77.3499 61.0996
" />
<path d="M77.3499 61.0996
L77.4927 61.0996
" />
<path d="M77.4927 61.0996
L77.5880 61.0520
" />
<path d="M77.5880 61.0520
L77.6356 60.9568
" />
<path d="M77.6356 60.9568
L77.6356 60.9091
" />
<path d="M77.6356 60.9091
L77.5880 60.8139
" />
<path d="M77.5880 60.8139
L77.4927 60.7663
" />
<path d="M77.4927 60.7663
L77.3499 60.7663
" />
<path d="M77.3499 60.7663
L77.2546 60.8139
" />
<path d="M76.3975 61.3853
L76.4927 61.4329
" />
<path d="M76.4927 61.4329
L76.6832 61.4329
" />
<path d="M76.6832 61.4329
L76.7785 61.3853
" />
<path d="M76.7785 61.3853
L76.8261 61.2901
" />
<path d="M76.8261 61.2901
L76.8261 60.9091
" />
<path d="M76.8261 60.9091
L76.7785 60.8139
" />
<path d="M76.7785 60.8139
L76.6832 60.7663
" />
<path d="M76.6832 60.7663
L76.4927 60.7663
" />
<path d="M76.4927 60.7663
L76.3975 60.8139
" />
<path d="M76.3975 60.8139
L76.3499 60.9091
" />
<path d="M76.3499 60.9091
L76.3499 61.0044
" />
<path d="M76.3499 61.0044
L76.8261 61.0996
" />
<path d="M76.0642 60.7663
L75.6832 60.7663
" />
<path d="M75.9213 60.4329
L75.9213 61.2901
" />
<path d="M75.9213 61.2901
L75.8737 61.3853
" />
<path d="M75.8737 61.3853
L75.7785 61.4329
" />
<path d="M75.7785 61.4329
L75.6832 61.4329
" />
</g><text x="83.9889" y="20.1894"
transform="scale(-1 1) translate(-167.977750 0)"
textLength="2.2500" font-size="1.3333" lengthAdjust="spacingAndGlyphs"
text-anchor="middle" opacity="0">U3</text>
<g class="stroked-text"><desc>U3</desc>
<path d="M84.7508 19.1442
L84.7508 19.9537
" />
<path d="M84.7508 19.9537
L84.7032 20.0490
" />
<path d="M84.7032 20.0490
L84.6555 20.0966
" />
<path d="M84.6555 20.0966
L84.5603 20.1442
" />
<path d="M84.5603 20.1442
L84.3698 20.1442
" />
<path d="M84.3698 20.1442
L84.2746 20.0966
" />
<path d="M84.2746 20.0966
L84.2270 20.0490
" />
<path d="M84.2270 20.0490
L84.1794 19.9537
" />
<path d="M84.1794 19.9537
L84.1794 19.1442
" />
<path d="M83.7984 19.1442
L83.1794 19.1442
" />
<path d="M83.1794 19.1442
L83.5127 19.5251
" />
<path d="M83.5127 19.5251
L83.3698 19.5251
" />
<path d="M83.3698 19.5251
L83.2746 19.5728
" />
<path d="M83.2746 19.5728
L83.2270 19.6204
" />
<path d="M83.2270 19.6204
L83.1794 19.7156
" />
<path d="M83.1794 19.7156
L83.1794 19.9537
" />
<path d="M83.1794 19.9537
L83.2270 20.0490
" />
<path d="M83.2270 20.0490
L83.2746 20.0966
" />
<path d="M83.2746 20.0966
L83.3698 20.1442
" />
<path d="M83.3698 20.1442
L83.6555 20.1442
" />
<path d="M83.6555 20.1442
L83.7508 20.0966
" />
<path d="M83.7508 20.0966
L83.7984 20.0490
" />
</g><text x="81.4107" y="40.5931"
transform="scale(-1 1) translate(-162.821500 0)"
textLength="2.2024" font-size="1.3333" lengthAdjust="spacingAndGlyphs"
text-anchor="middle" opacity="0">C6</text>
<g class="stroked-text"><desc>C6</desc>
<path d="M81.5774 40.4527
L81.6250 40.5003
" />
<path d="M81.6250 40.5003
L81.7679 40.5479
" />
<path d="M81.7679 40.5479
L81.8631 40.5479
" />
<path d="M81.8631 40.5479
L82.0060 40.5003
" />
<path d="M82.0060 40.5003
L82.1012 40.4051
" />
<path d="M82.1012 40.4051
L82.1488 40.3098
" />
<path d="M82.1488 40.3098
L82.1965 40.1194
" />
<path d="M82.1965 40.1194
L82.1965 39.9765
" />
<path d="M82.1965 39.9765
L82.1488 39.7860
" />
<path d="M82.1488 39.7860
L82.1012 39.6908
" />
<path d="M82.1012 39.6908
L82.0060 39.5956
" />
<path d="M82.0060 39.5956
L81.8631 39.5479
" />
<path d="M81.8631 39.5479
L81.7679 39.5479
" />
<path d="M81.7679 39.5479
L81.6250 39.5956
" />
<path d="M81.6250 39.5956
L81.5774 39.6432
" />
<path d="M80.7203 39.5479
L80.9107 39.5479
" />
<path d="M80.9107 39.5479
L81.0060 39.5956
" />
<path d="M81.0060 39.5956
L81.0536 39.6432
" />
<path d="M81.0536 39.6432
L81.1488 39.7860
" />
<path d="M81.1488 39.7860
L81.1965 39.9765
" />
<path d="M81.1965 39.9765
L81.1965 40.3575
" />
<path d="M81.1965 40.3575
L81.1488 40.4527
" />
<path d="M81.1488 40.4527
L81.1012 40.5003
" />
<path d="M81.1012 40.5003
L81.0060 40.5479
" />
<path d="M81.0060 40.5479
L80.8155 40.5479
" />
<path d="M80.8155 40.5479
L80.7203 40.5003
" />
<path d="M80.7203 40.5003
L80.6727 40.4527
" />
<path d="M80.6727 40.4527
L80.6250 40.3575
" />
<path d="M80.6250 40.3575
L80.6250 40.1194
" />
<path d="M80.6250 40.1194
L80.6727 40.0241
" />
<path d="M80.6727 40.0241
L80.7203 39.9765
" />
<path d="M80.7203 39.9765
L80.8155 39.9289
" />
<path d="M80.8155 39.9289
L81.0060 39.9289
" />
<path d="M81.0060 39.9289
L81.1012 39.9765
" />
<path d="M81.1012 39.9765
L81.1488 40.0241
" />
<path d="M81.1488 40.0241
L81.1965 40.1194
" />
</g><text x="83.9889" y="16.4394"
transform="scale(-1 1) translate(-167.977750 0)"
textLength="2.2024" font-size="1.3333" lengthAdjust="spacingAndGlyphs"
text-anchor="middle" opacity="0">R1</text>
<g class="stroked-text"><desc>R1</desc>
<path d="M84.1555 16.3942
L84.4889 15.9180
" />
<path d="M84.7270 16.3942
L84.7270 15.3942
" />
<path d="M84.7270 15.3942
L84.3460 15.3942
" />
<path d="M84.3460 15.3942
L84.2508 15.4418
" />
<path d="M84.2508 15.4418
L84.2032 15.4894
" />
<path d="M84.2032 15.4894
L84.1555 15.5847
" />
<path d="M84.1555 15.5847
L84.1555 15.7275
" />
<path d="M84.1555 15.7275
L84.2032 15.8228
" />
<path d="M84.2032 15.8228
L84.2508 15.8704
" />
<path d="M84.2508 15.8704
L84.3460 15.9180
" />
<path d="M84.3460 15.9180
L84.7270 15.9180
" />
<path d="M83.2032 16.3942
L83.7746 16.3942
" />
<path d="M83.4889 16.3942
L83.4889 15.3942
" />
<path d="M83.4889 15.3942
L83.5841 15.5371
" />
<path d="M83.5841 15.5371
L83.6793 15.6323
" />
<path d="M83.6793 15.6323
L83.7746 15.6799
" />
</g><text x="79.2389" y="25.4394"
transform="scale(-1 1) translate(-158.477750 0)"
textLength="3.1548" font-size="1.3333" lengthAdjust="spacingAndGlyphs"
text-anchor="middle" opacity="0">C10</text>
<g class="stroked-text"><desc>C10</desc>
<path d="M79.8817 25.2990
L79.9294 25.3466
" />
<path d="M79.9294 25.3466
L80.0722 25.3942
" />
<path d="M80.0722 25.3942
L80.1674 25.3942
" />
<path d="M80.1674 25.3942
L80.3103 25.3466
" />
<path d="M80.3103 25.3466
L80.4055 25.2513
" />
<path d="M80.4055 25.2513
L80.4532 25.1561
" />
<path d="M80.4532 25.1561
L80.5008 24.9656
" />
<path d="M80.5008 24.9656
L80.5008 24.8228
" />
<path d="M80.5008 24.8228
L80.4532 24.6323
" />
<path d="M80.4532 24.6323
L80.4055 24.5371
" />
<path d="M80.4055 24.5371
L80.3103 24.4418
" />
<path d="M80.3103 24.4418
L80.1674 24.3942
" />
<path d="M80.1674 24.3942
L80.0722 24.3942
" />
<path d="M80.0722 24.3942
L79.9294 24.4418
" />
<path d="M79.9294 24.4418
L79.8817 24.4894
" />
<path d="M78.9294 25.3942
L79.5008 25.3942
" />
<path d="M79.2151 25.3942
L79.2151 24.3942
" />
<path d="M79.2151 24.3942
L79.3103 24.5371
" />
<path d="M79.3103 24.5371
L79.4055 24.6323
" />
<path d="M79.4055 24.6323
L79.5008 24.6799
" />
<path d="M78.3103 24.3942
L78.2151 24.3942
" />
<path d="M78.2151 24.3942
L78.1198 24.4418
" />
<path d="M78.1198 24.4418
L78.0722 24.4894
" />
<path d="M78.0722 24.4894
L78.0246 24.5847
" />
<path d="M78.0246 24.5847
L77.9770 24.7751
" />
<path d="M77.9770 24.7751
L77.9770 25.0132
" />
<path d="M77.9770 25.0132
L78.0246 25.2037
" />
<path d="M78.0246 25.2037
L78.0722 25.2990
" />
<path d="M78.0722 25.2990
L78.1198 25.3466
" />
<path d="M78.1198 25.3466
L78.2151 25.3942
" />
<path d="M78.2151 25.3942
L78.3103 25.3942
" />
<path d="M78.3103 25.3942
L78.4055 25.3466
" />
<path d="M78.4055 25.3466
L78.4532 25.2990
" />
<path d="M78.4532 25.2990
L78.5008 25.2037
" />
<path d="M78.5008 25.2037
L78.5484 25.0132
" />
<path d="M78.5484 25.0132
L78.5484 24.7751
" />
<path d="M78.5484 24.7751
L78.5008 24.5847
" />
<path d="M78.5008 24.5847
L78.4532 24.4894
" />
<path d="M78.4532 24.4894
L78.4055 24.4418
" />
<path d="M78.4055 24.4418
L78.3103 24.3942
" />
</g><text x="78.9889" y="21.2594"
transform="scale(-1 1) translate(-157.977750 0)"
textLength="2.0595" font-size="1.3333" lengthAdjust="spacingAndGlyphs"
text-anchor="middle" opacity="0">F1</text>
<g class="stroked-text"><desc>F1</desc>
<path d="M79.3222 20.6904
L79.6555 20.6904
" />
<path d="M79.6555 21.2142
L79.6555 20.2142
" />
<path d="M79.6555 20.2142
L79.1794 20.2142
" />
<path d="M78.2746 21.2142
L78.8460 21.2142
" />
<path d="M78.5603 21.2142
L78.5603 20.2142
" />
<path d="M78.5603 20.2142
L78.6555 20.3571
" />
<path d="M78.6555 20.3571
L78.7508 20.4523
" />
<path d="M78.7508 20.4523
L78.8460 20.4999
" />
</g><g transform="rotate(-90.000000 80.4889 23.1894)">
<text x="80.4889" y="23.6894"
transform="scale(-1 1) translate(-160.977750 0)"
textLength="2.2024" font-size="1.3333" lengthAdjust="spacingAndGlyphs"
text-anchor="middle" opacity="0">C9</text>
</g>
<g class="stroked-text"><desc>C9</desc>
<path d="M80.8485 23.0227
L80.8961 22.9751
" />
<path d="M80.8961 22.9751
L80.9437 22.8322
" />
<path d="M80.9437 22.8322
L80.9437 22.7370
" />
<path d="M80.9437 22.7370
L80.8961 22.5941
" />
<path d="M80.8961 22.5941
L80.8008 22.4989
" />
<path d="M80.8008 22.4989
L80.7056 22.4513
" />
<path d="M80.7056 22.4513
L80.5151 22.4037
" />
<path d="M80.5151 22.4037
L80.3723 22.4037
" />
<path d="M80.3723 22.4037
L80.1818 22.4513
" />
<path d="M80.1818 22.4513
L80.0866 22.4989
" />
<path d="M80.0866 22.4989
L79.9913 22.5941
" />
<path d="M79.9913 22.5941
L79.9437 22.7370
" />
<path d="M79.9437 22.7370
L79.9437 22.8322
" />
<path d="M79.9437 22.8322
L79.9913 22.9751
" />
<path d="M79.9913 22.9751
L80.0389 23.0227
" />
<path d="M80.9437 23.4989
L80.9437 23.6894
" />
<path d="M80.9437 23.6894
L80.8961 23.7846
" />
<path d="M80.8961 23.7846
L80.8485 23.8322
" />
<path d="M80.8485 23.8322
L80.7056 23.9275
" />
<path d="M80.7056 23.9275
L80.5151 23.9751
" />
<path d="M80.5151 23.9751
L80.1342 23.9751
" />
<path d="M80.1342 23.9751
L80.0389 23.9275
" />
<path d="M80.0389 23.9275
L79.9913 23.8799
" />
<path d="M79.9913 23.8799
L79.9437 23.7846
" />
<path d="M79.9437 23.7846
L79.9437 23.5941
" />
<path d="M79.9437 23.5941
L79.9913 23.4989
" />
<path d="M79.9913 23.4989
L80.0389 23.4513
" />
<path d="M80.0389 23.4513
L80.1342 23.4037
" />
<path d="M80.1342 23.4037
L80.3723 23.4037
" />
<path d="M80.3723 23.4037
L80.4675 23.4513
" />
<path d="M80.4675 23.4513
L80.5151 23.4989
" />
<path d="M80.5151 23.4989
L80.5627 23.5941
" />
<path d="M80.5627 23.5941
L80.5627 23.7846
" />
<path d="M80.5627 23.7846
L80.5151 23.8799
" />
<path d="M80.5151 23.8799
L80.4675 23.9275
" />
<path d="M80.4675 23.9275
L80.3723 23.9751
" />
</g><text x="78.9107" y="41.1831"
transform="scale(-1 1) translate(-157.821500 0)"
textLength="2.2024" font-size="1.3333" lengthAdjust="spacingAndGlyphs"
text-anchor="middle" opacity="0">C1</text>
<g class="stroked-text"><desc>C1</desc>
<path d="M79.0774 41.0427
L79.1250 41.0903
" />
<path d="M79.1250 41.0903
L79.2679 41.1379
" />
<path d="M79.2679 41.1379
L79.3631 41.1379
" />
<path d="M79.3631 41.1379
L79.5060 41.0903
" />
<path d="M79.5060 41.0903
L79.6012 40.9951
" />
<path d="M79.6012 40.9951
L79.6488 40.8998
" />
<path d="M79.6488 40.8998
L79.6965 40.7094
" />
<path d="M79.6965 40.7094
L79.6965 40.5665
" />
<path d="M79.6965 40.5665
L79.6488 40.3760
" />
<path d="M79.6488 40.3760
L79.6012 40.2808
" />
<path d="M79.6012 40.2808
L79.5060 40.1856
" />
<path d="M79.5060 40.1856
L79.3631 40.1379
" />
<path d="M79.3631 40.1379
L79.2679 40.1379
" />
<path d="M79.2679 40.1379
L79.1250 40.1856
" />
<path d="M79.1250 40.1856
L79.0774 40.2332
" />
<path d="M78.1250 41.1379
L78.6965 41.1379
" />
<path d="M78.4107 41.1379
L78.4107 40.1379
" />
<path d="M78.4107 40.1379
L78.5060 40.2808
" />
<path d="M78.5060 40.2808
L78.6012 40.3760
" />
<path d="M78.6012 40.3760
L78.6965 40.4237
" />
</g><text x="77.1607" y="42.5131"
transform="scale(-1 1) translate(-154.321500 0)"
textLength="2.2024" font-size="1.3333" lengthAdjust="spacingAndGlyphs"
text-anchor="middle" opacity="0">R4</text>
<g class="stroked-text"><desc>R4</desc>
<path d="M77.3274 42.4679
L77.6607 41.9918
" />
<path d="M77.8988 42.4679
L77.8988 41.4679
" />
<path d="M77.8988 41.4679
L77.5179 41.4679
" />
<path d="M77.5179 41.4679
L77.4227 41.5156
" />
<path d="M77.4227 41.5156
L77.3750 41.5632
" />
<path d="M77.3750 41.5632
L77.3274 41.6584
" />
<path d="M77.3274 41.6584
L77.3274 41.8013
" />
<path d="M77.3274 41.8013
L77.3750 41.8965
" />
<path d="M77.3750 41.8965
L77.4227 41.9441
" />
<path d="M77.4227 41.9441
L77.5179 41.9918
" />
<path d="M77.5179 41.9918
L77.8988 41.9918
" />
<path d="M76.4703 41.8013
L76.4703 42.4679
" />
<path d="M76.7084 41.4203
L76.9465 42.1346
" />
<path d="M76.9465 42.1346
L76.3274 42.1346
" />
</g><text x="78.9107" y="39.6831"
transform="scale(-1 1) translate(-157.821500 0)"
textLength="2.2024" font-size="1.3333" lengthAdjust="spacingAndGlyphs"
text-anchor="middle" opacity="0">C7</text>
<g class="stroked-text"><desc>C7</desc>
<path d="M79.0774 39.5427
L79.1250 39.5903
" />
<path d="M79.1250 39.5903
L79.2679 39.6379
" />
<path d="M79.2679 39.6379
L79.3631 39.6379
" />
<path d="M79.3631 39.6379
L79.5060 39.5903
" />
<path d="M79.5060 39.5903
L79.6012 39.4951
" />
<path d="M79.6012 39.4951
L79.6488 39.3998
" />
<path d="M79.6488 39.3998
L79.6965 39.2094
" />
<path d="M79.6965 39.2094
L79.6965 39.0665
" />
<path d="M79.6965 39.0665
L79.6488 38.8760
" />
<path d="M79.6488 38.8760
L79.6012 38.7808
" />
<path d="M79.6012 38.7808
L79.5060 38.6856
" />
<path d="M79.5060 38.6856
L79.3631 38.6379
" />
<path d="M79.3631 38.6379
L79.2679 38.6379
" />
<path d="M79.2679 38.6379
L79.1250 38.6856
" />
<path d="M79.1250 38.6856
L79.0774 38.7332
" />
<path d="M78.7441 38.6379
L78.0774 38.6379
" />
<path d="M78.0774 38.6379
L78.5060 39.6379
" />
</g><text x="83.9889" y="13.9394"
transform="scale(-1 1) translate(-167.977750 0)"
textLength="2.2024" font-size="1.3333" lengthAdjust="spacingAndGlyphs"
text-anchor="middle" opacity="0">R2</text>
<g class="stroked-text"><desc>R2</desc>
<path d="M84.1555 13.8942
L84.4889 13.4180
" />
<path d="M84.7270 13.8942
L84.7270 12.8942
" />
<path d="M84.7270 12.8942
L84.3460 12.8942
" />
<path d="M84.3460 12.8942
L84.2508 12.9418
" />
<path d="M84.2508 12.9418
L84.2032 12.9894
" />
<path d="M84.2032 12.9894
L84.1555 13.0847
" />
<path d="M84.1555 13.0847
L84.1555 13.2275
" />
<path d="M84.1555 13.2275
L84.2032 13.3228
" />
<path d="M84.2032 13.3228
L84.2508 13.3704
" />
<path d="M84.2508 13.3704
L84.3460 13.4180
" />
<path d="M84.3460 13.4180
L84.7270 13.4180
" />
<path d="M83.7746 12.9894
L83.7270 12.9418
" />
<path d="M83.7270 12.9418
L83.6317 12.8942
" />
<path d="M83.6317 12.8942
L83.3936 12.8942
" />
<path d="M83.3936 12.8942
L83.2984 12.9418
" />
<path d="M83.2984 12.9418
L83.2508 12.9894
" />
<path d="M83.2508 12.9894
L83.2032 13.0847
" />
<path d="M83.2032 13.0847
L83.2032 13.1799
" />
<path d="M83.2032 13.1799
L83.2508 13.3228
" />
<path d="M83.2508 13.3228
L83.8222 13.8942
" />
<path d="M83.8222 13.8942
L83.2032 13.8942
" />
</g><text x="78.9889" y="12.8344"
transform="scale(-1 1) translate(-157.977750 0)"
textLength="1.9643" font-size="1.3333" lengthAdjust="spacingAndGlyphs"
text-anchor="middle" opacity="0">J1</text>
<g class="stroked-text"><desc>J1</desc>
<path d="M79.3222 11.7892
L79.3222 12.5035
" />
<path d="M79.3222 12.5035
L79.3698 12.6463
" />
<path d="M79.3698 12.6463
L79.4651 12.7416
" />
<path d="M79.4651 12.7416
L79.6079 12.7892
" />
<path d="M79.6079 12.7892
L79.7032 12.7892
" />
<path d="M78.3222 12.7892
L78.8936 12.7892
" />
<path d="M78.6079 12.7892
L78.6079 11.7892
" />
<path d="M78.6079 11.7892
L78.7032 11.9321
" />
<path d="M78.7032 11.9321
L78.7984 12.0273
" />
<path d="M78.7984 12.0273
L78.8936 12.0749
" />
</g><text x="79.6607" y="42.5131"
transform="scale(-1 1) translate(-159.321500 0)"
textLength="2.2024" font-size="1.3333" lengthAdjust="spacingAndGlyphs"
text-anchor="middle" opacity="0">R3</text>
<g class="stroked-text"><desc>R3</desc>
<path d="M79.8274 42.4679
L80.1607 41.9918
" />
<path d="M80.3988 42.4679
L80.3988 41.4679
" />
<path d="M80.3988 41.4679
L80.0179 41.4679
" />
<path d="M80.0179 41.4679
L79.9227 41.5156
" />
<path d="M79.9227 41.5156
L79.8750 41.5632
" />
<path d="M79.8750 41.5632
L79.8274 41.6584
" />
<path d="M79.8274 41.6584
L79.8274 41.8013
" />
<path d="M79.8274 41.8013
L79.8750 41.8965
" />
<path d="M79.8750 41.8965
L79.9227 41.9441
" />
<path d="M79.9227 41.9441
L80.0179 41.9918
" />
<path d="M80.0179 41.9918
L80.3988 41.9918
" />
<path d="M79.4941 41.4679
L78.8750 41.4679
" />
<path d="M78.8750 41.4679
L79.2084 41.8489
" />
<path d="M79.2084 41.8489
L79.0655 41.8489
" />
<path d="M79.0655 41.8489
L78.9703 41.8965
" />
<path d="M78.9703 41.8965
L78.9227 41.9441
" />
<path d="M78.9227 41.9441
L78.8750 42.0394
" />
<path d="M78.8750 42.0394
L78.8750 42.2775
" />
<path d="M78.8750 42.2775
L78.9227 42.3727
" />
<path d="M78.9227 42.3727
L78.9703 42.4203
" />
<path d="M78.9703 42.4203
L79.0655 42.4679
" />
<path d="M79.0655 42.4679
L79.3512 42.4679
" />
<path d="M79.3512 42.4679
L79.4465 42.4203
" />
<path d="M79.4465 42.4203
L79.4941 42.3727
" />
</g><text x="84.9889" y="26.9394"
transform="scale(-1 1) translate(-169.977750 0)"
textLength="2.2024" font-size="1.3333" lengthAdjust="spacingAndGlyphs"
text-anchor="middle" opacity="0">C2</text>
<g class="stroked-text"><desc>C2</desc>
<path d="M85.1555 26.7990
L85.2032 26.8466
" />
<path d="M85.2032 26.8466
L85.3460 26.8942
" />
<path d="M85.3460 26.8942
L85.4413 26.8942
" />
<path d="M85.4413 26.8942
L85.5841 26.8466
" />
<path d="M85.5841 26.8466
L85.6793 26.7513
" />
<path d="M85.6793 26.7513
L85.7270 26.6561
" />
<path d="M85.7270 26.6561
L85.7746 26.4656
" />
<path d="M85.7746 26.4656
L85.7746 26.3228
" />
<path d="M85.7746 26.3228
L85.7270 26.1323
" />
<path d="M85.7270 26.1323
L85.6793 26.0371
" />
<path d="M85.6793 26.0371
L85.5841 25.9418
" />
<path d="M85.5841 25.9418
L85.4413 25.8942
" />
<path d="M85.4413 25.8942
L85.3460 25.8942
" />
<path d="M85.3460 25.8942
L85.2032 25.9418
" />
<path d="M85.2032 25.9418
L85.1555 25.9894
" />
<path d="M84.7746 25.9894
L84.7270 25.9418
" />
<path d="M84.7270 25.9418
L84.6317 25.8942
" />
<path d="M84.6317 25.8942
L84.3936 25.8942
" />
<path d="M84.3936 25.8942
L84.2984 25.9418
" />
<path d="M84.2984 25.9418
L84.2508 25.9894
" />
<path d="M84.2508 25.9894
L84.2032 26.0847
" />
<path d="M84.2032 26.0847
L84.2032 26.1799
" />
<path d="M84.2032 26.1799
L84.2508 26.3228
" />
<path d="M84.2508 26.3228
L84.8222 26.8942
" />
<path d="M84.8222 26.8942
L84.2032 26.8942
" />
</g><g transform="rotate(-90.000000 83.2389 17.9394)">
<text x="83.2389" y="18.4394"
transform="scale(-1 1) translate(-166.477750 0)"
textLength="2.2024" font-size="1.3333" lengthAdjust="spacingAndGlyphs"
text-anchor="middle" opacity="0">C8</text>
</g>
<g class="stroked-text"><desc>C8</desc>
<path d="M83.5985 17.7727
L83.6461 17.7251
" />
<path d="M83.6461 17.7251
L83.6937 17.5822
" />
<path d="M83.6937 17.5822
L83.6937 17.4870
" />
<path d="M83.6937 17.4870
L83.6461 17.3441
" />
<path d="M83.6461 17.3441
L83.5508 17.2489
" />
<path d="M83.5508 17.2489
L83.4556 17.2013
" />
<path d="M83.4556 17.2013
L83.2651 17.1537
" />
<path d="M83.2651 17.1537
L83.1223 17.1537
" />
<path d="M83.1223 17.1537
L82.9318 17.2013
" />
<path d="M82.9318 17.2013
L82.8366 17.2489
" />
<path d="M82.8366 17.2489
L82.7413 17.3441
" />
<path d="M82.7413 17.3441
L82.6937 17.4870
" />
<path d="M82.6937 17.4870
L82.6937 17.5822
" />
<path d="M82.6937 17.5822
L82.7413 17.7251
" />
<path d="M82.7413 17.7251
L82.7889 17.7727
" />
<path d="M83.1223 18.3441
L83.0746 18.2489
" />
<path d="M83.0746 18.2489
L83.0270 18.2013
" />
<path d="M83.0270 18.2013
L82.9318 18.1537
" />
<path d="M82.9318 18.1537
L82.8842 18.1537
" />
<path d="M82.8842 18.1537
L82.7889 18.2013
" />
<path d="M82.7889 18.2013
L82.7413 18.2489
" />
<path d="M82.7413 18.2489
L82.6937 18.3441
" />
<path d="M82.6937 18.3441
L82.6937 18.5346
" />
<path d="M82.6937 18.5346
L82.7413 18.6299
" />
<path d="M82.7413 18.6299
L82.7889 18.6775
" />
<path d="M82.7889 18.6775
L82.8842 18.7251
" />
<path d="M82.8842 18.7251
L82.9318 18.7251
" />
<path d="M82.9318 18.7251
L83.0270 18.6775
" />
<path d="M83.0270 18.6775
L83.0746 18.6299
" />
<path d="M83.0746 18.6299
L83.1223 18.5346
" />
<path d="M83.1223 18.5346
L83.1223 18.3441
" />
<path d="M83.1223 18.3441
L83.1699 18.2489
" />
<path d="M83.1699 18.2489
L83.2175 18.2013
" />
<path d="M83.2175 18.2013
L83.3127 18.1537
" />
<path d="M83.3127 18.1537
L83.5032 18.1537
" />
<path d="M83.5032 18.1537
L83.5985 18.2013
" />
<path d="M83.5985 18.2013
L83.6461 18.2489
" />
<path d="M83.6461 18.2489
L83.6937 18.3441
" />
<path d="M83.6937 18.3441
L83.6937 18.5346
" />
<path d="M83.6937 18.5346
L83.6461 18.6299
" />
<path d="M83.6461 18.6299
L83.5985 18.6775
" />
<path d="M83.5985 18.6775
L83.5032 18.7251
" />
<path d="M83.5032 18.7251
L83.3127 18.7251
" />
<path d="M83.3127 18.7251
L83.2175 18.6775
" />
<path d="M83.2175 18.6775
L83.1699 18.6299
" />
<path d="M83.1699 18.6299
L83.1223 18.5346
" />
</g></g>
<g style="fill:#E8B2A7; fill-opacity:0.0; 
stroke:#E8B2A7; stroke-width:0.1200; stroke-opacity:1; 
stroke-linecap:round; stroke-linejoin:round;">
<path d="M62.3076 51.6350
L62.3076 48.9750
" />
<path d="M64.0076 51.6350
L62.3076 51.6350
" />
<path d="M64.0076 51.6350
L64.0076 48.9750
" />
<path d="M37.7014 47.1287
L37.7014 44.4688
" />
<path d="M39.4014 47.1287
L37.7014 47.1287
" />
<path d="M39.4014 47.1287
L39.4014 44.4688
" />
<path d="M96.4389 30.2037
L96.4389 27.5437
" />
<path d="M98.1389 30.2037
L96.4389 30.2037
" />
<path d="M98.1389 30.2037
L98.1389 27.5437
" />
<path d="M73.5507 29.0410
L73.5507 28.8253
" />
<path d="M74.2707 29.0410
L74.2707 28.8253
" />
<path d="M74.8007 36.7931
L75.2507 36.7931
" />
<path d="M81.5707 36.7931
L81.5707 38.0831
" />
<path d="M82.0207 36.7931
L81.5707 36.7931
" />
<path d="M74.8007 36.3431
L74.8007 36.7931
" />
<path d="M82.0207 36.3431
L82.0207 36.7931
" />
<path d="M74.8007 30.0231
L74.8007 29.5731
" />
<path d="M82.0207 30.0231
L82.0207 29.5731
" />
<path d="M74.8007 29.5731
L75.2507 29.5731
" />
<path d="M82.0207 29.5731
L81.5707 29.5731
" />
<path d="M60.3232 51.6350
L60.3232 48.9750
" />
<path d="M62.0232 51.6350
L60.3232 51.6350
" />
<path d="M62.0232 51.6350
L62.0232 48.9750
" />
<path d="M59.9264 71.6194
L59.9264 68.9594
" />
<path d="M61.6264 71.6194
L59.9264 71.6194
" />
<path d="M61.6264 71.6194
L61.6264 68.9594
" />
<path d="M40.0826 28.2194
L40.0826 25.5594
" />
<path d="M41.7826 28.2194
L40.0826 28.2194
" />
<path d="M41.7826 28.2194
L41.7826 25.5594
" />
<path d="M82.5529 28.3231
L82.7686 28.3231
" />
<path d="M82.5529 29.0431
L82.7686 29.0431
" />
<path d="M69.6983 53.2281
L71.6983 53.2281
" />
<path d="M72.9982 54.2781
L73.4483 54.7281
" />
<path d="M68.3982 54.2781
L67.9483 54.7281
" />
<path d="M73.4483 54.7281
L73.4483 57.2281
" />
<path d="M67.9483 54.7281
L67.9483 57.2281
" />
<path d="M72.9982 57.6781
L73.4483 57.2281
" />
<path d="M68.3982 57.6781
L67.9483 57.2281
" />
<path d="M69.6983 58.7281
L71.6983 58.7281
" />
</g>
<g style="fill:#E8B2A7; fill-opacity:0.0; 
stroke:#E8B2A7; stroke-width:0.1500; stroke-opacity:1; 
stroke-linecap:round; stroke-linejoin:round;">
<path d="M4.1420 23.8750
L16.2420 23.8750
" />
<path d="M4.1420 24.1250
L2.1420 24.1250
" />
<path d="M4.1420 29.7250
L2.1420 29.7250
" />
<path d="M2.1420 29.7250
L2.1420 24.1250
" />
<path d="M16.2420 29.9750
L16.2420 23.8750
" />
<path d="M4.1420 29.9750
L4.1420 23.8750
" />
<path d="M4.1420 29.9750
L16.2420 29.9750
" />
</g>
<g style="fill:#E8B2A7; fill-opacity:0.0; 
stroke:#E8B2A7; stroke-width:0.1200; stroke-opacity:1; 
stroke-linecap:round; stroke-linejoin:round;">
<path d="M78.3389 13.1294
L79.6389 13.1294
" />
<path d="M79.6389 16.2494
L77.6389 16.2494
" />
<path d="M83.2707 37.3253
L83.2707 37.5410
" />
<path d="M82.5507 37.3253
L82.5507 37.5410
" />
<path d="M78.4451 58.7281
L76.4451 58.7281
" />
<path d="M75.1451 57.6781
L74.6951 57.2281
" />
<path d="M79.7451 57.6781
L80.1951 57.2281
" />
<path d="M74.6951 57.2281
L74.6951 54.7281
" />
<path d="M80.1951 57.2281
L80.1951 54.7281
" />
<path d="M75.1451 54.2781
L74.6951 54.7281
" />
<path d="M79.7451 54.2781
L80.1951 54.7281
" />
<path d="M78.4451 53.2281
L76.4451 53.2281
" />
<path d="M39.6857 66.3194
L39.6857 63.6594
" />
<path d="M41.3858 66.3194
L39.6857 66.3194
" />
<path d="M41.3858 66.3194
L41.3858 63.6594
" />
<path d="M38.0983 28.2194
L38.0983 25.5594
" />
<path d="M39.7982 28.2194
L38.0983 28.2194
" />
<path d="M39.7982 28.2194
L39.7982 25.5594
" />
<path d="M35.7170 66.3194
L35.7170 63.6594
" />
<path d="M37.4170 66.3194
L35.7170 66.3194
" />
<path d="M37.4170 66.3194
L37.4170 63.6594
" />
<path d="M41.6701 66.3194
L41.6701 63.6594
" />
<path d="M43.3701 66.3194
L41.6701 66.3194
" />
<path d="M43.3701 66.3194
L43.3701 63.6594
" />
<path d="M83.2389 23.7494
L83.8889 23.7494
" />
<path d="M83.2389 23.7494
L82.5889 23.7494
" />
<path d="M83.2389 20.6294
L84.9139 20.6294
" />
<path d="M83.2389 20.6294
L82.5889 20.6294
" />
<path d="M42.0670 28.2194
L42.0670 25.5594
" />
<path d="M43.7670 28.2194
L42.0670 28.2194
" />
<path d="M43.7670 28.2194
L43.7670 25.5594
" />
<path d="M82.3029 38.5731
L82.5186 38.5731
" />
<path d="M82.3029 39.2931
L82.5186 39.2931
" />
<path d="M39.6857 47.1287
L39.6857 44.4688
" />
<path d="M41.3858 47.1287
L39.6857 47.1287
" />
<path d="M41.3858 47.1287
L41.3858 44.4688
" />
<path d="M82.1425 16.3194
L81.8352 16.3194
" />
<path d="M82.1425 15.5594
L81.8352 15.5594
" />
<path d="M81.8467 25.0494
L81.6310 25.0494
" />
<path d="M81.8467 24.3294
L81.6310 24.3294
" />
<path d="M78.3868 18.0294
L79.5909 18.0294
" />
<path d="M78.3868 19.8494
L79.5909 19.8494
" />
<path d="M80.1289 21.2972
L80.1289 21.0815
" />
<path d="M80.8489 21.2972
L80.8489 21.0815
" />
<path d="M35.7170 47.1287
L35.7170 44.4688
" />
<path d="M37.4170 47.1287
L35.7170 47.1287
" />
<path d="M37.4170 47.1287
L37.4170 44.4688
" />
<path d="M77.0052 41.2797
L76.7895 41.2797
" />
<path d="M77.0052 40.5597
L76.7895 40.5597
" />
<path d="M77.3144 43.5631
L77.0071 43.5631
" />
<path d="M77.3144 42.8031
L77.0071 42.8031
" />
<path d="M76.7895 39.3097
L77.0052 39.3097
" />
<path d="M76.7895 40.0297
L77.0052 40.0297
" />
<path d="M81.8352 13.0594
L82.1425 13.0594
" />
<path d="M81.8352 13.8194
L82.1425 13.8194
" />
<path d="M74.2889 2.7894
L83.6889 2.7894
" />
<path d="M74.2889 4.6894
L74.2889 2.7894
" />
<path d="M74.2889 8.5894
L74.2889 6.5894
" />
<path d="M83.6889 4.6894
L83.6889 2.7894
" />
<path d="M83.6889 8.5894
L83.6889 6.5894
" />
<path d="M61.9108 71.6194
L61.9108 68.9594
" />
<path d="M63.6107 71.6194
L61.9108 71.6194
" />
<path d="M63.6107 71.6194
L63.6107 68.9594
" />
<path d="M79.8144 43.5631
L79.5071 43.5631
" />
<path d="M79.8144 42.8031
L79.5071 42.8031
" />
<path d="M36.1139 28.2194
L36.1139 25.5594
" />
<path d="M37.8139 28.2194
L36.1139 28.2194
" />
<path d="M37.8139 28.2194
L37.8139 25.5594
" />
<path d="M37.7014 66.3194
L37.7014 63.6594
" />
<path d="M39.4014 66.3194
L37.7014 66.3194
" />
<path d="M39.4014 66.3194
L39.4014 63.6594
" />
<path d="M84.3483 24.4294
L84.6295 24.4294
" />
<path d="M84.3483 25.4494
L84.6295 25.4494
" />
<path d="M81.6289 18.0472
L81.6289 17.8315
" />
<path d="M82.3489 18.0472
L82.3489 17.8315
" />
<path d="M33.7326 66.3194
L33.7326 63.6594
" />
<path d="M35.4326 66.3194
L33.7326 66.3194
" />
<path d="M35.4326 66.3194
L35.4326 63.6594
" />
<path d="M57.9420 71.6194
L57.9420 68.9594
" />
<path d="M59.6420 71.6194
L57.9420 71.6194
" />
<path d="M59.6420 71.6194
L59.6420 68.9594
" />
<g >
</g>
<g >
</g>
<g >
</g>
<g >
</g>
<g >
</g>
<g >
</g>
<g >
</g>
<g >
</g>
<g >
</g>
<g >
</g>
<g >
</g>
<g >
</g>
<g >
</g>
<g >
</g>
<g >
</g>
<g >
</g>
<g >
</g>
<g >
</g>
<g >
</g>
<g >
</g>
<g >
</g>
<g >
</g>
<g >
</g>
<g >
</g>
<g >
</g>
<g >
</g>
<g >
</g>
<g >
</g>
<g >
</g>
<g >
</g>
<g >
</g>
<g >
</g>
<g >
</g>
<g >
</g>
<g >
</g>
<g >
</g>
<g >
</g>
<g >
</g>
<g >
</g>
<g >
</g>
<g >
</g>
<g >
</g>
<g >
</g>
<g >
</g>
<g >
</g>
<g >
</g>
<g >
</g>
<g >
</g>
<g >
</g>
<g >
</g>
<g >
</g>
<g >
</g>
<g >
</g>
<g >
</g>
<g >
</g>
<g >
</g>
<g >
</g>
<g >
</g>
<g >
</g>
<g >
</g>
<g >
</g>
<g >
</g>
</g>
<g style="fill:#000000; fill-opacity:0.0; 
stroke:#000000; stroke-width:0.1200; stroke-opacity:1; 
stroke-linecap:round; stroke-linejoin:round;">
</g>
<g style="fill:#C2C2C2; fill-opacity:0.0; 
stroke:#C2C2C2; stroke-width:0.1200; stroke-opacity:1; 
stroke-linecap:round; stroke-linejoin:round;">
</g>
<g style="fill:#C2C2C2; fill-opacity:0.0; 
stroke:#C2C2C2; stroke-width:0.3000; stroke-opacity:1; 
stroke-linecap:round; stroke-linejoin:round;">
<text x="77.0482" y="2.4000"
textLength="5.1000" font-size="2.0000" lengthAdjust="spacingAndGlyphs"
text-anchor="start" opacity="0">USB</text>
<g class="stroked-text"><desc>USB</desc>
<path d="M77.6028 0.7008
L77.6028 1.9151
" />
<path d="M77.6028 1.9151
L77.6742 2.0580
" />
<path d="M77.6742 2.0580
L77.7456 2.1294
" />
<path d="M77.7456 2.1294
L77.8885 2.2008
" />
<path d="M77.8885 2.2008
L78.1742 2.2008
" />
<path d="M78.1742 2.2008
L78.3170 2.1294
" />
<path d="M78.3170 2.1294
L78.3885 2.0580
" />
<path d="M78.3885 2.0580
L78.4599 1.9151
" />
<path d="M78.4599 1.9151
L78.4599 0.7008
" />
<path d="M79.1028 2.1294
L79.3170 2.2008
" />
<path d="M79.3170 2.2008
L79.6742 2.2008
" />
<path d="M79.6742 2.2008
L79.8170 2.1294
" />
<path d="M79.8170 2.1294
L79.8885 2.0580
" />
<path d="M79.8885 2.0580
L79.9599 1.9151
" />
<path d="M79.9599 1.9151
L79.9599 1.7723
" />
<path d="M79.9599 1.7723
L79.8885 1.6294
" />
<path d="M79.8885 1.6294
L79.8170 1.5580
" />
<path d="M79.8170 1.5580
L79.6742 1.4865
" />
<path d="M79.6742 1.4865
L79.3885 1.4151
" />
<path d="M79.3885 1.4151
L79.2456 1.3437
" />
<path d="M79.2456 1.3437
L79.1742 1.2723
" />
<path d="M79.1742 1.2723
L79.1028 1.1294
" />
<path d="M79.1028 1.1294
L79.1028 0.9865
" />
<path d="M79.1028 0.9865
L79.1742 0.8437
" />
<path d="M79.1742 0.8437
L79.2456 0.7723
" />
<path d="M79.2456 0.7723
L79.3885 0.7008
" />
<path d="M79.3885 0.7008
L79.7456 0.7008
" />
<path d="M79.7456 0.7008
L79.9599 0.7723
" />
<path d="M81.1028 1.4151
L81.3170 1.4865
" />
<path d="M81.3170 1.4865
L81.3885 1.5580
" />
<path d="M81.3885 1.5580
L81.4599 1.7008
" />
<path d="M81.4599 1.7008
L81.4599 1.9151
" />
<path d="M81.4599 1.9151
L81.3885 2.0580
" />
<path d="M81.3885 2.0580
L81.3170 2.1294
" />
<path d="M81.3170 2.1294
L81.1742 2.2008
" />
<path d="M81.1742 2.2008
L80.6028 2.2008
" />
<path d="M80.6028 2.2008
L80.6028 0.7008
" />
<path d="M80.6028 0.7008
L81.1028 0.7008
" />
<path d="M81.1028 0.7008
L81.2456 0.7723
" />
<path d="M81.2456 0.7723
L81.3170 0.8437
" />
<path d="M81.3170 0.8437
L81.3885 0.9865
" />
<path d="M81.3885 0.9865
L81.3885 1.1294
" />
<path d="M81.3885 1.1294
L81.3170 1.2723
" />
<path d="M81.3170 1.2723
L81.2456 1.3437
" />
<path d="M81.2456 1.3437
L81.1028 1.4151
" />
<path d="M81.1028 1.4151
L80.6028 1.4151
" />
</g></g>
<g style="fill:#C2C2C2; fill-opacity:0.0; 
stroke:#C2C2C2; stroke-width:0.1500; stroke-opacity:1; 
stroke-linecap:round; stroke-linejoin:round;">
<g transform="rotate(-90.000000 18.3420 26.9250)">
<text x="18.3420" y="27.4250"
textLength="2.2500" font-size="1.3333" lengthAdjust="spacingAndGlyphs"
text-anchor="middle" opacity="0">U4</text>
</g>
<g class="stroked-text"><desc>U4</desc>
<path d="M17.7968 27.6869
L18.6063 27.6869
" />
<path d="M18.6063 27.6869
L18.7016 27.6393
" />
<path d="M18.7016 27.6393
L18.7492 27.5917
" />
<path d="M18.7492 27.5917
L18.7968 27.4964
" />
<path d="M18.7968 27.4964
L18.7968 27.3060
" />
<path d="M18.7968 27.3060
L18.7492 27.2107
" />
<path d="M18.7492 27.2107
L18.7016 27.1631
" />
<path d="M18.7016 27.1631
L18.6063 27.1155
" />
<path d="M18.6063 27.1155
L17.7968 27.1155
" />
<path d="M18.1302 26.2107
L18.7968 26.2107
" />
<path d="M17.7492 26.4488
L18.4635 26.6869
" />
<path d="M18.4635 26.6869
L18.4635 26.0679
" />
</g><g transform="rotate(-90.000000 0.8482 26.9250)">
<text x="0.8482" y="27.4250"
textLength="3.9643" font-size="1.3333" lengthAdjust="spacingAndGlyphs"
text-anchor="middle" opacity="0">TRRS</text>
</g>
<g class="stroked-text"><desc>TRRS</desc>
<path d="M0.3031 28.6869
L0.3031 28.1155
" />
<path d="M1.3031 28.4012
L0.3031 28.4012
" />
<path d="M1.3031 27.2107
L0.8269 27.5440
" />
<path d="M1.3031 27.7821
L0.3031 27.7821
" />
<path d="M0.3031 27.7821
L0.3031 27.4012
" />
<path d="M0.3031 27.4012
L0.3507 27.3060
" />
<path d="M0.3507 27.3060
L0.3983 27.2583
" />
<path d="M0.3983 27.2583
L0.4935 27.2107
" />
<path d="M0.4935 27.2107
L0.6364 27.2107
" />
<path d="M0.6364 27.2107
L0.7316 27.2583
" />
<path d="M0.7316 27.2583
L0.7793 27.3060
" />
<path d="M0.7793 27.3060
L0.8269 27.4012
" />
<path d="M0.8269 27.4012
L0.8269 27.7821
" />
<path d="M1.3031 26.2107
L0.8269 26.5440
" />
<path d="M1.3031 26.7821
L0.3031 26.7821
" />
<path d="M0.3031 26.7821
L0.3031 26.4012
" />
<path d="M0.3031 26.4012
L0.3507 26.3060
" />
<path d="M0.3507 26.3060
L0.3983 26.2583
" />
<path d="M0.3983 26.2583
L0.4935 26.2107
" />
<path d="M0.4935 26.2107
L0.6364 26.2107
" />
<path d="M0.6364 26.2107
L0.7316 26.2583
" />
<path d="M0.7316 26.2583
L0.7793 26.3060
" />
<path d="M0.7793 26.3060
L0.8269 26.4012
" />
<path d="M0.8269 26.4012
L0.8269 26.7821
" />
<path d="M1.2554 25.8298
L1.3031 25.6869
" />
<path d="M1.3031 25.6869
L1.3031 25.4488
" />
<path d="M1.3031 25.4488
L1.2554 25.3536
" />
<path d="M1.2554 25.3536
L1.2078 25.3060
" />
<path d="M1.2078 25.3060
L1.1126 25.2583
" />
<path d="M1.1126 25.2583
L1.0174 25.2583
" />
<path d="M1.0174 25.2583
L0.9221 25.3060
" />
<path d="M0.9221 25.3060
L0.8745 25.3536
" />
<path d="M0.8745 25.3536
L0.8269 25.4488
" />
<path d="M0.8269 25.4488
L0.7793 25.6393
" />
<path d="M0.7793 25.6393
L0.7316 25.7345
" />
<path d="M0.7316 25.7345
L0.6840 25.7821
" />
<path d="M0.6840 25.7821
L0.5888 25.8298
" />
<path d="M0.5888 25.8298
L0.4935 25.8298
" />
<path d="M0.4935 25.8298
L0.3983 25.7821
" />
<path d="M0.3983 25.7821
L0.3507 25.7345
" />
<path d="M0.3507 25.7345
L0.3031 25.6393
" />
<path d="M0.3031 25.6393
L0.3031 25.4012
" />
<path d="M0.3031 25.4012
L0.3507 25.2583
" />
</g></g>
<g style="fill:#C2C2C2; fill-opacity:0.0; 
stroke:#C2C2C2; stroke-width:0.1200; stroke-opacity:1; 
stroke-linecap:round; stroke-linejoin:round;">
<path d="M61.1732 85.3469
L80.2232 85.3469
" />
<path d="M80.2232 85.3469
L80.2232 52.0094
" />
<path d="M61.1732 52.0094
L61.1732 85.3469
" />
<path d="M80.2232 52.0094
L61.1732 52.0094
" />
<path d="M42.1232 85.3469
L61.1732 85.3469
" />
<path d="M61.1732 85.3469
L61.1732 66.2969
" />
<path d="M42.1232 66.2969
L42.1232 85.3469
" />
<path d="M61.1732 66.2969
L42.1232 66.2969
" />
<path d="M61.1732 52.0094
L80.2232 52.0094
" />
<path d="M80.2232 52.0094
L80.2232 32.9594
" />
<path d="M61.1732 32.9594
L61.1732 52.0094
" />
<path d="M80.2232 32.9594
L61.1732 32.9594
" />
<path d="M23.0732 66.2969
L42.1232 66.2969
" />
<path d="M42.1232 66.2969
L42.1232 47.2469
" />
<path d="M23.0732 47.2469
L23.0732 66.2969
" />
<path d="M42.1232 47.2469
L23.0732 47.2469
" />
<path d="M42.1232 42.4844
L61.1732 42.4844
" />
<path d="M61.1732 42.4844
L61.1732 23.4344
" />
<path d="M42.1232 23.4344
L42.1232 42.4844
" />
<path d="M61.1732 23.4344
L42.1232 23.4344
" />
<path d="M80.2232 56.7719
L99.2732 56.7719
" />
<path d="M99.2732 56.7719
L99.2732 37.7219
" />
<path d="M80.2232 37.7219
L80.2232 56.7719
" />
<path d="M99.2732 37.7219
L80.2232 37.7219
" />
<path d="M23.0732 28.1969
L42.1232 28.1969
" />
<path d="M42.1232 28.1969
L42.1232 4.3844
" />
<path d="M23.0732 4.3844
L23.0732 28.1969
" />
<path d="M42.1232 4.3844
L23.0732 4.3844
" />
<path d="M23.0732 47.2469
L42.1232 47.2469
" />
<path d="M42.1232 47.2469
L42.1232 28.1969
" />
<path d="M23.0732 28.1969
L23.0732 47.2469
" />
<path d="M42.1232 28.1969
L23.0732 28.1969
" />
<path d="M4.0232 66.2969
L23.0732 66.2969
" />
<path d="M23.0732 66.2969
L23.0732 47.2469
" />
<path d="M4.0232 47.2469
L4.0232 66.2969
" />
<path d="M23.0732 47.2469
L4.0232 47.2469
" />
<path d="M80.2232 85.3469
L99.2732 85.3469
" />
<path d="M99.2732 85.3469
L99.2732 56.7719
" />
<path d="M80.2232 56.7719
L80.2232 85.3469
" />
<path d="M99.2732 56.7719
L80.2232 56.7719
" />
<path d="M4.0232 85.3469
L23.0732 85.3469
" />
<path d="M23.0732 85.3469
L23.0732 66.2969
" />
<path d="M4.0232 66.2969
L4.0232 85.3469
" />
<path d="M23.0732 66.2969
L4.0232 66.2969
" />
<path d="M42.1232 23.4344
L61.1732 23.4344
" />
<path d="M61.1732 23.4344
L61.1732 4.3844
" />
<path d="M42.1232 4.3844
L42.1232 23.4344
" />
<path d="M61.1732 4.3844
L42.1232 4.3844
" />
<path d="M23.0732 85.3469
L42.1232 85.3469
" />
<path d="M42.1232 85.3469
L42.1232 66.2969
" />
<path d="M23.0732 66.2969
L23.0732 85.3469
" />
<path d="M42.1232 66.2969
L23.0732 66.2969
" />
<path d="M42.1232 66.2969
L61.1732 66.2969
" />
<path d="M61.1732 66.2969
L61.1732 42.4844
" />
<path d="M42.1232 42.4844
L42.1232 66.2969
" />
<path d="M61.1732 42.4844
L42.1232 42.4844
" />
<path d="M99.2732 4.3844
L80.2232 4.3844
" />
<path d="M80.2232 4.3844
L80.2232 37.7219
" />
<path d="M99.2732 37.7219
L99.2732 4.3844
" />
<path d="M80.2232 37.7219
L99.2732 37.7219
" />
<path d="M4.0232 47.2469
L23.0732 47.2469
" />
<path d="M23.0732 47.2469
L23.0732 28.1969
" />
<path d="M4.0232 28.1969
L4.0232 47.2469
" />
<path d="M23.0732 28.1969
L4.0232 28.1969
" />
<path d="M4.0232 28.1969
L23.0732 28.1969
" />
<path d="M23.0732 28.1969
L23.0732 4.3844
" />
<path d="M4.0232 4.3844
L4.0232 28.1969
" />
<path d="M23.0732 4.3844
L4.0232 4.3844
" />
<path d="M61.1732 32.9594
L80.2232 32.9594
" />
<path d="M80.2232 32.9594
L80.2232 4.3844
" />
<path d="M61.1732 4.3844
L61.1732 32.9594
" />
<path d="M80.2232 4.3844
L61.1732 4.3844
" />
<g >
</g>
<g >
</g>
<g >
</g>
<g >
</g>
<g >
</g>
<g >
</g>
<g >
</g>
<g >
</g>
<g >
</g>
<g >
</g>
<g >
</g>
<g >
</g>
<g >
</g>
<g >
</g>
<g >
</g>
<g >
</g>
<g >
</g>
<g >
</g>
<g >
</g>
<g >
</g>
<g >
</g>
<g >
</g>
<g >
</g>
<g >
</g>
<g >
</g>
<g >
</g>
<g >
</g>
<g >
</g>
<g >
</g>
<g >
</g>
<g >
</g>
<g >
</g>
<g >
</g>
<g >
</g>
<g >
</g>
<g >
</g>
<g >
</g>
<g >
</g>
<g >
</g>
<g >
</g>
<g >
</g>
<g >
</g>
<g >
</g>
<g >
</g>
<g >
</g>
<g >
</g>
<g >
</g>
<g >
</g>
<g >
</g>
<g >
</g>
<g >
</g>
<g >
</g>
<g >
</g>
<g >
</g>
<g >
</g>
<g >
</g>
<g >
</g>
<g >
</g>
<g >
</g>
<g >
</g>
<g >
</g>
<g >
</g>
</g>
<g style="fill:#000000; fill-opacity:0.0; 
stroke:#000000; stroke-width:0.1200; stroke-opacity:1; 
stroke-linecap:round; stroke-linejoin:round;">
</g>
<g style="fill:#D0D2CD; fill-opacity:0.0; 
stroke:#D0D2CD; stroke-width:0.1200; stroke-opacity:1; 
stroke-linecap:round; stroke-linejoin:round;">
</g>
<g style="fill:#D0D2CD; fill-opacity:0.0; 
stroke:#D0D2CD; stroke-width:0.1000; stroke-opacity:1; 
stroke-linecap:round; stroke-linejoin:round;">
<path d="M7.9920 4.3844
L95.3045 4.3844
" />
<path d="M4.0232 81.3781
L4.0232 8.3531
" />
<path d="M7.9920 4.3844 A3.9688 3.9688 0.0 0 0 4.0232 8.3531" />
<path d="M95.3045 85.3469
L7.9920 85.3469
" />
<path d="M95.3045 85.3469 A3.9688 3.9688 0.0 0 0 99.2732 81.3781" />
<path d="M4.0233 81.3781 A3.9688 3.9688 0.0 0 0 7.9920 85.3469" />
<path d="M99.2732 8.3531
L99.2732 81.3781
" />
<path d="M99.2732 8.3531 A3.9688 3.9688 0.0 0 0 95.3045 4.3844" />
<g >
</g>
<g >
</g>
<g >
</g>
<g >
</g>
<g >
</g>
<g >
</g>
<g >
</g>
<g >
</g>
<g >
</g>
<g >
</g>
<g >
</g>
<g >
</g>
<g >
</g>
<g >
</g>
<g >
</g>
<g >
</g>
<g >
</g>
<g >
</g>
<g >
</g>
<g >
</g>
<g >
</g>
<g >
</g>
<g >
</g>
<g >
</g>
<g >
</g>
<g >
</g>
<g >
</g>
<g >
</g>
<g >
</g>
<g >
</g>
<g >
</g>
<g >
</g>
<g >
</g>
<g >
</g>
<g >
</g>
<g >
</g>
<g >
</g>
<g >
</g>
<g >
</g>
<g >
</g>
<g >
</g>
<g >
</g>
<g >
</g>
<g >
</g>
<g >
</g>
<g >
</g>
<g >
</g>
<g >
</g>
<g >
</g>
<g >
</g>
<g >
</g>
<g >
</g>
<g >
</g>
<g >
</g>
<g >
</g>
<g >
</g>
<g >
</g>
<g >
</g>
<g >
</g>
<g >
</g>
<g >
</g>
<g >
</g>
</g> 
</svg>
