<?xml version="1.0" encoding="UTF-8" standalone="no"?>
<!-- Created with Inkscape (http://www.inkscape.org/) -->

<svg
   width="239.0961mm"
   height="110.393mm"
   viewBox="0 0 239.0961 110.393"
   version="1.1"
   id="svg1"
   inkscape:version="1.3 (0e150ed6c4, 2023-07-21)"
   sodipodi:docname="sprucifer_the_case.svg"
   xmlns:inkscape="http://www.inkscape.org/namespaces/inkscape"
   xmlns:sodipodi="http://sodipodi.sourceforge.net/DTD/sodipodi-0.dtd"
   xmlns="http://www.w3.org/2000/svg"
   xmlns:svg="http://www.w3.org/2000/svg">
  <sodipodi:namedview
     id="namedview1"
     pagecolor="#ffffff"
     bordercolor="#000000"
     borderopacity="0.25"
     inkscape:showpageshadow="2"
     inkscape:pageopacity="0.0"
     inkscape:pagecheckerboard="0"
     inkscape:deskcolor="#e8e8e8"
     inkscape:document-units="mm"
     inkscape:zoom="0.37197259"
     inkscape:cx="362.92997"
     inkscape:cy="452.99037"
     inkscape:window-width="2560"
     inkscape:window-height="1377"
     inkscape:window-x="-8"
     inkscape:window-y="-8"
     inkscape:window-maximized="1"
     inkscape:current-layer="layer1"
     showgrid="false" />
  <defs
     id="defs1" />
  <g
     inkscape:label="Layer 1"
     inkscape:groupmode="layer"
     id="layer1"
     transform="translate(-10.753445,-83.16734)">
    <g
       id="g315"
       transform="translate(-531.33956,19.205048)">
      <path
         id="path235"
         style="fill:none;stroke:#000000;stroke-width:0.0999993;paint-order:stroke markers fill"
         d="M 271.57078,27.891343 H 476.9069 c 9.32381,0 16.82999,8.2546 16.82999,18.50807 v 73.276857 c 0,10.25347 -7.50618,18.50807 -16.82999,18.50807 H 271.57078 c -9.32381,0 -16.82999,-8.2546 -16.82999,-18.50807 V 46.399413 c 0,-10.25347 7.50618,-18.50807 16.82999,-18.50807 z" />
      <g
         id="g229"
         transform="translate(-8.80804,-62.632238)">
        <path
           id="path194"
           style="fill:none;stroke:#000000;stroke-width:0.1;stroke-linejoin:round;paint-order:stroke markers fill"
           d="m 314.18499,168.44567 13.79639,1.69398 -1.69399,13.7964 -13.79639,-1.69399 z" />
        <path
           id="path195"
           style="fill:none;stroke:#000000;stroke-width:0.1;stroke-linejoin:round;paint-order:stroke markers fill"
           d="m 319.40909,125.90233 13.79639,1.69399 -1.69399,13.79639 -13.79639,-1.69398 z" />
        <path
           id="path196"
           style="fill:none;stroke:#000000;stroke-width:0.1;stroke-linejoin:round;paint-order:stroke markers fill"
           d="m 316.79723,147.17422 13.79639,1.69398 -1.69399,13.79639 -13.79639,-1.69398 z" />
        <path
           id="path197"
           style="fill:none;stroke:#000000;stroke-width:0.1;stroke-linejoin:round;paint-order:stroke markers fill"
           d="m 296.148,159.03372 13.79639,1.69398 -1.69399,13.79639 -13.79639,-1.69398 z" />
        <path
           id="path198"
           style="fill:none;stroke:#000000;stroke-width:0.1;stroke-linejoin:round;paint-order:stroke markers fill"
           d="m 302.24223,109.40022 13.79639,1.69398 -1.69399,13.79639 -13.79639,-1.69398 z" />
        <path
           id="path199"
           style="fill:none;stroke:#000000;stroke-width:0.1;stroke-linejoin:round;paint-order:stroke markers fill"
           d="m 321.73071,106.99422 13.79639,1.69398 -1.69398,13.7964 -13.79639,-1.69399 z" />
        <path
           id="path200"
           style="fill:none;stroke:#000000;stroke-width:0.1;stroke-linejoin:round;paint-order:stroke markers fill"
           d="m 279.85154,135.44082 13.79639,1.69398 -1.69398,13.79639 -13.79639,-1.69398 z" />
        <path
           id="path201"
           style="fill:none;stroke:#000000;stroke-width:0.1;stroke-linejoin:round;paint-order:stroke markers fill"
           d="m 276.94953,159.07582 13.79639,1.69398 -1.69398,13.79639 -13.7964,-1.69398 z" />
        <path
           id="path202"
           style="fill:none;stroke:#000000;stroke-width:0.1;stroke-linejoin:round;paint-order:stroke markers fill"
           d="m 299.34021,133.03522 13.79639,1.69398 -1.69398,13.79639 -13.79639,-1.69398 z" />
        <path
           id="path203"
           style="fill:none;stroke:#000000;stroke-width:0.1;stroke-linejoin:round;paint-order:stroke markers fill"
           d="m 283.04402,109.44211 13.79639,1.69398 -1.69398,13.79639 -13.79639,-1.69398 z" />
        <path
           id="path204"
           style="fill:none;stroke:#000000;stroke-width:0.1;stroke-linejoin:round;paint-order:stroke markers fill"
           d="m 352.00142,173.08894 13.79639,1.69399 -1.69398,13.79639 -13.79639,-1.69398 z" />
        <path
           id="path205"
           style="fill:none;stroke:#000000;stroke-width:0.1;stroke-linejoin:round;paint-order:stroke markers fill"
           d="m 354.32303,154.18093 13.79639,1.69399 -1.69398,13.79639 -13.79639,-1.69399 z" />
        <path
           id="path206"
           style="fill:none;stroke:#000000;stroke-width:0.1;stroke-linejoin:round;paint-order:stroke markers fill"
           d="m 359.25607,114.001 13.7964,1.69398 -1.69399,13.79639 -13.79639,-1.69398 z" />
        <path
           id="path207"
           style="fill:none;stroke:#000000;stroke-width:0.1;stroke-linejoin:round;paint-order:stroke markers fill"
           d="m 337.73669,132.95095 13.79639,1.69398 -1.69398,13.79639 -13.79639,-1.69399 z" />
        <path
           id="path208"
           style="fill:none;stroke:#000000;stroke-width:0.1;stroke-linejoin:round;paint-order:stroke markers fill"
           d="m 356.64469,135.27256 13.79639,1.69398 -1.69398,13.79639 -13.79639,-1.69399 z" />
        <path
           id="path209"
           style="fill:none;stroke:#000000;stroke-width:0.1;stroke-linejoin:round;paint-order:stroke markers fill"
           d="m 340.3485,111.67944 13.79639,1.69399 -1.69398,13.79639 -13.79639,-1.69399 z" />
        <path
           id="path210"
           style="fill:none;stroke:#000000;stroke-width:0.1;stroke-linejoin:round;paint-order:stroke markers fill"
           d="m 335.41503,151.85932 13.79639,1.69399 -1.69398,13.79639 -13.79639,-1.69399 z" />
        <path
           id="path211"
           style="fill:none;stroke:#000000;stroke-width:0.1;stroke-linejoin:round;paint-order:stroke markers fill"
           d="m 333.09342,170.76733 13.79639,1.69399 -1.69398,13.79639 -13.79639,-1.69398 z" />
        <path
           id="path212"
           style="fill:none;stroke:#000000;stroke-width:0.1;stroke-linejoin:round;paint-order:stroke markers fill"
           d="m 451.90877,168.44567 -13.7964,1.69398 1.69399,13.7964 13.79639,-1.69399 z" />
        <path
           id="path213"
           style="fill:none;stroke:#000000;stroke-width:0.1;stroke-linejoin:round;paint-order:stroke markers fill"
           d="m 446.68467,125.90233 -13.7964,1.69399 1.69399,13.79639 13.79639,-1.69398 z" />
        <path
           id="path214"
           style="fill:none;stroke:#000000;stroke-width:0.1;stroke-linejoin:round;paint-order:stroke markers fill"
           d="m 449.29653,147.17422 -13.7964,1.69398 1.69399,13.79639 13.79639,-1.69398 z" />
        <path
           id="path215"
           style="fill:none;stroke:#000000;stroke-width:0.1;stroke-linejoin:round;paint-order:stroke markers fill"
           d="m 469.94575,159.03372 -13.79639,1.69398 1.69399,13.79639 13.79639,-1.69398 z" />
        <path
           id="path216"
           style="fill:none;stroke:#000000;stroke-width:0.1;stroke-linejoin:round;paint-order:stroke markers fill"
           d="m 463.85153,109.40022 -13.7964,1.69398 1.69399,13.79639 13.79639,-1.69398 z" />
        <path
           id="path217"
           style="fill:none;stroke:#000000;stroke-width:0.1;stroke-linejoin:round;paint-order:stroke markers fill"
           d="m 444.36304,106.99422 -13.79639,1.69398 1.69398,13.7964 13.7964,-1.69399 z" />
        <path
           id="path218"
           style="fill:none;stroke:#000000;stroke-width:0.1;stroke-linejoin:round;paint-order:stroke markers fill"
           d="m 486.24221,135.44082 -13.79639,1.69398 1.69398,13.79639 13.79639,-1.69398 z" />
        <path
           id="path219"
           style="fill:none;stroke:#000000;stroke-width:0.1;stroke-linejoin:round;paint-order:stroke markers fill"
           d="m 489.14422,159.07582 -13.79639,1.69398 1.69398,13.79639 13.7964,-1.69398 z" />
        <path
           id="path220"
           style="fill:none;stroke:#000000;stroke-width:0.1;stroke-linejoin:round;paint-order:stroke markers fill"
           d="m 466.75354,133.03522 -13.79639,1.69398 1.69398,13.79639 13.79639,-1.69398 z" />
        <path
           id="path221"
           style="fill:none;stroke:#000000;stroke-width:0.1;stroke-linejoin:round;paint-order:stroke markers fill"
           d="m 483.04973,109.44211 -13.79639,1.69398 1.69398,13.79639 13.7964,-1.69398 z" />
        <path
           id="path222"
           style="fill:none;stroke:#000000;stroke-width:0.1;stroke-linejoin:round;paint-order:stroke markers fill"
           d="m 414.09233,173.08895 -13.79639,1.69398 1.69399,13.79639 13.79638,-1.69398 z" />
        <path
           id="path223"
           style="fill:none;stroke:#000000;stroke-width:0.1;stroke-linejoin:round;paint-order:stroke markers fill"
           d="m 411.77072,154.18093 -13.79639,1.69399 1.69398,13.79639 13.79639,-1.69399 z" />
        <path
           id="path224"
           style="fill:none;stroke:#000000;stroke-width:0.1;stroke-linejoin:round;paint-order:stroke markers fill"
           d="m 406.83768,114.001 -13.79639,1.69398 1.69398,13.79639 13.79639,-1.69398 z" />
        <path
           id="path225"
           style="fill:none;stroke:#000000;stroke-width:0.1;stroke-linejoin:round;paint-order:stroke markers fill"
           d="m 428.35706,132.95095 -13.79639,1.69398 1.69398,13.79639 13.7964,-1.69399 z" />
        <path
           id="path226"
           style="fill:none;stroke:#000000;stroke-width:0.1;stroke-linejoin:round;paint-order:stroke markers fill"
           d="m 409.44906,135.27256 -13.79639,1.69398 1.69399,13.79639 13.79639,-1.69399 z" />
        <path
           id="path227"
           style="fill:none;stroke:#000000;stroke-width:0.1;stroke-linejoin:round;paint-order:stroke markers fill"
           d="m 425.74525,111.67944 -13.79639,1.69399 1.69398,13.79639 13.79639,-1.69399 z" />
        <path
           id="path228"
           style="fill:none;stroke:#000000;stroke-width:0.1;stroke-linejoin:round;paint-order:stroke markers fill"
           d="m 430.67872,151.85932 -13.79639,1.69399 1.69398,13.79639 13.79639,-1.69399 z" />
        <path
           id="path229"
           style="fill:none;stroke:#000000;stroke-width:0.1;stroke-linejoin:round;paint-order:stroke markers fill"
           d="m 433.00033,170.76733 -13.79639,1.69399 1.69398,13.79639 13.79639,-1.69398 z" />
      </g>
    </g>
    <g
       id="g273"
       transform="translate(-342.72821,273.5896)">
      <path
         id="path272"
         style="fill:none;stroke:#000000;stroke-width:0.0999996;paint-order:stroke markers fill"
         d="M 85.536902,-2.8072176 H 285.71797 c 9.08973,0 16.40747,7.80554 16.40747,17.5012196 v 69.290562 c 0,9.69568 -7.31774,17.501216 -16.40747,17.501216 H 85.536902 c -9.089732,0 -16.407466,-7.805536 -16.407466,-17.501216 V 14.694002 c 0,-9.6956796 7.317734,-17.5012196 16.407466,-17.5012196 z" />
      <path
         id="path273"
         style="fill:none;stroke:#000000;stroke-width:0.0999993;paint-order:stroke markers fill"
         d="m 82.95943,-5.8072176 h 205.33612 c 9.32381,0 16.82999,8.2546 16.82999,18.5080696 v 73.276862 c 0,10.25347 -7.50618,18.508066 -16.82999,18.508066 H 82.95943 c -9.32381,0 -16.82999,-8.254596 -16.82999,-18.508066 V 12.700852 c 0,-10.2534696 7.50618,-18.5080696 16.82999,-18.5080696 z" />
    </g>
    <g
       id="g277"
       transform="translate(-531.33956,-91.187948)">
      <path
         id="path274"
         style="fill:none;stroke:#000000;stroke-width:0.0999993;paint-order:stroke markers fill"
         d="M 271.57078,27.891343 H 476.9069 c 9.32381,0 16.82999,8.2546 16.82999,18.50807 v 73.276857 c 0,10.25347 -7.50618,18.50807 -16.82999,18.50807 H 271.57078 c -9.32381,0 -16.82999,-8.2546 -16.82999,-18.50807 V 46.399413 c 0,-10.25347 7.50618,-18.50807 16.82999,-18.50807 z" />
      <g
         id="g276"
         transform="translate(-10.63907,48.450343)">
        <path
           id="path275"
           style="fill:none;stroke:#000000;stroke-width:0.1;paint-order:stroke markers fill"
           d="m 284.27905,-11.659148 93.36125,11.46333593 c 0.54987,0.0675157 0.93819,0.56454508 0.87068,1.11441564 L 368.80547,79.963478 c -0.0675,0.54987 -0.56454,0.938192 -1.11441,0.870676 L 274.3298,69.370819 c -0.54987,-0.06752 -0.93819,-0.564545 -0.87067,-1.114416 l 9.7055,-79.044874 c 0.0675,-0.549871 0.56455,-0.938192 1.11442,-0.870677 z" />
        <path
           id="path276"
           style="fill:none;stroke:#000000;stroke-width:0.1;paint-order:stroke markers fill"
           d="M 392.11552,-0.19580712 485.47678,-11.659143 c 0.54987,-0.06752 1.0469,0.320806 1.11441,0.870677 l 9.7055,79.044874 c 0.0675,0.54987 -0.3208,1.0469 -0.87067,1.114415 l -93.36125,11.463336 c -0.54987,0.06752 -1.0469,-0.320806 -1.11442,-0.870677 l -9.7055,-79.04487348 c -0.0675,-0.54987056 0.3208,-1.04689993 0.87067,-1.11441564 z" />
      </g>
    </g>
    <g
       id="g314"
       transform="translate(-531.33956,129.59804)">
      <path
         id="path277"
         style="fill:none;stroke:#000000;stroke-width:0.0999993;paint-order:stroke markers fill"
         d="M 271.57078,27.891343 H 476.9069 c 9.32381,0 16.82999,8.2546 16.82999,18.50807 v 73.276857 c 0,10.25347 -7.50618,18.50807 -16.82999,18.50807 H 271.57078 c -9.32381,0 -16.82999,-8.2546 -16.82999,-18.50807 V 46.399413 c 0,-10.25347 7.50618,-18.50807 16.82999,-18.50807 z" />
      <g
         id="g313"
         transform="translate(-8.41971,-168.90825)">
        <path
           id="path278"
           style="fill:none;stroke:#000000;stroke-width:0.1;stroke-linejoin:round;paint-order:stroke markers fill"
           d="m 358.0866,219.2772 15.57735,1.91266 -1.91267,15.57733 -15.57733,-1.91265 z" />
        <path
           id="path279"
           style="fill:none;stroke:#000000;stroke-width:0.1;stroke-linejoin:round;paint-order:stroke markers fill"
           d="m 350.83195,278.36514 15.57735,1.91266 -1.91267,15.57734 -15.57733,-1.91265 z" />
        <path
           id="path280"
           style="fill:none;stroke:#000000;stroke-width:0.1;stroke-linejoin:round;paint-order:stroke markers fill"
           d="m 331.92395,276.04353 15.57735,1.91266 -1.91267,15.57734 -15.57733,-1.91265 z" />
        <path
           id="path281"
           style="fill:none;stroke:#000000;stroke-width:0.1;stroke-linejoin:round;paint-order:stroke markers fill"
           d="m 353.15356,259.45714 15.57735,1.91266 -1.91267,15.57733 -15.57733,-1.91265 z" />
        <path
           id="path282"
           style="fill:none;stroke:#000000;stroke-width:0.1;stroke-linejoin:round;paint-order:stroke markers fill"
           d="m 334.24556,257.13553 15.57735,1.91266 -1.91267,15.57733 -15.57733,-1.91265 z" />
        <path
           id="path283"
           style="fill:none;stroke:#000000;stroke-width:0.1;stroke-linejoin:round;paint-order:stroke markers fill"
           d="m 315.62775,252.45042 15.57735,1.91266 -1.91267,15.57733 -15.57733,-1.91265 z" />
        <path
           id="path284"
           style="fill:none;stroke:#000000;stroke-width:0.1;stroke-linejoin:round;paint-order:stroke markers fill"
           d="m 313.01551,273.72187 15.57735,1.91266 -1.91267,15.57734 -15.57733,-1.91265 z" />
        <path
           id="path285"
           style="fill:none;stroke:#000000;stroke-width:0.1;stroke-linejoin:round;paint-order:stroke markers fill"
           d="m 294.97852,264.30992 15.57735,1.91266 -1.91267,15.57733 -15.57733,-1.91265 z" />
        <path
           id="path286"
           style="fill:none;stroke:#000000;stroke-width:0.1;stroke-linejoin:round;paint-order:stroke markers fill"
           d="m 275.78005,264.35202 15.57735,1.91266 -1.91267,15.57733 -15.57733,-1.91265 z" />
        <path
           id="path287"
           style="fill:none;stroke:#000000;stroke-width:0.1;stroke-linejoin:round;paint-order:stroke markers fill"
           d="m 278.68207,240.71702 15.57735,1.91266 -1.91267,15.57733 -15.57733,-1.91265 z" />
        <path
           id="path288"
           style="fill:none;stroke:#000000;stroke-width:0.1;stroke-linejoin:round;paint-order:stroke markers fill"
           d="m 298.17074,238.31142 15.57735,1.91266 -1.91267,15.57733 -15.57733,-1.91265 z" />
        <path
           id="path289"
           style="fill:none;stroke:#000000;stroke-width:0.1;stroke-linejoin:round;paint-order:stroke markers fill"
           d="m 318.23961,231.17853 15.57735,1.91266 -1.91267,15.57733 -15.57733,-1.91265 z" />
        <path
           id="path290"
           style="fill:none;stroke:#000000;stroke-width:0.1;stroke-linejoin:round;paint-order:stroke markers fill"
           d="m 336.56722,238.22714 15.57735,1.91266 -1.91267,15.57733 -15.57733,-1.91265 z" />
        <path
           id="path291"
           style="fill:none;stroke:#000000;stroke-width:0.1;stroke-linejoin:round;paint-order:stroke markers fill"
           d="m 355.47522,240.54875 15.57735,1.91266 -1.91267,15.57733 -15.57733,-1.91265 z" />
        <path
           id="path292"
           style="fill:none;stroke:#000000;stroke-width:0.1;stroke-linejoin:round;paint-order:stroke markers fill"
           d="m 339.17903,216.95564 15.57735,1.91266 -1.91267,15.57733 -15.57733,-1.91265 z" />
        <path
           id="path293"
           style="fill:none;stroke:#000000;stroke-width:0.1;stroke-linejoin:round;paint-order:stroke markers fill"
           d="m 320.56124,212.27042 15.57735,1.91266 -1.91267,15.57733 -15.57733,-1.91265 z" />
        <path
           id="path294"
           style="fill:none;stroke:#000000;stroke-width:0.1;stroke-linejoin:round;paint-order:stroke markers fill"
           d="m 301.07275,214.67641 15.57735,1.91266 -1.91267,15.57733 -15.57733,-1.91265 z" />
        <path
           id="path295"
           style="fill:none;stroke:#000000;stroke-width:0.1;stroke-linejoin:round;paint-order:stroke markers fill"
           d="m 281.87455,214.7183 15.57735,1.91266 -1.91267,15.57733 -15.57733,-1.91265 z" />
        <path
           id="path296"
           style="fill:none;stroke:#000000;stroke-width:0.1;stroke-linejoin:round;paint-order:stroke markers fill"
           d="m 473.95969,266.26468 15.57735,-1.91266 1.91265,15.57733 -15.57733,1.91266 z" />
        <path
           id="path297"
           style="fill:none;stroke:#000000;stroke-width:0.1;stroke-linejoin:round;paint-order:stroke markers fill"
           d="m 454.76122,266.22258 15.57735,-1.91266 1.91265,15.57733 -15.57733,1.91266 z" />
        <path
           id="path298"
           style="fill:none;stroke:#000000;stroke-width:0.1;stroke-linejoin:round;paint-order:stroke markers fill"
           d="m 436.72423,275.63453 15.57735,-1.91266 1.91265,15.57734 -15.57733,1.91266 z" />
        <path
           id="path299"
           style="fill:none;stroke:#000000;stroke-width:0.1;stroke-linejoin:round;paint-order:stroke markers fill"
           d="m 417.81579,277.95619 15.57735,-1.91266 1.91265,15.57734 -15.57733,1.91266 z" />
        <path
           id="path300"
           style="fill:none;stroke:#000000;stroke-width:0.1;stroke-linejoin:round;paint-order:stroke markers fill"
           d="m 398.90779,280.2778 15.57735,-1.91265 1.91265,15.57733 -15.57733,1.91266 z" />
        <path
           id="path301"
           style="fill:none;stroke:#000000;stroke-width:0.1;stroke-linejoin:round;paint-order:stroke markers fill"
           d="m 434.11199,254.36308 15.57735,-1.91266 1.91265,15.57733 -15.57733,1.91266 z" />
        <path
           id="path302"
           style="fill:none;stroke:#000000;stroke-width:0.1;stroke-linejoin:round;paint-order:stroke markers fill"
           d="m 415.49418,259.04818 15.57735,-1.91265 1.91265,15.57733 -15.57733,1.91266 z" />
        <path
           id="path303"
           style="fill:none;stroke:#000000;stroke-width:0.1;stroke-linejoin:round;paint-order:stroke markers fill"
           d="m 396.58618,261.36979 15.57735,-1.91265 1.91265,15.57733 -15.57733,1.91266 z" />
        <path
           id="path304"
           style="fill:none;stroke:#000000;stroke-width:0.1;stroke-linejoin:round;paint-order:stroke markers fill"
           d="m 394.26453,242.46141 15.57735,-1.91266 1.91265,15.57734 -15.57733,1.91266 z" />
        <path
           id="path305"
           style="fill:none;stroke:#000000;stroke-width:0.1;stroke-linejoin:round;paint-order:stroke markers fill"
           d="m 413.17253,240.1398 15.57735,-1.91266 1.91265,15.57734 -15.57733,1.91266 z" />
        <path
           id="path306"
           style="fill:none;stroke:#000000;stroke-width:0.1;stroke-linejoin:round;paint-order:stroke markers fill"
           d="m 431.50013,233.09119 15.57735,-1.91266 1.91265,15.57733 -15.57733,1.91266 z" />
        <path
           id="path307"
           style="fill:none;stroke:#000000;stroke-width:0.1;stroke-linejoin:round;paint-order:stroke markers fill"
           d="m 451.569,240.22407 15.57735,-1.91265 1.91265,15.57733 -15.57733,1.91266 z" />
        <path
           id="path308"
           style="fill:none;stroke:#000000;stroke-width:0.1;stroke-linejoin:round;paint-order:stroke markers fill"
           d="m 471.05767,242.62967 15.57735,-1.91265 1.91265,15.57733 -15.57733,1.91266 z" />
        <path
           id="path309"
           style="fill:none;stroke:#000000;stroke-width:0.1;stroke-linejoin:round;paint-order:stroke markers fill"
           d="m 467.8652,216.63096 15.57735,-1.91266 1.91265,15.57734 -15.57733,1.91266 z" />
        <path
           id="path310"
           style="fill:none;stroke:#000000;stroke-width:0.1;stroke-linejoin:round;paint-order:stroke markers fill"
           d="m 448.66699,216.58907 15.57735,-1.91266 1.91265,15.57734 -15.57733,1.91266 z" />
        <path
           id="path311"
           style="fill:none;stroke:#000000;stroke-width:0.1;stroke-linejoin:round;paint-order:stroke markers fill"
           d="m 429.17851,214.18307 15.57735,-1.91265 1.91265,15.57733 -15.57733,1.91266 z" />
        <path
           id="path312"
           style="fill:none;stroke:#000000;stroke-width:0.1;stroke-linejoin:round;paint-order:stroke markers fill"
           d="m 410.56071,218.86829 15.57735,-1.91265 1.91265,15.57733 -15.57733,1.91266 z" />
        <path
           id="path313"
           style="fill:none;stroke:#000000;stroke-width:0.1;stroke-linejoin:round;paint-order:stroke markers fill"
           d="m 391.65314,221.18985 15.57735,-1.91265 1.91265,15.57733 -15.57733,1.91266 z" />
      </g>
    </g>
    <text
       xml:space="preserve"
       style="font-size:25.4px;line-height:0.7;font-family:Eurostile;-inkscape-font-specification:Eurostile;letter-spacing:0.119062px;word-spacing:0.0291042px;fill:#1a1a1a;stroke:#000000;stroke-width:0.1;stroke-linecap:round;stroke-linejoin:round;paint-order:stroke markers fill"
       x="-26.945345"
       y="374.93896"
       id="text1"><tspan
         sodipodi:role="line"
         id="tspan1"
         style="fill:#1a1a1a;stroke-width:0.1"
         x="-26.945345"
         y="374.93896">3mm</tspan></text>
    <text
       xml:space="preserve"
       style="font-size:25.4px;line-height:0.7;font-family:Eurostile;-inkscape-font-specification:Eurostile;letter-spacing:0.119062px;word-spacing:0.0291042px;fill:#1a1a1a;stroke:#000000;stroke-width:0.1;stroke-linecap:round;stroke-linejoin:round;paint-order:stroke markers fill"
       x="-26.945345"
       y="267.64597"
       id="text2"><tspan
         sodipodi:role="line"
         id="tspan2"
         style="stroke-width:0.1"
         x="-26.945345"
         y="267.64597">3mm</tspan></text>
    <text
       xml:space="preserve"
       style="font-size:25.4px;line-height:0.7;font-family:Eurostile;-inkscape-font-specification:Eurostile;letter-spacing:0.119062px;word-spacing:0.0291042px;fill:#1a1a1a;stroke:#000000;stroke-width:0.1;stroke-linecap:round;stroke-linejoin:round;paint-order:stroke markers fill"
       x="-27.466244"
       y="157.53806"
       id="text3"><tspan
         sodipodi:role="line"
         id="tspan3"
         style="stroke-width:0.1"
         x="-27.466244"
         y="157.53806">1.5mm</tspan></text>
    <text
       xml:space="preserve"
       style="font-size:25.4px;line-height:0.7;font-family:Eurostile;-inkscape-font-specification:Eurostile;letter-spacing:0.119062px;word-spacing:0.0291042px;fill:#1a1a1a;stroke:#000000;stroke-width:0.1;stroke-linecap:round;stroke-linejoin:round;paint-order:stroke markers fill"
       x="-26.951546"
       y="46.618752"
       id="text4"><tspan
         sodipodi:role="line"
         id="tspan4"
         style="stroke-width:0.1"
         x="-26.951546"
         y="46.618752">7mm</tspan></text>
  </g>
</svg>
