<?xml version="1.0" standalone="no"?>
 <!DOCTYPE svg PUBLIC "-//W3C//DTD SVG 1.1//EN" 
 "http://www.w3.org/Graphics/SVG/1.1/DTD/svg11.dtd"> 
<svg
  xmlns:svg="http://www.w3.org/2000/svg"
  xmlns="http://www.w3.org/2000/svg"
  xmlns:xlink="http://www.w3.org/1999/xlink"
  version="1.1"
  width="99.7204mm" height="85.2424mm" viewBox="0.0000 0.0000 99.7204 85.2424">
<title>SVG Image created as sprucep2_left-brd.svg date 2024/03/08 20:57:45 </title>
  <desc>Image generated by PCBNEW </desc>
<g style="fill:#000000; fill-opacity:1.0000;stroke:#000000; stroke-opacity:1.0000;
stroke-linecap:round; stroke-linejoin:round;"
 transform="translate(0 0) scale(1 1)">
</g>
<g style="fill:#000000; fill-opacity:0.0; 
stroke:#000000; stroke-width:0.0000; stroke-opacity:1; 
stroke-linecap:round; stroke-linejoin:round;">
</g>
<g style="fill:#26E9FF; fill-opacity:0.0; 
stroke:#26E9FF; stroke-width:0.0000; stroke-opacity:1; 
stroke-linecap:round; stroke-linejoin:round;">
</g>
<g style="fill:#26E9FF; fill-opacity:0.0; 
stroke:#26E9FF; stroke-width:0.0500; stroke-opacity:1; 
stroke-linecap:round; stroke-linejoin:round;">
<path d="M74.1194 47.1031
L74.1194 43.9031
" />
<path d="M76.0194 47.1031
L74.1194 47.1031
" />
<path d="M76.0194 47.1031
L76.0194 43.9031
" />
<path d="M76.0194 43.9031
L74.1194 43.9031
" />
<path d="M33.2413 51.8656
L33.2413 48.6656
" />
<path d="M35.1412 51.8656
L33.2413 51.8656
" />
<path d="M35.1412 51.8656
L35.1412 48.6656
" />
<path d="M35.1412 48.6656
L33.2413 48.6656
" />
<path d="M74.9131 28.0531
L74.9131 24.8531
" />
<path d="M76.8131 28.0531
L74.9131 28.0531
" />
<path d="M76.8131 28.0531
L76.8131 24.8531
" />
<path d="M76.8131 24.8531
L74.9131 24.8531
" />
<path d="M10.6219 29.2912
L11.5419 29.2912
" />
<path d="M11.5419 29.2912
L11.5419 27.4712
" />
<path d="M10.6219 27.4712
L10.6219 29.2912
" />
<path d="M11.5419 27.4712
L10.6219 27.4712
" />
<path d="M12.4319 37.7812
L15.5819 37.7812
" />
<path d="M18.7319 37.7812
L15.5819 37.7812
" />
<path d="M11.8319 36.3813
L12.4319 36.3813
" />
<path d="M12.4319 36.3813
L12.4319 37.7812
" />
<path d="M18.7319 36.3813
L18.7319 37.7812
" />
<path d="M19.3319 36.3813
L18.7319 36.3813
" />
<path d="M10.4319 35.7812
L11.8319 35.7812
" />
<path d="M11.8319 35.7812
L11.8319 36.3813
" />
<path d="M19.3319 35.7812
L19.3319 36.3813
" />
<path d="M20.7319 35.7812
L19.3319 35.7812
" />
<path d="M10.4319 32.6313
L10.4319 35.7812
" />
<path d="M10.4319 32.6313
L10.4319 29.4812
" />
<path d="M20.7319 32.6313
L20.7319 35.7812
" />
<path d="M20.7319 32.6313
L20.7319 29.4812
" />
<path d="M10.4319 29.4812
L11.8319 29.4812
" />
<path d="M11.8319 29.4812
L11.8319 28.8812
" />
<path d="M19.3319 29.4812
L19.3319 28.8812
" />
<path d="M20.7319 29.4812
L19.3319 29.4812
" />
<path d="M11.8319 28.8812
L12.4319 28.8812
" />
<path d="M12.4319 28.8812
L12.4319 27.4812
" />
<path d="M18.7319 28.8812
L18.7319 27.4812
" />
<path d="M19.3319 28.8812
L18.7319 28.8812
" />
<path d="M12.4319 27.4812
L15.5819 27.4812
" />
<path d="M18.7319 27.4812
L15.5819 27.4812
" />
<path d="M72.1350 47.1031
L72.1350 43.9031
" />
<path d="M74.0350 47.1031
L72.1350 47.1031
" />
<path d="M74.0350 47.1031
L74.0350 43.9031
" />
<path d="M74.0350 43.9031
L72.1350 43.9031
" />
<path d="M55.8631 71.4531
L55.8631 68.2531
" />
<path d="M57.7631 71.4531
L55.8631 71.4531
" />
<path d="M57.7631 71.4531
L57.7631 68.2531
" />
<path d="M57.7631 68.2531
L55.8631 68.2531
" />
<path d="M37.6069 32.8156
L37.6069 29.6156
" />
<path d="M39.5069 32.8156
L37.6069 32.8156
" />
<path d="M39.5069 32.8156
L39.5069 29.6156
" />
<path d="M39.5069 29.6156
L37.6069 29.6156
" />
<path d="M18.9219 27.6712
L18.9219 28.5912
" />
<path d="M18.9219 28.5912
L20.7419 28.5912
" />
<path d="M20.7419 27.6712
L18.9219 27.6712
" />
<path d="M20.7419 28.5912
L20.7419 27.6712
" />
<path d="M29.3381 50.0094
L23.3381 50.0094
" />
<path d="M23.3381 50.0094
L23.3381 58.5094
" />
<path d="M29.3381 58.5094
L29.3381 50.0094
" />
<path d="M23.3381 58.5094
L29.3381 58.5094
" />
<path d="M14.5600 12.4375
L14.5600 15.8375
" />
<path d="M14.5600 12.4375
L17.7600 12.4375
" />
<path d="M17.7600 15.8375
L14.5600 15.8375
" />
<path d="M17.7600 15.8375
L17.7600 12.4375
" />
<path d="M20.5419 35.9712
L19.6219 35.9712
" />
<path d="M19.6219 35.9712
L19.6219 37.7912
" />
<path d="M20.5419 37.7912
L20.5419 35.9712
" />
<path d="M19.6219 37.7912
L20.5419 37.7912
" />
<path d="M17.3381 58.5094
L23.3381 58.5094
" />
<path d="M23.3381 58.5094
L23.3381 50.0094
" />
<path d="M17.3381 50.0094
L17.3381 58.5094
" />
<path d="M23.3381 50.0094
L17.3381 50.0094
" />
<path d="M57.0538 66.1531
L57.0538 62.9531
" />
<path d="M58.9537 66.1531
L57.0538 66.1531
" />
<path d="M58.9537 66.1531
L58.9537 62.9531
" />
<path d="M58.9537 62.9531
L57.0538 62.9531
" />
<path d="M35.6225 32.8156
L35.6225 29.6156
" />
<path d="M37.5225 32.8156
L35.6225 32.8156
" />
<path d="M37.5225 32.8156
L37.5225 29.6156
" />
<path d="M37.5225 29.6156
L35.6225 29.6156
" />
<path d="M53.0850 66.1531
L53.0850 62.9531
" />
<path d="M54.9850 66.1531
L53.0850 66.1531
" />
<path d="M54.9850 66.1531
L54.9850 62.9531
" />
<path d="M54.9850 62.9531
L53.0850 62.9531
" />
<path d="M59.0381 66.1531
L59.0381 62.9531
" />
<path d="M60.9381 66.1531
L59.0381 66.1531
" />
<path d="M60.9381 66.1531
L60.9381 62.9531
" />
<path d="M60.9381 62.9531
L59.0381 62.9531
" />
<path d="M22.3300 23.3375
L18.4900 23.3375
" />
<path d="M22.3300 19.9375
L22.3300 23.3375
" />
<path d="M18.4900 23.3375
L18.4900 19.9375
" />
<path d="M18.4900 19.9375
L22.3300 19.9375
" />
<path d="M72.9287 28.0531
L72.9287 24.8531
" />
<path d="M74.8287 28.0531
L72.9287 28.0531
" />
<path d="M74.8287 28.0531
L74.8287 24.8531
" />
<path d="M74.8287 24.8531
L72.9287 24.8531
" />
<path d="M18.6719 37.9213
L18.6719 38.8412
" />
<path d="M18.6719 38.8412
L20.4919 38.8412
" />
<path d="M20.4919 37.9213
L18.6719 37.9213
" />
<path d="M20.4919 38.8412
L20.4919 37.9213
" />
<path d="M35.2256 51.8656
L35.2256 48.6656
" />
<path d="M37.1256 51.8656
L35.2256 51.8656
" />
<path d="M37.1256 51.8656
L37.1256 48.6656
" />
<path d="M37.1256 48.6656
L35.2256 48.6656
" />
<path d="M20.0900 15.8575
L20.0900 14.9175
" />
<path d="M20.0900 14.9175
L18.2300 14.9175
" />
<path d="M18.2300 15.8575
L20.0900 15.8575
" />
<path d="M18.2300 14.9175
L18.2300 15.8575
" />
<path d="M19.8200 24.5975
L19.8200 23.6775
" />
<path d="M19.8200 23.6775
L18.0000 23.6775
" />
<path d="M18.0000 24.5975
L19.8200 24.5975
" />
<path d="M18.0000 23.6775
L18.0000 24.5975
" />
<path d="M13.8800 17.2675
L13.8800 19.5075
" />
<path d="M13.8800 19.5075
L18.4400 19.5075
" />
<path d="M18.4400 17.2675
L13.8800 17.2675
" />
<path d="M18.4400 19.5075
L18.4400 17.2675
" />
<path d="M17.2000 21.5475
L18.1200 21.5475
" />
<path d="M18.1200 21.5475
L18.1200 19.7275
" />
<path d="M17.2000 19.7275
L17.2000 21.5475
" />
<path d="M18.1200 19.7275
L17.2000 19.7275
" />
<path d="M31.2569 51.8656
L31.2569 48.6656
" />
<path d="M33.1569 51.8656
L31.2569 51.8656
" />
<path d="M33.1569 51.8656
L33.1569 48.6656
" />
<path d="M33.1569 48.6656
L31.2569 48.6656
" />
<path d="M14.9785 40.8278
L14.9785 39.9078
" />
<path d="M14.9785 39.9078
L13.1585 39.9078
" />
<path d="M13.1585 40.8278
L14.9785 40.8278
" />
<path d="M13.1585 39.9078
L13.1585 40.8278
" />
<path d="M15.2619 43.1013
L15.2619 42.1612
" />
<path d="M15.2619 42.1612
L13.4019 42.1612
" />
<path d="M13.4019 43.1013
L15.2619 43.1013
" />
<path d="M13.4019 42.1612
L13.4019 43.1013
" />
<path d="M13.1585 38.6578
L13.1585 39.5778
" />
<path d="M13.1585 39.5778
L14.9785 39.5778
" />
<path d="M14.9785 38.6578
L13.1585 38.6578
" />
<path d="M14.9785 39.5778
L14.9785 38.6578
" />
<path d="M18.2300 12.4175
L18.2300 13.3575
" />
<path d="M18.2300 13.3575
L20.0900 13.3575
" />
<path d="M20.0900 12.4175
L18.2300 12.4175
" />
<path d="M20.0900 13.3575
L20.0900 12.4175
" />
<path d="M10.8400 1.9875
L21.4800 1.9875
" />
<path d="M10.8400 11.4075
L10.8400 1.9875
" />
<path d="M10.8400 11.4075
L21.4800 11.4075
" />
<path d="M21.4800 11.4075
L21.4800 1.9875
" />
<path d="M57.8475 71.4531
L57.8475 68.2531
" />
<path d="M59.7475 71.4531
L57.8475 71.4531
" />
<path d="M59.7475 71.4531
L59.7475 68.2531
" />
<path d="M59.7475 68.2531
L57.8475 68.2531
" />
<path d="M17.7619 43.1013
L17.7619 42.1612
" />
<path d="M17.7619 42.1612
L15.9019 42.1612
" />
<path d="M15.9019 43.1013
L17.7619 43.1013
" />
<path d="M15.9019 42.1612
L15.9019 43.1013
" />
<path d="M33.6381 32.8156
L33.6381 29.6156
" />
<path d="M35.5381 32.8156
L33.6381 32.8156
" />
<path d="M35.5381 32.8156
L35.5381 29.6156
" />
<path d="M35.5381 29.6156
L33.6381 29.6156
" />
<path d="M55.0694 66.1531
L55.0694 62.9531
" />
<path d="M56.9694 66.1531
L55.0694 66.1531
" />
<path d="M56.9694 66.1531
L56.9694 62.9531
" />
<path d="M56.9694 62.9531
L55.0694 62.9531
" />
<path d="M20.1800 23.6575
L20.1800 25.1175
" />
<path d="M20.1800 25.1175
L23.1400 25.1175
" />
<path d="M23.1400 23.6575
L20.1800 23.6575
" />
<path d="M23.1400 25.1175
L23.1400 23.6575
" />
<path d="M18.7000 18.2975
L19.6200 18.2975
" />
<path d="M19.6200 18.2975
L19.6200 16.4775
" />
<path d="M18.7000 16.4775
L18.7000 18.2975
" />
<path d="M19.6200 16.4775
L18.7000 16.4775
" />
<path d="M51.1006 66.1531
L51.1006 62.9531
" />
<path d="M53.0006 66.1531
L51.1006 66.1531
" />
<path d="M53.0006 66.1531
L53.0006 62.9531
" />
<path d="M53.0006 62.9531
L51.1006 62.9531
" />
<path d="M53.8787 71.4531
L53.8787 68.2531
" />
<path d="M55.7787 71.4531
L53.8787 71.4531
" />
<path d="M55.7787 71.4531
L55.7787 68.2531
" />
<path d="M55.7787 68.2531
L53.8787 68.2531
" />
<g >
</g>
<g >
</g>
<g >
</g>
<g >
</g>
<g >
</g>
<g >
</g>
<g >
</g>
<g >
</g>
<g >
</g>
<g >
</g>
<g >
</g>
<g >
</g>
<g >
</g>
<g >
</g>
<g >
</g>
<g >
</g>
<g >
</g>
<g >
</g>
<g >
</g>
<g >
</g>
<g >
</g>
<g >
</g>
<g >
</g>
<g >
</g>
<g >
</g>
<g >
</g>
<g >
</g>
<g >
</g>
<g >
</g>
<g >
</g>
<g >
</g>
<g >
</g>
<g >
</g>
<g >
</g>
<g >
</g>
<g >
</g>
<g >
</g>
<g >
</g>
<g >
</g>
<g >
</g>
<g >
</g>
<g >
</g>
<g >
</g>
<g >
</g>
<g >
</g>
<g >
</g>
<g >
</g>
<g >
</g>
<g >
</g>
<g >
</g>
<g >
</g>
<g >
</g>
<g >
</g>
<g >
</g>
<g >
</g>
<g >
</g>
<g >
</g>
<g >
</g>
<g >
</g>
<g >
</g>
<g >
</g>
<g >
</g>
<g >
</g>
</g>
<g style="fill:#000000; fill-opacity:0.0; 
stroke:#000000; stroke-width:0.0500; stroke-opacity:1; 
stroke-linecap:round; stroke-linejoin:round;">
</g>
<g style="fill:#E8B2A7; fill-opacity:0.0; 
stroke:#E8B2A7; stroke-width:0.0500; stroke-opacity:1; 
stroke-linecap:round; stroke-linejoin:round;">
</g>
<g style="fill:#E8B2A7; fill-opacity:0.0; 
stroke:#E8B2A7; stroke-width:0.2500; stroke-opacity:1; 
stroke-linecap:round; stroke-linejoin:round;">
<text x="17.5225" y="84.3969"
transform="scale(-1 1) translate(-35.045000 0)"
textLength="9.7357" font-size="2.0000" lengthAdjust="spacingAndGlyphs"
text-anchor="start" opacity="0">left half</text>
<g class="stroked-text"><desc>left half</desc>
<path d="M16.7866 84.2615
L16.9295 84.2139
" />
<path d="M16.9295 84.2139
L17.0009 84.1186
" />
<path d="M17.0009 84.1186
L17.0009 83.2615
" />
<path d="M15.6437 84.2139
L15.7866 84.2615
" />
<path d="M15.7866 84.2615
L16.0723 84.2615
" />
<path d="M16.0723 84.2615
L16.2152 84.2139
" />
<path d="M16.2152 84.2139
L16.2866 84.1186
" />
<path d="M16.2866 84.1186
L16.2866 83.7377
" />
<path d="M16.2866 83.7377
L16.2152 83.6424
" />
<path d="M16.2152 83.6424
L16.0723 83.5948
" />
<path d="M16.0723 83.5948
L15.7866 83.5948
" />
<path d="M15.7866 83.5948
L15.6437 83.6424
" />
<path d="M15.6437 83.6424
L15.5723 83.7377
" />
<path d="M15.5723 83.7377
L15.5723 83.8329
" />
<path d="M15.5723 83.8329
L16.2866 83.9282
" />
<path d="M15.1437 83.5948
L14.5723 83.5948
" />
<path d="M14.9295 84.2615
L14.9295 83.4044
" />
<path d="M14.9295 83.4044
L14.8580 83.3091
" />
<path d="M14.8580 83.3091
L14.7152 83.2615
" />
<path d="M14.7152 83.2615
L14.5723 83.2615
" />
<path d="M14.2866 83.5948
L13.7152 83.5948
" />
<path d="M14.0723 83.2615
L14.0723 84.1186
" />
<path d="M14.0723 84.1186
L14.0009 84.2139
" />
<path d="M14.0009 84.2139
L13.8580 84.2615
" />
<path d="M13.8580 84.2615
L13.7152 84.2615
" />
<path d="M12.0723 84.2615
L12.0723 83.2615
" />
<path d="M11.4295 84.2615
L11.4295 83.7377
" />
<path d="M11.4295 83.7377
L11.5009 83.6424
" />
<path d="M11.5009 83.6424
L11.6437 83.5948
" />
<path d="M11.6437 83.5948
L11.8580 83.5948
" />
<path d="M11.8580 83.5948
L12.0009 83.6424
" />
<path d="M12.0009 83.6424
L12.0723 83.6901
" />
<path d="M10.0723 84.2615
L10.0723 83.7377
" />
<path d="M10.0723 83.7377
L10.1437 83.6424
" />
<path d="M10.1437 83.6424
L10.2866 83.5948
" />
<path d="M10.2866 83.5948
L10.5723 83.5948
" />
<path d="M10.5723 83.5948
L10.7152 83.6424
" />
<path d="M10.0723 84.2139
L10.2152 84.2615
" />
<path d="M10.2152 84.2615
L10.5723 84.2615
" />
<path d="M10.5723 84.2615
L10.7152 84.2139
" />
<path d="M10.7152 84.2139
L10.7866 84.1186
" />
<path d="M10.7866 84.1186
L10.7866 84.0234
" />
<path d="M10.7866 84.0234
L10.7152 83.9282
" />
<path d="M10.7152 83.9282
L10.5723 83.8805
" />
<path d="M10.5723 83.8805
L10.2152 83.8805
" />
<path d="M10.2152 83.8805
L10.0723 83.8329
" />
<path d="M9.1437 84.2615
L9.2866 84.2139
" />
<path d="M9.2866 84.2139
L9.3580 84.1186
" />
<path d="M9.3580 84.1186
L9.3580 83.2615
" />
<path d="M8.7866 83.5948
L8.2152 83.5948
" />
<path d="M8.5723 84.2615
L8.5723 83.4044
" />
<path d="M8.5723 83.4044
L8.5009 83.3091
" />
<path d="M8.5009 83.3091
L8.3580 83.2615
" />
<path d="M8.3580 83.2615
L8.2152 83.2615
" />
</g><text x="17.5225" y="82.8094"
transform="scale(-1 1) translate(-35.045000 0)"
textLength="15.0214" font-size="2.0000" lengthAdjust="spacingAndGlyphs"
text-anchor="start" opacity="0">prototype #2</text>
<g class="stroked-text"><desc>prototype #2</desc>
<path d="M17.0009 82.0073
L17.0009 83.0073
" />
<path d="M17.0009 82.0549
L16.8580 82.0073
" />
<path d="M16.8580 82.0073
L16.5723 82.0073
" />
<path d="M16.5723 82.0073
L16.4295 82.0549
" />
<path d="M16.4295 82.0549
L16.3580 82.1026
" />
<path d="M16.3580 82.1026
L16.2866 82.1978
" />
<path d="M16.2866 82.1978
L16.2866 82.4835
" />
<path d="M16.2866 82.4835
L16.3580 82.5788
" />
<path d="M16.3580 82.5788
L16.4295 82.6264
" />
<path d="M16.4295 82.6264
L16.5723 82.6740
" />
<path d="M16.5723 82.6740
L16.8580 82.6740
" />
<path d="M16.8580 82.6740
L17.0009 82.6264
" />
<path d="M15.6437 82.6740
L15.6437 82.0073
" />
<path d="M15.6437 82.1978
L15.5723 82.1026
" />
<path d="M15.5723 82.1026
L15.5009 82.0549
" />
<path d="M15.5009 82.0549
L15.3580 82.0073
" />
<path d="M15.3580 82.0073
L15.2152 82.0073
" />
<path d="M14.5009 82.6740
L14.6437 82.6264
" />
<path d="M14.6437 82.6264
L14.7152 82.5788
" />
<path d="M14.7152 82.5788
L14.7866 82.4835
" />
<path d="M14.7866 82.4835
L14.7866 82.1978
" />
<path d="M14.7866 82.1978
L14.7152 82.1026
" />
<path d="M14.7152 82.1026
L14.6437 82.0549
" />
<path d="M14.6437 82.0549
L14.5009 82.0073
" />
<path d="M14.5009 82.0073
L14.2866 82.0073
" />
<path d="M14.2866 82.0073
L14.1437 82.0549
" />
<path d="M14.1437 82.0549
L14.0723 82.1026
" />
<path d="M14.0723 82.1026
L14.0009 82.1978
" />
<path d="M14.0009 82.1978
L14.0009 82.4835
" />
<path d="M14.0009 82.4835
L14.0723 82.5788
" />
<path d="M14.0723 82.5788
L14.1437 82.6264
" />
<path d="M14.1437 82.6264
L14.2866 82.6740
" />
<path d="M14.2866 82.6740
L14.5009 82.6740
" />
<path d="M13.5723 82.0073
L13.0009 82.0073
" />
<path d="M13.3580 81.6740
L13.3580 82.5311
" />
<path d="M13.3580 82.5311
L13.2866 82.6264
" />
<path d="M13.2866 82.6264
L13.1437 82.6740
" />
<path d="M13.1437 82.6740
L13.0009 82.6740
" />
<path d="M12.2866 82.6740
L12.4295 82.6264
" />
<path d="M12.4295 82.6264
L12.5009 82.5788
" />
<path d="M12.5009 82.5788
L12.5723 82.4835
" />
<path d="M12.5723 82.4835
L12.5723 82.1978
" />
<path d="M12.5723 82.1978
L12.5009 82.1026
" />
<path d="M12.5009 82.1026
L12.4295 82.0549
" />
<path d="M12.4295 82.0549
L12.2866 82.0073
" />
<path d="M12.2866 82.0073
L12.0723 82.0073
" />
<path d="M12.0723 82.0073
L11.9295 82.0549
" />
<path d="M11.9295 82.0549
L11.8580 82.1026
" />
<path d="M11.8580 82.1026
L11.7866 82.1978
" />
<path d="M11.7866 82.1978
L11.7866 82.4835
" />
<path d="M11.7866 82.4835
L11.8580 82.5788
" />
<path d="M11.8580 82.5788
L11.9295 82.6264
" />
<path d="M11.9295 82.6264
L12.0723 82.6740
" />
<path d="M12.0723 82.6740
L12.2866 82.6740
" />
<path d="M11.3580 82.0073
L10.7866 82.0073
" />
<path d="M11.1437 81.6740
L11.1437 82.5311
" />
<path d="M11.1437 82.5311
L11.0723 82.6264
" />
<path d="M11.0723 82.6264
L10.9295 82.6740
" />
<path d="M10.9295 82.6740
L10.7866 82.6740
" />
<path d="M10.4295 82.0073
L10.0723 82.6740
" />
<path d="M9.7152 82.0073
L10.0723 82.6740
" />
<path d="M10.0723 82.6740
L10.2152 82.9121
" />
<path d="M10.2152 82.9121
L10.2866 82.9597
" />
<path d="M10.2866 82.9597
L10.4295 83.0073
" />
<path d="M9.1437 82.0073
L9.1437 83.0073
" />
<path d="M9.1437 82.0549
L9.0009 82.0073
" />
<path d="M9.0009 82.0073
L8.7152 82.0073
" />
<path d="M8.7152 82.0073
L8.5723 82.0549
" />
<path d="M8.5723 82.0549
L8.5009 82.1026
" />
<path d="M8.5009 82.1026
L8.4295 82.1978
" />
<path d="M8.4295 82.1978
L8.4295 82.4835
" />
<path d="M8.4295 82.4835
L8.5009 82.5788
" />
<path d="M8.5009 82.5788
L8.5723 82.6264
" />
<path d="M8.5723 82.6264
L8.7152 82.6740
" />
<path d="M8.7152 82.6740
L9.0009 82.6740
" />
<path d="M9.0009 82.6740
L9.1437 82.6264
" />
<path d="M7.2152 82.6264
L7.3580 82.6740
" />
<path d="M7.3580 82.6740
L7.6437 82.6740
" />
<path d="M7.6437 82.6740
L7.7866 82.6264
" />
<path d="M7.7866 82.6264
L7.8580 82.5311
" />
<path d="M7.8580 82.5311
L7.8580 82.1502
" />
<path d="M7.8580 82.1502
L7.7866 82.0549
" />
<path d="M7.7866 82.0549
L7.6437 82.0073
" />
<path d="M7.6437 82.0073
L7.3580 82.0073
" />
<path d="M7.3580 82.0073
L7.2152 82.0549
" />
<path d="M7.2152 82.0549
L7.1437 82.1502
" />
<path d="M7.1437 82.1502
L7.1437 82.2454
" />
<path d="M7.1437 82.2454
L7.8580 82.3407
" />
<path d="M5.4295 82.0073
L4.3580 82.0073
" />
<path d="M5.0009 81.5788
L5.4295 82.8645
" />
<path d="M4.5009 82.4359
L5.5723 82.4359
" />
<path d="M4.9295 82.8645
L4.5009 81.5788
" />
<path d="M3.9295 81.7692
L3.8580 81.7216
" />
<path d="M3.8580 81.7216
L3.7152 81.6740
" />
<path d="M3.7152 81.6740
L3.3580 81.6740
" />
<path d="M3.3580 81.6740
L3.2152 81.7216
" />
<path d="M3.2152 81.7216
L3.1437 81.7692
" />
<path d="M3.1437 81.7692
L3.0723 81.8645
" />
<path d="M3.0723 81.8645
L3.0723 81.9597
" />
<path d="M3.0723 81.9597
L3.1437 82.1026
" />
<path d="M3.1437 82.1026
L4.0009 82.6740
" />
<path d="M4.0009 82.6740
L3.0723 82.6740
" />
</g></g>
<g style="fill:#E8B2A7; fill-opacity:0.0; 
stroke:#E8B2A7; stroke-width:0.1500; stroke-opacity:1; 
stroke-linecap:round; stroke-linejoin:round;">
<g transform="rotate(-90.000000 9.8319 28.3812)">
<text x="9.8319" y="28.8812"
transform="scale(-1 1) translate(-19.663750 0)"
textLength="2.2024" font-size="1.3333" lengthAdjust="spacingAndGlyphs"
text-anchor="middle" opacity="0">C4</text>
</g>
<g class="stroked-text"><desc>C4</desc>
<path d="M10.1915 28.2146
L10.2391 28.1670
" />
<path d="M10.2391 28.1670
L10.2867 28.0241
" />
<path d="M10.2867 28.0241
L10.2867 27.9289
" />
<path d="M10.2867 27.9289
L10.2391 27.7860
" />
<path d="M10.2391 27.7860
L10.1438 27.6908
" />
<path d="M10.1438 27.6908
L10.0486 27.6432
" />
<path d="M10.0486 27.6432
L9.8581 27.5955
" />
<path d="M9.8581 27.5955
L9.7153 27.5955
" />
<path d="M9.7153 27.5955
L9.5248 27.6432
" />
<path d="M9.5248 27.6432
L9.4296 27.6908
" />
<path d="M9.4296 27.6908
L9.3343 27.7860
" />
<path d="M9.3343 27.7860
L9.2867 27.9289
" />
<path d="M9.2867 27.9289
L9.2867 28.0241
" />
<path d="M9.2867 28.0241
L9.3343 28.1670
" />
<path d="M9.3343 28.1670
L9.3819 28.2146
" />
<path d="M9.6200 29.0717
L10.2867 29.0717
" />
<path d="M9.2391 28.8336
L9.9534 28.5955
" />
<path d="M9.9534 28.5955
L9.9534 29.2146
" />
</g><g transform="rotate(-90.000000 21.4319 32.6313)">
<text x="21.4319" y="33.1313"
transform="scale(-1 1) translate(-42.863750 0)"
textLength="2.2500" font-size="1.3333" lengthAdjust="spacingAndGlyphs"
text-anchor="middle" opacity="0">U1</text>
</g>
<g class="stroked-text"><desc>U1</desc>
<path d="M20.8867 31.8693
L21.6962 31.8693
" />
<path d="M21.6962 31.8693
L21.7915 31.9170
" />
<path d="M21.7915 31.9170
L21.8391 31.9646
" />
<path d="M21.8391 31.9646
L21.8867 32.0598
" />
<path d="M21.8867 32.0598
L21.8867 32.2503
" />
<path d="M21.8867 32.2503
L21.8391 32.3455
" />
<path d="M21.8391 32.3455
L21.7915 32.3932
" />
<path d="M21.7915 32.3932
L21.6962 32.4408
" />
<path d="M21.6962 32.4408
L20.8867 32.4408
" />
<path d="M21.8867 33.4408
L21.8867 32.8693
" />
<path d="M21.8867 33.1551
L20.8867 33.1551
" />
<path d="M20.8867 33.1551
L21.0296 33.0598
" />
<path d="M21.0296 33.0598
L21.1248 32.9646
" />
<path d="M21.1248 32.9646
L21.1724 32.8693
" />
</g><text x="19.5819" y="27.3812"
transform="scale(-1 1) translate(-39.163750 0)"
textLength="2.2024" font-size="1.3333" lengthAdjust="spacingAndGlyphs"
text-anchor="middle" opacity="0">C3</text>
<g class="stroked-text"><desc>C3</desc>
<path d="M19.7485 27.2408
L19.7962 27.2884
" />
<path d="M19.7962 27.2884
L19.9390 27.3361
" />
<path d="M19.9390 27.3361
L20.0343 27.3361
" />
<path d="M20.0343 27.3361
L20.1771 27.2884
" />
<path d="M20.1771 27.2884
L20.2723 27.1932
" />
<path d="M20.2723 27.1932
L20.3200 27.0980
" />
<path d="M20.3200 27.0980
L20.3676 26.9075
" />
<path d="M20.3676 26.9075
L20.3676 26.7646
" />
<path d="M20.3676 26.7646
L20.3200 26.5742
" />
<path d="M20.3200 26.5742
L20.2723 26.4789
" />
<path d="M20.2723 26.4789
L20.1771 26.3837
" />
<path d="M20.1771 26.3837
L20.0343 26.3361
" />
<path d="M20.0343 26.3361
L19.9390 26.3361
" />
<path d="M19.9390 26.3361
L19.7962 26.3837
" />
<path d="M19.7962 26.3837
L19.7485 26.4313
" />
<path d="M19.4152 26.3361
L18.7962 26.3361
" />
<path d="M18.7962 26.3361
L19.1295 26.7170
" />
<path d="M19.1295 26.7170
L18.9866 26.7170
" />
<path d="M18.9866 26.7170
L18.8914 26.7646
" />
<path d="M18.8914 26.7646
L18.8438 26.8123
" />
<path d="M18.8438 26.8123
L18.7962 26.9075
" />
<path d="M18.7962 26.9075
L18.7962 27.1456
" />
<path d="M18.7962 27.1456
L18.8438 27.2408
" />
<path d="M18.8438 27.2408
L18.8914 27.2884
" />
<path d="M18.8914 27.2884
L18.9866 27.3361
" />
<path d="M18.9866 27.3361
L19.2723 27.3361
" />
<path d="M19.2723 27.3361
L19.3676 27.2884
" />
<path d="M19.3676 27.2884
L19.4152 27.2408
" />
</g><text x="26.3381" y="59.7594"
transform="scale(-1 1) translate(-52.676250 0)"
textLength="3.8690" font-size="1.3333" lengthAdjust="spacingAndGlyphs"
text-anchor="middle" opacity="0">boop</text>
<g class="stroked-text"><desc>boop</desc>
<path d="M27.9096 59.7142
L27.9096 58.7142
" />
<path d="M27.9096 59.0951
L27.8143 59.0475
" />
<path d="M27.8143 59.0475
L27.6238 59.0475
" />
<path d="M27.6238 59.0475
L27.5286 59.0951
" />
<path d="M27.5286 59.0951
L27.4810 59.1428
" />
<path d="M27.4810 59.1428
L27.4334 59.2380
" />
<path d="M27.4334 59.2380
L27.4334 59.5237
" />
<path d="M27.4334 59.5237
L27.4810 59.6190
" />
<path d="M27.4810 59.6190
L27.5286 59.6666
" />
<path d="M27.5286 59.6666
L27.6238 59.7142
" />
<path d="M27.6238 59.7142
L27.8143 59.7142
" />
<path d="M27.8143 59.7142
L27.9096 59.6666
" />
<path d="M26.8619 59.7142
L26.9572 59.6666
" />
<path d="M26.9572 59.6666
L27.0048 59.6190
" />
<path d="M27.0048 59.6190
L27.0524 59.5237
" />
<path d="M27.0524 59.5237
L27.0524 59.2380
" />
<path d="M27.0524 59.2380
L27.0048 59.1428
" />
<path d="M27.0048 59.1428
L26.9572 59.0951
" />
<path d="M26.9572 59.0951
L26.8619 59.0475
" />
<path d="M26.8619 59.0475
L26.7191 59.0475
" />
<path d="M26.7191 59.0475
L26.6238 59.0951
" />
<path d="M26.6238 59.0951
L26.5762 59.1428
" />
<path d="M26.5762 59.1428
L26.5286 59.2380
" />
<path d="M26.5286 59.2380
L26.5286 59.5237
" />
<path d="M26.5286 59.5237
L26.5762 59.6190
" />
<path d="M26.5762 59.6190
L26.6238 59.6666
" />
<path d="M26.6238 59.6666
L26.7191 59.7142
" />
<path d="M26.7191 59.7142
L26.8619 59.7142
" />
<path d="M25.9572 59.7142
L26.0524 59.6666
" />
<path d="M26.0524 59.6666
L26.1000 59.6190
" />
<path d="M26.1000 59.6190
L26.1476 59.5237
" />
<path d="M26.1476 59.5237
L26.1476 59.2380
" />
<path d="M26.1476 59.2380
L26.1000 59.1428
" />
<path d="M26.1000 59.1428
L26.0524 59.0951
" />
<path d="M26.0524 59.0951
L25.9572 59.0475
" />
<path d="M25.9572 59.0475
L25.8143 59.0475
" />
<path d="M25.8143 59.0475
L25.7191 59.0951
" />
<path d="M25.7191 59.0951
L25.6715 59.1428
" />
<path d="M25.6715 59.1428
L25.6238 59.2380
" />
<path d="M25.6238 59.2380
L25.6238 59.5237
" />
<path d="M25.6238 59.5237
L25.6715 59.6190
" />
<path d="M25.6715 59.6190
L25.7191 59.6666
" />
<path d="M25.7191 59.6666
L25.8143 59.7142
" />
<path d="M25.8143 59.7142
L25.9572 59.7142
" />
<path d="M25.1953 59.0475
L25.1953 60.0475
" />
<path d="M25.1953 59.0951
L25.1000 59.0475
" />
<path d="M25.1000 59.0475
L24.9096 59.0475
" />
<path d="M24.9096 59.0475
L24.8143 59.0951
" />
<path d="M24.8143 59.0951
L24.7667 59.1428
" />
<path d="M24.7667 59.1428
L24.7191 59.2380
" />
<path d="M24.7191 59.2380
L24.7191 59.5237
" />
<path d="M24.7191 59.5237
L24.7667 59.6190
" />
<path d="M24.7667 59.6190
L24.8143 59.6666
" />
<path d="M24.8143 59.6666
L24.9096 59.7142
" />
<path d="M24.9096 59.7142
L25.1000 59.7142
" />
<path d="M25.1000 59.7142
L25.1953 59.6666
" />
</g><text x="16.1800" y="17.0175"
transform="scale(-1 1) translate(-32.360000 0)"
textLength="2.2500" font-size="1.3333" lengthAdjust="spacingAndGlyphs"
text-anchor="middle" opacity="0">U2</text>
<g class="stroked-text"><desc>U2</desc>
<path d="M16.9419 15.9723
L16.9419 16.7818
" />
<path d="M16.9419 16.7818
L16.8943 16.8771
" />
<path d="M16.8943 16.8771
L16.8467 16.9247
" />
<path d="M16.8467 16.9247
L16.7514 16.9723
" />
<path d="M16.7514 16.9723
L16.5610 16.9723
" />
<path d="M16.5610 16.9723
L16.4657 16.9247
" />
<path d="M16.4657 16.9247
L16.4181 16.8771
" />
<path d="M16.4181 16.8771
L16.3705 16.7818
" />
<path d="M16.3705 16.7818
L16.3705 15.9723
" />
<path d="M15.9419 16.0676
L15.8943 16.0199
" />
<path d="M15.8943 16.0199
L15.7990 15.9723
" />
<path d="M15.7990 15.9723
L15.5610 15.9723
" />
<path d="M15.5610 15.9723
L15.4657 16.0199
" />
<path d="M15.4657 16.0199
L15.4181 16.0676
" />
<path d="M15.4181 16.0676
L15.3705 16.1628
" />
<path d="M15.3705 16.1628
L15.3705 16.2580
" />
<path d="M15.3705 16.2580
L15.4181 16.4009
" />
<path d="M15.4181 16.4009
L15.9895 16.9723
" />
<path d="M15.9895 16.9723
L15.3705 16.9723
" />
</g><g transform="rotate(-90.000000 21.3319 36.8813)">
<text x="21.3319" y="37.3813"
transform="scale(-1 1) translate(-42.663750 0)"
textLength="2.2024" font-size="1.3333" lengthAdjust="spacingAndGlyphs"
text-anchor="middle" opacity="0">C5</text>
</g>
<g class="stroked-text"><desc>C5</desc>
<path d="M21.6915 36.7146
L21.7391 36.6670
" />
<path d="M21.7391 36.6670
L21.7867 36.5241
" />
<path d="M21.7867 36.5241
L21.7867 36.4289
" />
<path d="M21.7867 36.4289
L21.7391 36.2860
" />
<path d="M21.7391 36.2860
L21.6438 36.1908
" />
<path d="M21.6438 36.1908
L21.5486 36.1432
" />
<path d="M21.5486 36.1432
L21.3581 36.0955
" />
<path d="M21.3581 36.0955
L21.2153 36.0955
" />
<path d="M21.2153 36.0955
L21.0248 36.1432
" />
<path d="M21.0248 36.1432
L20.9296 36.1908
" />
<path d="M20.9296 36.1908
L20.8343 36.2860
" />
<path d="M20.8343 36.2860
L20.7867 36.4289
" />
<path d="M20.7867 36.4289
L20.7867 36.5241
" />
<path d="M20.7867 36.5241
L20.8343 36.6670
" />
<path d="M20.8343 36.6670
L20.8819 36.7146
" />
<path d="M20.7867 37.6193
L20.7867 37.1432
" />
<path d="M20.7867 37.1432
L21.2629 37.0955
" />
<path d="M21.2629 37.0955
L21.2153 37.1432
" />
<path d="M21.2153 37.1432
L21.1676 37.2384
" />
<path d="M21.1676 37.2384
L21.1676 37.4765
" />
<path d="M21.1676 37.4765
L21.2153 37.5717
" />
<path d="M21.2153 37.5717
L21.2629 37.6193
" />
<path d="M21.2629 37.6193
L21.3581 37.6670
" />
<path d="M21.3581 37.6670
L21.5962 37.6670
" />
<path d="M21.5962 37.6670
L21.6915 37.6193
" />
<path d="M21.6915 37.6193
L21.7391 37.5717
" />
<path d="M21.7391 37.5717
L21.7867 37.4765
" />
<path d="M21.7867 37.4765
L21.7867 37.2384
" />
<path d="M21.7867 37.2384
L21.7391 37.1432
" />
<path d="M21.7391 37.1432
L21.6915 37.0955
" />
</g><text x="20.3381" y="59.7594"
transform="scale(-1 1) translate(-40.676250 0)"
textLength="5.8690" font-size="1.3333" lengthAdjust="spacingAndGlyphs"
text-anchor="middle" opacity="0">rebruce</text>
<g class="stroked-text"><desc>rebruce</desc>
<path d="M22.9096 59.7142
L22.9096 59.0475
" />
<path d="M22.9096 59.2380
L22.8619 59.1428
" />
<path d="M22.8619 59.1428
L22.8143 59.0951
" />
<path d="M22.8143 59.0951
L22.7191 59.0475
" />
<path d="M22.7191 59.0475
L22.6238 59.0475
" />
<path d="M21.9096 59.6666
L22.0048 59.7142
" />
<path d="M22.0048 59.7142
L22.1953 59.7142
" />
<path d="M22.1953 59.7142
L22.2905 59.6666
" />
<path d="M22.2905 59.6666
L22.3381 59.5713
" />
<path d="M22.3381 59.5713
L22.3381 59.1904
" />
<path d="M22.3381 59.1904
L22.2905 59.0951
" />
<path d="M22.2905 59.0951
L22.1953 59.0475
" />
<path d="M22.1953 59.0475
L22.0048 59.0475
" />
<path d="M22.0048 59.0475
L21.9096 59.0951
" />
<path d="M21.9096 59.0951
L21.8619 59.1904
" />
<path d="M21.8619 59.1904
L21.8619 59.2856
" />
<path d="M21.8619 59.2856
L22.3381 59.3809
" />
<path d="M21.4334 59.7142
L21.4334 58.7142
" />
<path d="M21.4334 59.0951
L21.3381 59.0475
" />
<path d="M21.3381 59.0475
L21.1476 59.0475
" />
<path d="M21.1476 59.0475
L21.0524 59.0951
" />
<path d="M21.0524 59.0951
L21.0048 59.1428
" />
<path d="M21.0048 59.1428
L20.9572 59.2380
" />
<path d="M20.9572 59.2380
L20.9572 59.5237
" />
<path d="M20.9572 59.5237
L21.0048 59.6190
" />
<path d="M21.0048 59.6190
L21.0524 59.6666
" />
<path d="M21.0524 59.6666
L21.1476 59.7142
" />
<path d="M21.1476 59.7142
L21.3381 59.7142
" />
<path d="M21.3381 59.7142
L21.4334 59.6666
" />
<path d="M20.5286 59.7142
L20.5286 59.0475
" />
<path d="M20.5286 59.2380
L20.4810 59.1428
" />
<path d="M20.4810 59.1428
L20.4334 59.0951
" />
<path d="M20.4334 59.0951
L20.3381 59.0475
" />
<path d="M20.3381 59.0475
L20.2429 59.0475
" />
<path d="M19.4810 59.0475
L19.4810 59.7142
" />
<path d="M19.9096 59.0475
L19.9096 59.5713
" />
<path d="M19.9096 59.5713
L19.8619 59.6666
" />
<path d="M19.8619 59.6666
L19.7667 59.7142
" />
<path d="M19.7667 59.7142
L19.6238 59.7142
" />
<path d="M19.6238 59.7142
L19.5286 59.6666
" />
<path d="M19.5286 59.6666
L19.4810 59.6190
" />
<path d="M18.5762 59.6666
L18.6715 59.7142
" />
<path d="M18.6715 59.7142
L18.8619 59.7142
" />
<path d="M18.8619 59.7142
L18.9572 59.6666
" />
<path d="M18.9572 59.6666
L19.0048 59.6190
" />
<path d="M19.0048 59.6190
L19.0524 59.5237
" />
<path d="M19.0524 59.5237
L19.0524 59.2380
" />
<path d="M19.0524 59.2380
L19.0048 59.1428
" />
<path d="M19.0048 59.1428
L18.9572 59.0951
" />
<path d="M18.9572 59.0951
L18.8619 59.0475
" />
<path d="M18.8619 59.0475
L18.6715 59.0475
" />
<path d="M18.6715 59.0475
L18.5762 59.0951
" />
<path d="M17.7667 59.6666
L17.8619 59.7142
" />
<path d="M17.8619 59.7142
L18.0524 59.7142
" />
<path d="M18.0524 59.7142
L18.1476 59.6666
" />
<path d="M18.1476 59.6666
L18.1953 59.5713
" />
<path d="M18.1953 59.5713
L18.1953 59.1904
" />
<path d="M18.1953 59.1904
L18.1476 59.0951
" />
<path d="M18.1476 59.0951
L18.0524 59.0475
" />
<path d="M18.0524 59.0475
L17.8619 59.0475
" />
<path d="M17.8619 59.0475
L17.7667 59.0951
" />
<path d="M17.7667 59.0951
L17.7191 59.1904
" />
<path d="M17.7191 59.1904
L17.7191 59.2856
" />
<path d="M17.7191 59.2856
L18.1953 59.3809
" />
</g><text x="21.1600" y="19.6375"
transform="scale(-1 1) translate(-42.320000 0)"
textLength="2.2500" font-size="1.3333" lengthAdjust="spacingAndGlyphs"
text-anchor="middle" opacity="0">U3</text>
<g class="stroked-text"><desc>U3</desc>
<path d="M21.9219 18.5923
L21.9219 19.4018
" />
<path d="M21.9219 19.4018
L21.8743 19.4971
" />
<path d="M21.8743 19.4971
L21.8267 19.5447
" />
<path d="M21.8267 19.5447
L21.7314 19.5923
" />
<path d="M21.7314 19.5923
L21.5410 19.5923
" />
<path d="M21.5410 19.5923
L21.4457 19.5447
" />
<path d="M21.4457 19.5447
L21.3981 19.4971
" />
<path d="M21.3981 19.4971
L21.3505 19.4018
" />
<path d="M21.3505 19.4018
L21.3505 18.5923
" />
<path d="M20.9695 18.5923
L20.3505 18.5923
" />
<path d="M20.3505 18.5923
L20.6838 18.9733
" />
<path d="M20.6838 18.9733
L20.5410 18.9733
" />
<path d="M20.5410 18.9733
L20.4457 19.0209
" />
<path d="M20.4457 19.0209
L20.3981 19.0685
" />
<path d="M20.3981 19.0685
L20.3505 19.1637
" />
<path d="M20.3505 19.1637
L20.3505 19.4018
" />
<path d="M20.3505 19.4018
L20.3981 19.4971
" />
<path d="M20.3981 19.4971
L20.4457 19.5447
" />
<path d="M20.4457 19.5447
L20.5410 19.5923
" />
<path d="M20.5410 19.5923
L20.8267 19.5923
" />
<path d="M20.8267 19.5923
L20.9219 19.5447
" />
<path d="M20.9219 19.5447
L20.9695 19.4971
" />
</g><text x="18.5819" y="40.0412"
transform="scale(-1 1) translate(-37.163750 0)"
textLength="2.2024" font-size="1.3333" lengthAdjust="spacingAndGlyphs"
text-anchor="middle" opacity="0">C6</text>
<g class="stroked-text"><desc>C6</desc>
<path d="M18.7485 39.9008
L18.7962 39.9485
" />
<path d="M18.7962 39.9485
L18.9390 39.9961
" />
<path d="M18.9390 39.9961
L19.0343 39.9961
" />
<path d="M19.0343 39.9961
L19.1771 39.9485
" />
<path d="M19.1771 39.9485
L19.2723 39.8532
" />
<path d="M19.2723 39.8532
L19.3200 39.7580
" />
<path d="M19.3200 39.7580
L19.3676 39.5675
" />
<path d="M19.3676 39.5675
L19.3676 39.4246
" />
<path d="M19.3676 39.4246
L19.3200 39.2342
" />
<path d="M19.3200 39.2342
L19.2723 39.1389
" />
<path d="M19.2723 39.1389
L19.1771 39.0437
" />
<path d="M19.1771 39.0437
L19.0343 38.9961
" />
<path d="M19.0343 38.9961
L18.9390 38.9961
" />
<path d="M18.9390 38.9961
L18.7962 39.0437
" />
<path d="M18.7962 39.0437
L18.7485 39.0913
" />
<path d="M17.8914 38.9961
L18.0819 38.9961
" />
<path d="M18.0819 38.9961
L18.1771 39.0437
" />
<path d="M18.1771 39.0437
L18.2247 39.0913
" />
<path d="M18.2247 39.0913
L18.3200 39.2342
" />
<path d="M18.3200 39.2342
L18.3676 39.4246
" />
<path d="M18.3676 39.4246
L18.3676 39.8056
" />
<path d="M18.3676 39.8056
L18.3200 39.9008
" />
<path d="M18.3200 39.9008
L18.2723 39.9485
" />
<path d="M18.2723 39.9485
L18.1771 39.9961
" />
<path d="M18.1771 39.9961
L17.9866 39.9961
" />
<path d="M17.9866 39.9961
L17.8914 39.9485
" />
<path d="M17.8914 39.9485
L17.8438 39.9008
" />
<path d="M17.8438 39.9008
L17.7962 39.8056
" />
<path d="M17.7962 39.8056
L17.7962 39.5675
" />
<path d="M17.7962 39.5675
L17.8438 39.4723
" />
<path d="M17.8438 39.4723
L17.8914 39.4246
" />
<path d="M17.8914 39.4246
L17.9866 39.3770
" />
<path d="M17.9866 39.3770
L18.1771 39.3770
" />
<path d="M18.1771 39.3770
L18.2723 39.4246
" />
<path d="M18.2723 39.4246
L18.3200 39.4723
" />
<path d="M18.3200 39.4723
L18.3676 39.5675
" />
</g><text x="21.1600" y="15.8875"
transform="scale(-1 1) translate(-42.320000 0)"
textLength="2.2024" font-size="1.3333" lengthAdjust="spacingAndGlyphs"
text-anchor="middle" opacity="0">R1</text>
<g class="stroked-text"><desc>R1</desc>
<path d="M21.3267 15.8423
L21.6600 15.3661
" />
<path d="M21.8981 15.8423
L21.8981 14.8423
" />
<path d="M21.8981 14.8423
L21.5171 14.8423
" />
<path d="M21.5171 14.8423
L21.4219 14.8899
" />
<path d="M21.4219 14.8899
L21.3743 14.9376
" />
<path d="M21.3743 14.9376
L21.3267 15.0328
" />
<path d="M21.3267 15.0328
L21.3267 15.1757
" />
<path d="M21.3267 15.1757
L21.3743 15.2709
" />
<path d="M21.3743 15.2709
L21.4219 15.3185
" />
<path d="M21.4219 15.3185
L21.5171 15.3661
" />
<path d="M21.5171 15.3661
L21.8981 15.3661
" />
<path d="M20.3743 15.8423
L20.9457 15.8423
" />
<path d="M20.6600 15.8423
L20.6600 14.8423
" />
<path d="M20.6600 14.8423
L20.7552 14.9852
" />
<path d="M20.7552 14.9852
L20.8505 15.0804
" />
<path d="M20.8505 15.0804
L20.9457 15.1280
" />
</g><text x="16.4100" y="24.8875"
transform="scale(-1 1) translate(-32.820000 0)"
textLength="3.1548" font-size="1.3333" lengthAdjust="spacingAndGlyphs"
text-anchor="middle" opacity="0">C10</text>
<g class="stroked-text"><desc>C10</desc>
<path d="M17.0529 24.7471
L17.1005 24.7947
" />
<path d="M17.1005 24.7947
L17.2433 24.8423
" />
<path d="M17.2433 24.8423
L17.3386 24.8423
" />
<path d="M17.3386 24.8423
L17.4814 24.7947
" />
<path d="M17.4814 24.7947
L17.5767 24.6995
" />
<path d="M17.5767 24.6995
L17.6243 24.6042
" />
<path d="M17.6243 24.6042
L17.6719 24.4137
" />
<path d="M17.6719 24.4137
L17.6719 24.2709
" />
<path d="M17.6719 24.2709
L17.6243 24.0804
" />
<path d="M17.6243 24.0804
L17.5767 23.9852
" />
<path d="M17.5767 23.9852
L17.4814 23.8899
" />
<path d="M17.4814 23.8899
L17.3386 23.8423
" />
<path d="M17.3386 23.8423
L17.2433 23.8423
" />
<path d="M17.2433 23.8423
L17.1005 23.8899
" />
<path d="M17.1005 23.8899
L17.0529 23.9376
" />
<path d="M16.1005 24.8423
L16.6719 24.8423
" />
<path d="M16.3862 24.8423
L16.3862 23.8423
" />
<path d="M16.3862 23.8423
L16.4814 23.9852
" />
<path d="M16.4814 23.9852
L16.5767 24.0804
" />
<path d="M16.5767 24.0804
L16.6719 24.1280
" />
<path d="M15.4814 23.8423
L15.3862 23.8423
" />
<path d="M15.3862 23.8423
L15.2910 23.8899
" />
<path d="M15.2910 23.8899
L15.2433 23.9376
" />
<path d="M15.2433 23.9376
L15.1957 24.0328
" />
<path d="M15.1957 24.0328
L15.1481 24.2233
" />
<path d="M15.1481 24.2233
L15.1481 24.4614
" />
<path d="M15.1481 24.4614
L15.1957 24.6518
" />
<path d="M15.1957 24.6518
L15.2433 24.7471
" />
<path d="M15.2433 24.7471
L15.2910 24.7947
" />
<path d="M15.2910 24.7947
L15.3862 24.8423
" />
<path d="M15.3862 24.8423
L15.4814 24.8423
" />
<path d="M15.4814 24.8423
L15.5767 24.7947
" />
<path d="M15.5767 24.7947
L15.6243 24.7471
" />
<path d="M15.6243 24.7471
L15.6719 24.6518
" />
<path d="M15.6719 24.6518
L15.7195 24.4614
" />
<path d="M15.7195 24.4614
L15.7195 24.2233
" />
<path d="M15.7195 24.2233
L15.6719 24.0328
" />
<path d="M15.6719 24.0328
L15.6243 23.9376
" />
<path d="M15.6243 23.9376
L15.5767 23.8899
" />
<path d="M15.5767 23.8899
L15.4814 23.8423
" />
</g><text x="16.1600" y="20.7075"
transform="scale(-1 1) translate(-32.320000 0)"
textLength="2.0595" font-size="1.3333" lengthAdjust="spacingAndGlyphs"
text-anchor="middle" opacity="0">F1</text>
<g class="stroked-text"><desc>F1</desc>
<path d="M16.4933 20.1385
L16.8267 20.1385
" />
<path d="M16.8267 20.6623
L16.8267 19.6623
" />
<path d="M16.8267 19.6623
L16.3505 19.6623
" />
<path d="M15.4457 20.6623
L16.0171 20.6623
" />
<path d="M15.7314 20.6623
L15.7314 19.6623
" />
<path d="M15.7314 19.6623
L15.8267 19.8052
" />
<path d="M15.8267 19.8052
L15.9219 19.9004
" />
<path d="M15.9219 19.9004
L16.0171 19.9480
" />
</g><g transform="rotate(-90.000000 17.6600 22.6375)">
<text x="17.6600" y="23.1375"
transform="scale(-1 1) translate(-35.320000 0)"
textLength="2.2024" font-size="1.3333" lengthAdjust="spacingAndGlyphs"
text-anchor="middle" opacity="0">C9</text>
</g>
<g class="stroked-text"><desc>C9</desc>
<path d="M18.0196 22.4708
L18.0672 22.4232
" />
<path d="M18.0672 22.4232
L18.1148 22.2804
" />
<path d="M18.1148 22.2804
L18.1148 22.1851
" />
<path d="M18.1148 22.1851
L18.0672 22.0423
" />
<path d="M18.0672 22.0423
L17.9720 21.9470
" />
<path d="M17.9720 21.9470
L17.8767 21.8994
" />
<path d="M17.8767 21.8994
L17.6862 21.8518
" />
<path d="M17.6862 21.8518
L17.5434 21.8518
" />
<path d="M17.5434 21.8518
L17.3529 21.8994
" />
<path d="M17.3529 21.8994
L17.2577 21.9470
" />
<path d="M17.2577 21.9470
L17.1624 22.0423
" />
<path d="M17.1624 22.0423
L17.1148 22.1851
" />
<path d="M17.1148 22.1851
L17.1148 22.2804
" />
<path d="M17.1148 22.2804
L17.1624 22.4232
" />
<path d="M17.1624 22.4232
L17.2101 22.4708
" />
<path d="M18.1148 22.9470
L18.1148 23.1375
" />
<path d="M18.1148 23.1375
L18.0672 23.2327
" />
<path d="M18.0672 23.2327
L18.0196 23.2804
" />
<path d="M18.0196 23.2804
L17.8767 23.3756
" />
<path d="M17.8767 23.3756
L17.6862 23.4232
" />
<path d="M17.6862 23.4232
L17.3053 23.4232
" />
<path d="M17.3053 23.4232
L17.2101 23.3756
" />
<path d="M17.2101 23.3756
L17.1624 23.3280
" />
<path d="M17.1624 23.3280
L17.1148 23.2327
" />
<path d="M17.1148 23.2327
L17.1148 23.0423
" />
<path d="M17.1148 23.0423
L17.1624 22.9470
" />
<path d="M17.1624 22.9470
L17.2101 22.8994
" />
<path d="M17.2101 22.8994
L17.3053 22.8518
" />
<path d="M17.3053 22.8518
L17.5434 22.8518
" />
<path d="M17.5434 22.8518
L17.6386 22.8994
" />
<path d="M17.6386 22.8994
L17.6862 22.9470
" />
<path d="M17.6862 22.9470
L17.7339 23.0423
" />
<path d="M17.7339 23.0423
L17.7339 23.2327
" />
<path d="M17.7339 23.2327
L17.6862 23.3280
" />
<path d="M17.6862 23.3280
L17.6386 23.3756
" />
<path d="M17.6386 23.3756
L17.5434 23.4232
" />
</g><text x="16.0819" y="40.6313"
transform="scale(-1 1) translate(-32.163750 0)"
textLength="2.2024" font-size="1.3333" lengthAdjust="spacingAndGlyphs"
text-anchor="middle" opacity="0">C1</text>
<g class="stroked-text"><desc>C1</desc>
<path d="M16.2485 40.4908
L16.2962 40.5384
" />
<path d="M16.2962 40.5384
L16.4390 40.5861
" />
<path d="M16.4390 40.5861
L16.5343 40.5861
" />
<path d="M16.5343 40.5861
L16.6771 40.5384
" />
<path d="M16.6771 40.5384
L16.7723 40.4432
" />
<path d="M16.7723 40.4432
L16.8200 40.3480
" />
<path d="M16.8200 40.3480
L16.8676 40.1575
" />
<path d="M16.8676 40.1575
L16.8676 40.0146
" />
<path d="M16.8676 40.0146
L16.8200 39.8242
" />
<path d="M16.8200 39.8242
L16.7723 39.7289
" />
<path d="M16.7723 39.7289
L16.6771 39.6337
" />
<path d="M16.6771 39.6337
L16.5343 39.5861
" />
<path d="M16.5343 39.5861
L16.4390 39.5861
" />
<path d="M16.4390 39.5861
L16.2962 39.6337
" />
<path d="M16.2962 39.6337
L16.2485 39.6813
" />
<path d="M15.2962 40.5861
L15.8676 40.5861
" />
<path d="M15.5819 40.5861
L15.5819 39.5861
" />
<path d="M15.5819 39.5861
L15.6771 39.7289
" />
<path d="M15.6771 39.7289
L15.7723 39.8242
" />
<path d="M15.7723 39.8242
L15.8676 39.8718
" />
</g><text x="14.3319" y="41.9612"
transform="scale(-1 1) translate(-28.663750 0)"
textLength="2.2024" font-size="1.3333" lengthAdjust="spacingAndGlyphs"
text-anchor="middle" opacity="0">R4</text>
<g class="stroked-text"><desc>R4</desc>
<path d="M14.4985 41.9161
L14.8319 41.4399
" />
<path d="M15.0700 41.9161
L15.0700 40.9161
" />
<path d="M15.0700 40.9161
L14.6890 40.9161
" />
<path d="M14.6890 40.9161
L14.5938 40.9637
" />
<path d="M14.5938 40.9637
L14.5462 41.0113
" />
<path d="M14.5462 41.0113
L14.4985 41.1065
" />
<path d="M14.4985 41.1065
L14.4985 41.2494
" />
<path d="M14.4985 41.2494
L14.5462 41.3446
" />
<path d="M14.5462 41.3446
L14.5938 41.3923
" />
<path d="M14.5938 41.3923
L14.6890 41.4399
" />
<path d="M14.6890 41.4399
L15.0700 41.4399
" />
<path d="M13.6414 41.2494
L13.6414 41.9161
" />
<path d="M13.8795 40.8684
L14.1176 41.5827
" />
<path d="M14.1176 41.5827
L13.4985 41.5827
" />
</g><text x="16.0819" y="39.1313"
transform="scale(-1 1) translate(-32.163750 0)"
textLength="2.2024" font-size="1.3333" lengthAdjust="spacingAndGlyphs"
text-anchor="middle" opacity="0">C7</text>
<g class="stroked-text"><desc>C7</desc>
<path d="M16.2485 38.9908
L16.2962 39.0384
" />
<path d="M16.2962 39.0384
L16.4390 39.0861
" />
<path d="M16.4390 39.0861
L16.5343 39.0861
" />
<path d="M16.5343 39.0861
L16.6771 39.0384
" />
<path d="M16.6771 39.0384
L16.7723 38.9432
" />
<path d="M16.7723 38.9432
L16.8200 38.8480
" />
<path d="M16.8200 38.8480
L16.8676 38.6575
" />
<path d="M16.8676 38.6575
L16.8676 38.5146
" />
<path d="M16.8676 38.5146
L16.8200 38.3242
" />
<path d="M16.8200 38.3242
L16.7723 38.2289
" />
<path d="M16.7723 38.2289
L16.6771 38.1337
" />
<path d="M16.6771 38.1337
L16.5343 38.0861
" />
<path d="M16.5343 38.0861
L16.4390 38.0861
" />
<path d="M16.4390 38.0861
L16.2962 38.1337
" />
<path d="M16.2962 38.1337
L16.2485 38.1813
" />
<path d="M15.9152 38.0861
L15.2485 38.0861
" />
<path d="M15.2485 38.0861
L15.6771 39.0861
" />
</g><text x="21.1600" y="13.3875"
transform="scale(-1 1) translate(-42.320000 0)"
textLength="2.2024" font-size="1.3333" lengthAdjust="spacingAndGlyphs"
text-anchor="middle" opacity="0">R2</text>
<g class="stroked-text"><desc>R2</desc>
<path d="M21.3267 13.3423
L21.6600 12.8661
" />
<path d="M21.8981 13.3423
L21.8981 12.3423
" />
<path d="M21.8981 12.3423
L21.5171 12.3423
" />
<path d="M21.5171 12.3423
L21.4219 12.3899
" />
<path d="M21.4219 12.3899
L21.3743 12.4376
" />
<path d="M21.3743 12.4376
L21.3267 12.5328
" />
<path d="M21.3267 12.5328
L21.3267 12.6757
" />
<path d="M21.3267 12.6757
L21.3743 12.7709
" />
<path d="M21.3743 12.7709
L21.4219 12.8185
" />
<path d="M21.4219 12.8185
L21.5171 12.8661
" />
<path d="M21.5171 12.8661
L21.8981 12.8661
" />
<path d="M20.9457 12.4376
L20.8981 12.3899
" />
<path d="M20.8981 12.3899
L20.8029 12.3423
" />
<path d="M20.8029 12.3423
L20.5648 12.3423
" />
<path d="M20.5648 12.3423
L20.4695 12.3899
" />
<path d="M20.4695 12.3899
L20.4219 12.4376
" />
<path d="M20.4219 12.4376
L20.3743 12.5328
" />
<path d="M20.3743 12.5328
L20.3743 12.6280
" />
<path d="M20.3743 12.6280
L20.4219 12.7709
" />
<path d="M20.4219 12.7709
L20.9933 13.3423
" />
<path d="M20.9933 13.3423
L20.3743 13.3423
" />
</g><text x="16.1600" y="12.2825"
transform="scale(-1 1) translate(-32.320000 0)"
textLength="1.9643" font-size="1.3333" lengthAdjust="spacingAndGlyphs"
text-anchor="middle" opacity="0">J1</text>
<g class="stroked-text"><desc>J1</desc>
<path d="M16.4933 11.2373
L16.4933 11.9516
" />
<path d="M16.4933 11.9516
L16.5410 12.0945
" />
<path d="M16.5410 12.0945
L16.6362 12.1897
" />
<path d="M16.6362 12.1897
L16.7790 12.2373
" />
<path d="M16.7790 12.2373
L16.8743 12.2373
" />
<path d="M15.4933 12.2373
L16.0648 12.2373
" />
<path d="M15.7790 12.2373
L15.7790 11.2373
" />
<path d="M15.7790 11.2373
L15.8743 11.3802
" />
<path d="M15.8743 11.3802
L15.9695 11.4754
" />
<path d="M15.9695 11.4754
L16.0648 11.5230
" />
</g><text x="16.8319" y="41.9612"
transform="scale(-1 1) translate(-33.663750 0)"
textLength="2.2024" font-size="1.3333" lengthAdjust="spacingAndGlyphs"
text-anchor="middle" opacity="0">R3</text>
<g class="stroked-text"><desc>R3</desc>
<path d="M16.9985 41.9161
L17.3319 41.4399
" />
<path d="M17.5700 41.9161
L17.5700 40.9161
" />
<path d="M17.5700 40.9161
L17.1890 40.9161
" />
<path d="M17.1890 40.9161
L17.0938 40.9637
" />
<path d="M17.0938 40.9637
L17.0462 41.0113
" />
<path d="M17.0462 41.0113
L16.9985 41.1065
" />
<path d="M16.9985 41.1065
L16.9985 41.2494
" />
<path d="M16.9985 41.2494
L17.0462 41.3446
" />
<path d="M17.0462 41.3446
L17.0938 41.3923
" />
<path d="M17.0938 41.3923
L17.1890 41.4399
" />
<path d="M17.1890 41.4399
L17.5700 41.4399
" />
<path d="M16.6652 40.9161
L16.0462 40.9161
" />
<path d="M16.0462 40.9161
L16.3795 41.2970
" />
<path d="M16.3795 41.2970
L16.2366 41.2970
" />
<path d="M16.2366 41.2970
L16.1414 41.3446
" />
<path d="M16.1414 41.3446
L16.0938 41.3923
" />
<path d="M16.0938 41.3923
L16.0462 41.4875
" />
<path d="M16.0462 41.4875
L16.0462 41.7256
" />
<path d="M16.0462 41.7256
L16.0938 41.8208
" />
<path d="M16.0938 41.8208
L16.1414 41.8684
" />
<path d="M16.1414 41.8684
L16.2366 41.9161
" />
<path d="M16.2366 41.9161
L16.5223 41.9161
" />
<path d="M16.5223 41.9161
L16.6176 41.8684
" />
<path d="M16.6176 41.8684
L16.6652 41.8208
" />
</g><text x="22.1600" y="26.3875"
transform="scale(-1 1) translate(-44.320000 0)"
textLength="2.2024" font-size="1.3333" lengthAdjust="spacingAndGlyphs"
text-anchor="middle" opacity="0">C2</text>
<g class="stroked-text"><desc>C2</desc>
<path d="M22.3267 26.2471
L22.3743 26.2947
" />
<path d="M22.3743 26.2947
L22.5171 26.3423
" />
<path d="M22.5171 26.3423
L22.6124 26.3423
" />
<path d="M22.6124 26.3423
L22.7552 26.2947
" />
<path d="M22.7552 26.2947
L22.8505 26.1995
" />
<path d="M22.8505 26.1995
L22.8981 26.1042
" />
<path d="M22.8981 26.1042
L22.9457 25.9137
" />
<path d="M22.9457 25.9137
L22.9457 25.7709
" />
<path d="M22.9457 25.7709
L22.8981 25.5804
" />
<path d="M22.8981 25.5804
L22.8505 25.4852
" />
<path d="M22.8505 25.4852
L22.7552 25.3899
" />
<path d="M22.7552 25.3899
L22.6124 25.3423
" />
<path d="M22.6124 25.3423
L22.5171 25.3423
" />
<path d="M22.5171 25.3423
L22.3743 25.3899
" />
<path d="M22.3743 25.3899
L22.3267 25.4376
" />
<path d="M21.9457 25.4376
L21.8981 25.3899
" />
<path d="M21.8981 25.3899
L21.8029 25.3423
" />
<path d="M21.8029 25.3423
L21.5648 25.3423
" />
<path d="M21.5648 25.3423
L21.4695 25.3899
" />
<path d="M21.4695 25.3899
L21.4219 25.4376
" />
<path d="M21.4219 25.4376
L21.3743 25.5328
" />
<path d="M21.3743 25.5328
L21.3743 25.6280
" />
<path d="M21.3743 25.6280
L21.4219 25.7709
" />
<path d="M21.4219 25.7709
L21.9933 26.3423
" />
<path d="M21.9933 26.3423
L21.3743 26.3423
" />
</g><g transform="rotate(-90.000000 20.4100 17.3875)">
<text x="20.4100" y="17.8875"
transform="scale(-1 1) translate(-40.820000 0)"
textLength="2.2024" font-size="1.3333" lengthAdjust="spacingAndGlyphs"
text-anchor="middle" opacity="0">C8</text>
</g>
<g class="stroked-text"><desc>C8</desc>
<path d="M20.7696 17.2208
L20.8172 17.1732
" />
<path d="M20.8172 17.1732
L20.8648 17.0304
" />
<path d="M20.8648 17.0304
L20.8648 16.9351
" />
<path d="M20.8648 16.9351
L20.8172 16.7923
" />
<path d="M20.8172 16.7923
L20.7220 16.6970
" />
<path d="M20.7220 16.6970
L20.6267 16.6494
" />
<path d="M20.6267 16.6494
L20.4362 16.6018
" />
<path d="M20.4362 16.6018
L20.2934 16.6018
" />
<path d="M20.2934 16.6018
L20.1029 16.6494
" />
<path d="M20.1029 16.6494
L20.0077 16.6970
" />
<path d="M20.0077 16.6970
L19.9124 16.7923
" />
<path d="M19.9124 16.7923
L19.8648 16.9351
" />
<path d="M19.8648 16.9351
L19.8648 17.0304
" />
<path d="M19.8648 17.0304
L19.9124 17.1732
" />
<path d="M19.9124 17.1732
L19.9601 17.2208
" />
<path d="M20.2934 17.7923
L20.2458 17.6970
" />
<path d="M20.2458 17.6970
L20.1982 17.6494
" />
<path d="M20.1982 17.6494
L20.1029 17.6018
" />
<path d="M20.1029 17.6018
L20.0553 17.6018
" />
<path d="M20.0553 17.6018
L19.9601 17.6494
" />
<path d="M19.9601 17.6494
L19.9124 17.6970
" />
<path d="M19.9124 17.6970
L19.8648 17.7923
" />
<path d="M19.8648 17.7923
L19.8648 17.9827
" />
<path d="M19.8648 17.9827
L19.9124 18.0780
" />
<path d="M19.9124 18.0780
L19.9601 18.1256
" />
<path d="M19.9601 18.1256
L20.0553 18.1732
" />
<path d="M20.0553 18.1732
L20.1029 18.1732
" />
<path d="M20.1029 18.1732
L20.1982 18.1256
" />
<path d="M20.1982 18.1256
L20.2458 18.0780
" />
<path d="M20.2458 18.0780
L20.2934 17.9827
" />
<path d="M20.2934 17.9827
L20.2934 17.7923
" />
<path d="M20.2934 17.7923
L20.3410 17.6970
" />
<path d="M20.3410 17.6970
L20.3886 17.6494
" />
<path d="M20.3886 17.6494
L20.4839 17.6018
" />
<path d="M20.4839 17.6018
L20.6743 17.6018
" />
<path d="M20.6743 17.6018
L20.7696 17.6494
" />
<path d="M20.7696 17.6494
L20.8172 17.6970
" />
<path d="M20.8172 17.6970
L20.8648 17.7923
" />
<path d="M20.8648 17.7923
L20.8648 17.9827
" />
<path d="M20.8648 17.9827
L20.8172 18.0780
" />
<path d="M20.8172 18.0780
L20.7696 18.1256
" />
<path d="M20.7696 18.1256
L20.6743 18.1732
" />
<path d="M20.6743 18.1732
L20.4839 18.1732
" />
<path d="M20.4839 18.1732
L20.3886 18.1256
" />
<path d="M20.3886 18.1256
L20.3410 18.0780
" />
<path d="M20.3410 18.0780
L20.2934 17.9827
" />
</g></g>
<g style="fill:#E8B2A7; fill-opacity:0.0; 
stroke:#E8B2A7; stroke-width:0.1200; stroke-opacity:1; 
stroke-linecap:round; stroke-linejoin:round;">
<path d="M74.2194 47.1131
L74.2194 44.4531
" />
<path d="M75.9194 47.1131
L74.2194 47.1131
" />
<path d="M75.9194 47.1131
L75.9194 44.4531
" />
<path d="M33.3412 51.8756
L33.3412 49.2156
" />
<path d="M35.0412 51.8756
L33.3412 51.8756
" />
<path d="M35.0412 51.8756
L35.0412 49.2156
" />
<path d="M75.0131 28.0631
L75.0131 25.4031
" />
<path d="M76.7131 28.0631
L75.0131 28.0631
" />
<path d="M76.7131 28.0631
L76.7131 25.4031
" />
<path d="M10.7219 28.4891
L10.7219 28.2734
" />
<path d="M11.4419 28.4891
L11.4419 28.2734
" />
<path d="M11.9719 36.2413
L12.4219 36.2413
" />
<path d="M18.7419 36.2413
L18.7419 37.5312
" />
<path d="M19.1919 36.2413
L18.7419 36.2413
" />
<path d="M11.9719 35.7912
L11.9719 36.2413
" />
<path d="M19.1919 35.7912
L19.1919 36.2413
" />
<path d="M11.9719 29.4712
L11.9719 29.0212
" />
<path d="M19.1919 29.4712
L19.1919 29.0212
" />
<path d="M11.9719 29.0212
L12.4219 29.0212
" />
<path d="M19.1919 29.0212
L18.7419 29.0212
" />
<path d="M72.2350 47.1131
L72.2350 44.4531
" />
<path d="M73.9350 47.1131
L72.2350 47.1131
" />
<path d="M73.9350 47.1131
L73.9350 44.4531
" />
<path d="M55.9631 71.4631
L55.9631 68.8031
" />
<path d="M57.6631 71.4631
L55.9631 71.4631
" />
<path d="M57.6631 71.4631
L57.6631 68.8031
" />
<path d="M37.7069 32.8256
L37.7069 30.1656
" />
<path d="M39.4069 32.8256
L37.7069 32.8256
" />
<path d="M39.4069 32.8256
L39.4069 30.1656
" />
<path d="M19.7240 27.7712
L19.9397 27.7712
" />
<path d="M19.7240 28.4912
L19.9397 28.4912
" />
<path d="M25.3381 51.5094
L27.3381 51.5094
" />
<path d="M28.6381 52.5594
L29.0881 53.0094
" />
<path d="M24.0381 52.5594
L23.5881 53.0094
" />
<path d="M29.0881 53.0094
L29.0881 55.5094
" />
<path d="M23.5881 53.0094
L23.5881 55.5094
" />
<path d="M28.6381 55.9594
L29.0881 55.5094
" />
<path d="M24.0381 55.9594
L23.5881 55.5094
" />
<path d="M25.3381 57.0094
L27.3381 57.0094
" />
<path d="M15.5100 12.5775
L16.8100 12.5775
" />
<path d="M16.8100 15.6975
L14.8100 15.6975
" />
<path d="M20.4419 36.7734
L20.4419 36.9891
" />
<path d="M19.7219 36.7734
L19.7219 36.9891
" />
</g>
<g style="fill:#E8B2A7; fill-opacity:0.0; 
stroke:#E8B2A7; stroke-width:0.1500; stroke-opacity:1; 
stroke-linecap:round; stroke-linejoin:round;">
<path d="M95.3100 29.9812
L83.2100 29.9812
" />
<path d="M95.3100 29.7312
L97.3100 29.7312
" />
<path d="M95.3100 24.1312
L97.3100 24.1312
" />
<path d="M97.3100 24.1312
L97.3100 29.7312
" />
<path d="M83.2100 23.8812
L83.2100 29.9812
" />
<path d="M95.3100 23.8812
L95.3100 29.9812
" />
<path d="M95.3100 23.8812
L83.2100 23.8812
" />
</g>
<g style="fill:#E8B2A7; fill-opacity:0.0; 
stroke:#E8B2A7; stroke-width:0.1200; stroke-opacity:1; 
stroke-linecap:round; stroke-linejoin:round;">
<path d="M21.3381 57.0094
L19.3381 57.0094
" />
<path d="M18.0381 55.9594
L17.5881 55.5094
" />
<path d="M22.6381 55.9594
L23.0881 55.5094
" />
<path d="M17.5881 55.5094
L17.5881 53.0094
" />
<path d="M23.0881 55.5094
L23.0881 53.0094
" />
<path d="M18.0381 52.5594
L17.5881 53.0094
" />
<path d="M22.6381 52.5594
L23.0881 53.0094
" />
<path d="M21.3381 51.5094
L19.3381 51.5094
" />
<path d="M57.1537 66.1631
L57.1537 63.5031
" />
<path d="M58.8537 66.1631
L57.1537 66.1631
" />
<path d="M58.8537 66.1631
L58.8537 63.5031
" />
<path d="M35.7225 32.8256
L35.7225 30.1656
" />
<path d="M37.4225 32.8256
L35.7225 32.8256
" />
<path d="M37.4225 32.8256
L37.4225 30.1656
" />
<path d="M53.1850 66.1631
L53.1850 63.5031
" />
<path d="M54.8850 66.1631
L53.1850 66.1631
" />
<path d="M54.8850 66.1631
L54.8850 63.5031
" />
<path d="M59.1381 66.1631
L59.1381 63.5031
" />
<path d="M60.8381 66.1631
L59.1381 66.1631
" />
<path d="M60.8381 66.1631
L60.8381 63.5031
" />
<path d="M20.4100 23.1975
L21.0600 23.1975
" />
<path d="M20.4100 23.1975
L19.7600 23.1975
" />
<path d="M20.4100 20.0775
L22.0850 20.0775
" />
<path d="M20.4100 20.0775
L19.7600 20.0775
" />
<path d="M73.0288 28.0631
L73.0288 25.4031
" />
<path d="M74.7287 28.0631
L73.0288 28.0631
" />
<path d="M74.7287 28.0631
L74.7287 25.4031
" />
<path d="M19.4740 38.0212
L19.6897 38.0212
" />
<path d="M19.4740 38.7413
L19.6897 38.7413
" />
<path d="M35.3256 51.8756
L35.3256 49.2156
" />
<path d="M37.0256 51.8756
L35.3256 51.8756
" />
<path d="M37.0256 51.8756
L37.0256 49.2156
" />
<path d="M19.3136 15.7675
L19.0064 15.7675
" />
<path d="M19.3136 15.0075
L19.0064 15.0075
" />
<path d="M19.0178 24.4975
L18.8022 24.4975
" />
<path d="M19.0178 23.7775
L18.8022 23.7775
" />
<path d="M15.5579 17.4775
L16.7621 17.4775
" />
<path d="M15.5579 19.2975
L16.7621 19.2975
" />
<path d="M17.3000 20.7453
L17.3000 20.5297
" />
<path d="M18.0200 20.7453
L18.0200 20.5297
" />
<path d="M31.3569 51.8756
L31.3569 49.2156
" />
<path d="M33.0569 51.8756
L31.3569 51.8756
" />
<path d="M33.0569 51.8756
L33.0569 49.2156
" />
<path d="M14.1763 40.7278
L13.9606 40.7278
" />
<path d="M14.1763 40.0078
L13.9606 40.0078
" />
<path d="M14.4855 43.0112
L14.1782 43.0112
" />
<path d="M14.4855 42.2512
L14.1782 42.2512
" />
<path d="M13.9606 38.7578
L14.1763 38.7578
" />
<path d="M13.9606 39.4778
L14.1763 39.4778
" />
<path d="M19.0064 12.5075
L19.3136 12.5075
" />
<path d="M19.0064 13.2675
L19.3136 13.2675
" />
<path d="M11.4600 2.2375
L20.8600 2.2375
" />
<path d="M11.4600 4.1375
L11.4600 2.2375
" />
<path d="M11.4600 8.0375
L11.4600 6.0375
" />
<path d="M20.8600 4.1375
L20.8600 2.2375
" />
<path d="M20.8600 8.0375
L20.8600 6.0375
" />
<path d="M57.9475 71.4631
L57.9475 68.8031
" />
<path d="M59.6475 71.4631
L57.9475 71.4631
" />
<path d="M59.6475 71.4631
L59.6475 68.8031
" />
<path d="M16.9855 43.0112
L16.6782 43.0112
" />
<path d="M16.9855 42.2512
L16.6782 42.2512
" />
<path d="M33.7381 32.8256
L33.7381 30.1656
" />
<path d="M35.4381 32.8256
L33.7381 32.8256
" />
<path d="M35.4381 32.8256
L35.4381 30.1656
" />
<path d="M55.1694 66.1631
L55.1694 63.5031
" />
<path d="M56.8694 66.1631
L55.1694 66.1631
" />
<path d="M56.8694 66.1631
L56.8694 63.5031
" />
<path d="M21.5194 23.8775
L21.8006 23.8775
" />
<path d="M21.5194 24.8975
L21.8006 24.8975
" />
<path d="M18.8000 17.4953
L18.8000 17.2797
" />
<path d="M19.5200 17.4953
L19.5200 17.2797
" />
<path d="M51.2006 66.1631
L51.2006 63.5031
" />
<path d="M52.9006 66.1631
L51.2006 66.1631
" />
<path d="M52.9006 66.1631
L52.9006 63.5031
" />
<path d="M53.9787 71.4631
L53.9787 68.8031
" />
<path d="M55.6788 71.4631
L53.9787 71.4631
" />
<path d="M55.6788 71.4631
L55.6788 68.8031
" />
<g >
</g>
<g >
</g>
<g >
</g>
<g >
</g>
<g >
</g>
<g >
</g>
<g >
</g>
<g >
</g>
<g >
</g>
<g >
</g>
<g >
</g>
<g >
</g>
<g >
</g>
<g >
</g>
<g >
</g>
<g >
</g>
<g >
</g>
<g >
</g>
<g >
</g>
<g >
</g>
<g >
</g>
<g >
</g>
<g >
</g>
<g >
</g>
<g >
</g>
<g >
</g>
<g >
</g>
<g >
</g>
<g >
</g>
<g >
</g>
<g >
</g>
<g >
</g>
<g >
</g>
<g >
</g>
<g >
</g>
<g >
</g>
<g >
</g>
<g >
</g>
<g >
</g>
<g >
</g>
<g >
</g>
<g >
</g>
<g >
</g>
<g >
</g>
<g >
</g>
<g >
</g>
<g >
</g>
<g >
</g>
<g >
</g>
<g >
</g>
<g >
</g>
<g >
</g>
<g >
</g>
<g >
</g>
<g >
</g>
<g >
</g>
<g >
</g>
<g >
</g>
<g >
</g>
<g >
</g>
<g >
</g>
<g >
</g>
<g >
</g>
</g>
<g style="fill:#000000; fill-opacity:0.0; 
stroke:#000000; stroke-width:0.1200; stroke-opacity:1; 
stroke-linecap:round; stroke-linejoin:round;">
</g>
<g style="fill:#C2C2C2; fill-opacity:0.0; 
stroke:#C2C2C2; stroke-width:0.1200; stroke-opacity:1; 
stroke-linecap:round; stroke-linejoin:round;">
</g>
<g style="fill:#C2C2C2; fill-opacity:0.0; 
stroke:#C2C2C2; stroke-width:0.1500; stroke-opacity:1; 
stroke-linecap:round; stroke-linejoin:round;">
<text x="17.9194" y="1.4500"
transform="scale(-1 1) translate(-35.838750 0)"
textLength="3.2500" font-size="1.3333" lengthAdjust="spacingAndGlyphs"
text-anchor="start" opacity="0">USB</text>
<g class="stroked-text"><desc>USB</desc>
<path d="M17.5826 0.3198
L17.5826 1.1293
" />
<path d="M17.5826 1.1293
L17.5350 1.2246
" />
<path d="M17.5350 1.2246
L17.4874 1.2722
" />
<path d="M17.4874 1.2722
L17.3921 1.3198
" />
<path d="M17.3921 1.3198
L17.2016 1.3198
" />
<path d="M17.2016 1.3198
L17.1064 1.2722
" />
<path d="M17.1064 1.2722
L17.0588 1.2246
" />
<path d="M17.0588 1.2246
L17.0112 1.1293
" />
<path d="M17.0112 1.1293
L17.0112 0.3198
" />
<path d="M16.5826 1.2722
L16.4397 1.3198
" />
<path d="M16.4397 1.3198
L16.2016 1.3198
" />
<path d="M16.2016 1.3198
L16.1064 1.2722
" />
<path d="M16.1064 1.2722
L16.0588 1.2246
" />
<path d="M16.0588 1.2246
L16.0112 1.1293
" />
<path d="M16.0112 1.1293
L16.0112 1.0341
" />
<path d="M16.0112 1.0341
L16.0588 0.9389
" />
<path d="M16.0588 0.9389
L16.1064 0.8912
" />
<path d="M16.1064 0.8912
L16.2016 0.8436
" />
<path d="M16.2016 0.8436
L16.3921 0.7960
" />
<path d="M16.3921 0.7960
L16.4874 0.7484
" />
<path d="M16.4874 0.7484
L16.5350 0.7008
" />
<path d="M16.5350 0.7008
L16.5826 0.6055
" />
<path d="M16.5826 0.6055
L16.5826 0.5103
" />
<path d="M16.5826 0.5103
L16.5350 0.4151
" />
<path d="M16.5350 0.4151
L16.4874 0.3674
" />
<path d="M16.4874 0.3674
L16.3921 0.3198
" />
<path d="M16.3921 0.3198
L16.1540 0.3198
" />
<path d="M16.1540 0.3198
L16.0112 0.3674
" />
<path d="M15.2493 0.7960
L15.1064 0.8436
" />
<path d="M15.1064 0.8436
L15.0588 0.8912
" />
<path d="M15.0588 0.8912
L15.0112 0.9865
" />
<path d="M15.0112 0.9865
L15.0112 1.1293
" />
<path d="M15.0112 1.1293
L15.0588 1.2246
" />
<path d="M15.0588 1.2246
L15.1064 1.2722
" />
<path d="M15.1064 1.2722
L15.2016 1.3198
" />
<path d="M15.2016 1.3198
L15.5826 1.3198
" />
<path d="M15.5826 1.3198
L15.5826 0.3198
" />
<path d="M15.5826 0.3198
L15.2493 0.3198
" />
<path d="M15.2493 0.3198
L15.1540 0.3674
" />
<path d="M15.1540 0.3674
L15.1064 0.4151
" />
<path d="M15.1064 0.4151
L15.0588 0.5103
" />
<path d="M15.0588 0.5103
L15.0588 0.6055
" />
<path d="M15.0588 0.6055
L15.1064 0.7008
" />
<path d="M15.1064 0.7008
L15.1540 0.7484
" />
<path d="M15.1540 0.7484
L15.2493 0.7960
" />
<path d="M15.2493 0.7960
L15.5826 0.7960
" />
</g><g transform="rotate(-90.000000 81.1100 26.9312)">
<text x="81.1100" y="27.4312"
textLength="2.2500" font-size="1.3333" lengthAdjust="spacingAndGlyphs"
text-anchor="middle" opacity="0">U4</text>
</g>
<g class="stroked-text"><desc>U4</desc>
<path d="M80.5648 27.6932
L81.3743 27.6932
" />
<path d="M81.3743 27.6932
L81.4696 27.6455
" />
<path d="M81.4696 27.6455
L81.5172 27.5979
" />
<path d="M81.5172 27.5979
L81.5648 27.5027
" />
<path d="M81.5648 27.5027
L81.5648 27.3122
" />
<path d="M81.5648 27.3122
L81.5172 27.2170
" />
<path d="M81.5172 27.2170
L81.4696 27.1693
" />
<path d="M81.4696 27.1693
L81.3743 27.1217
" />
<path d="M81.3743 27.1217
L80.5648 27.1217
" />
<path d="M80.8982 26.2170
L81.5648 26.2170
" />
<path d="M80.5172 26.4551
L81.2315 26.6932
" />
<path d="M81.2315 26.6932
L81.2315 26.0741
" />
</g><g transform="rotate(-90.000000 98.8819 26.9312)">
<text x="98.8819" y="27.4312"
textLength="3.9643" font-size="1.3333" lengthAdjust="spacingAndGlyphs"
text-anchor="middle" opacity="0">TRRS</text>
</g>
<g class="stroked-text"><desc>TRRS</desc>
<path d="M98.3367 28.6932
L98.3367 28.1217
" />
<path d="M99.3367 28.4074
L98.3367 28.4074
" />
<path d="M99.3367 27.2170
L98.8605 27.5503
" />
<path d="M99.3367 27.7884
L98.3367 27.7884
" />
<path d="M98.3367 27.7884
L98.3367 27.4074
" />
<path d="M98.3367 27.4074
L98.3843 27.3122
" />
<path d="M98.3843 27.3122
L98.4319 27.2646
" />
<path d="M98.4319 27.2646
L98.5272 27.2170
" />
<path d="M98.5272 27.2170
L98.6700 27.2170
" />
<path d="M98.6700 27.2170
L98.7653 27.2646
" />
<path d="M98.7653 27.2646
L98.8129 27.3122
" />
<path d="M98.8129 27.3122
L98.8605 27.4074
" />
<path d="M98.8605 27.4074
L98.8605 27.7884
" />
<path d="M99.3367 26.2170
L98.8605 26.5503
" />
<path d="M99.3367 26.7884
L98.3367 26.7884
" />
<path d="M98.3367 26.7884
L98.3367 26.4074
" />
<path d="M98.3367 26.4074
L98.3843 26.3122
" />
<path d="M98.3843 26.3122
L98.4319 26.2646
" />
<path d="M98.4319 26.2646
L98.5272 26.2170
" />
<path d="M98.5272 26.2170
L98.6700 26.2170
" />
<path d="M98.6700 26.2170
L98.7653 26.2646
" />
<path d="M98.7653 26.2646
L98.8129 26.3122
" />
<path d="M98.8129 26.3122
L98.8605 26.4074
" />
<path d="M98.8605 26.4074
L98.8605 26.7884
" />
<path d="M99.2891 25.8360
L99.3367 25.6932
" />
<path d="M99.3367 25.6932
L99.3367 25.4551
" />
<path d="M99.3367 25.4551
L99.2891 25.3598
" />
<path d="M99.2891 25.3598
L99.2415 25.3122
" />
<path d="M99.2415 25.3122
L99.1462 25.2646
" />
<path d="M99.1462 25.2646
L99.0510 25.2646
" />
<path d="M99.0510 25.2646
L98.9557 25.3122
" />
<path d="M98.9557 25.3122
L98.9081 25.3598
" />
<path d="M98.9081 25.3598
L98.8605 25.4551
" />
<path d="M98.8605 25.4551
L98.8129 25.6455
" />
<path d="M98.8129 25.6455
L98.7653 25.7408
" />
<path d="M98.7653 25.7408
L98.7176 25.7884
" />
<path d="M98.7176 25.7884
L98.6224 25.8360
" />
<path d="M98.6224 25.8360
L98.5272 25.8360
" />
<path d="M98.5272 25.8360
L98.4319 25.7884
" />
<path d="M98.4319 25.7884
L98.3843 25.7408
" />
<path d="M98.3843 25.7408
L98.3367 25.6455
" />
<path d="M98.3367 25.6455
L98.3367 25.4074
" />
<path d="M98.3367 25.4074
L98.3843 25.2646
" />
</g></g>
<g style="fill:#C2C2C2; fill-opacity:0.0; 
stroke:#C2C2C2; stroke-width:0.1200; stroke-opacity:1; 
stroke-linecap:round; stroke-linejoin:round;">
<path d="M57.2100 66.1406
L76.2600 66.1406
" />
<path d="M76.2600 66.1406
L76.2600 47.0906
" />
<path d="M57.2100 47.0906
L57.2100 66.1406
" />
<path d="M76.2600 47.0906
L57.2100 47.0906
" />
<path d="M76.2600 85.1906
L95.3100 85.1906
" />
<path d="M95.3100 85.1906
L95.3100 66.1406
" />
<path d="M76.2600 66.1406
L76.2600 85.1906
" />
<path d="M95.3100 66.1406
L76.2600 66.1406
" />
<path d="M57.2100 47.0906
L76.2600 47.0906
" />
<path d="M76.2600 47.0906
L76.2600 28.0406
" />
<path d="M57.2100 28.0406
L57.2100 47.0906
" />
<path d="M76.2600 28.0406
L57.2100 28.0406
" />
<path d="M19.1100 85.1906
L38.1600 85.1906
" />
<path d="M38.1600 85.1906
L38.1600 51.8531
" />
<path d="M19.1100 51.8531
L19.1100 85.1906
" />
<path d="M38.1600 51.8531
L19.1100 51.8531
" />
<path d="M38.1600 42.3281
L57.2100 42.3281
" />
<path d="M57.2100 42.3281
L57.2100 23.2781
" />
<path d="M38.1600 23.2781
L38.1600 42.3281
" />
<path d="M57.2100 23.2781
L38.1600 23.2781
" />
<path d="M76.2600 47.0906
L95.3100 47.0906
" />
<path d="M95.3100 47.0906
L95.3100 28.0406
" />
<path d="M76.2600 28.0406
L76.2600 47.0906
" />
<path d="M95.3100 28.0406
L76.2600 28.0406
" />
<path d="M19.1100 32.8031
L38.1600 32.8031
" />
<path d="M38.1600 32.8031
L38.1600 4.2281
" />
<path d="M19.1100 4.2281
L19.1100 32.8031
" />
<path d="M38.1600 4.2281
L19.1100 4.2281
" />
<path d="M19.1100 51.8531
L38.1600 51.8531
" />
<path d="M38.1600 51.8531
L38.1600 32.8031
" />
<path d="M19.1100 32.8031
L19.1100 51.8531
" />
<path d="M38.1600 32.8031
L19.1100 32.8031
" />
<path d="M0.0600 85.1906
L19.1100 85.1906
" />
<path d="M19.1100 85.1906
L19.1100 56.6156
" />
<path d="M0.0600 56.6156
L0.0600 85.1906
" />
<path d="M19.1100 56.6156
L0.0600 56.6156
" />
<path d="M76.2600 66.1406
L95.3100 66.1406
" />
<path d="M95.3100 66.1406
L95.3100 47.0906
" />
<path d="M76.2600 47.0906
L76.2600 66.1406
" />
<path d="M95.3100 47.0906
L76.2600 47.0906
" />
<path d="M38.1600 85.1906
L57.2100 85.1906
" />
<path d="M57.2100 85.1906
L57.2100 66.1406
" />
<path d="M38.1600 66.1406
L38.1600 85.1906
" />
<path d="M57.2100 66.1406
L38.1600 66.1406
" />
<path d="M38.1600 23.2781
L57.2100 23.2781
" />
<path d="M57.2100 23.2781
L57.2100 4.2281
" />
<path d="M38.1600 4.2281
L38.1600 23.2781
" />
<path d="M57.2100 4.2281
L38.1600 4.2281
" />
<path d="M57.2100 85.1906
L76.2600 85.1906
" />
<path d="M76.2600 85.1906
L76.2600 66.1406
" />
<path d="M57.2100 66.1406
L57.2100 85.1906
" />
<path d="M76.2600 66.1406
L57.2100 66.1406
" />
<path d="M38.1600 66.1406
L57.2100 66.1406
" />
<path d="M57.2100 66.1406
L57.2100 42.3281
" />
<path d="M38.1600 42.3281
L38.1600 66.1406
" />
<path d="M57.2100 42.3281
L38.1600 42.3281
" />
<path d="M76.2600 28.0406
L95.3100 28.0406
" />
<path d="M95.3100 28.0406
L95.3100 4.2281
" />
<path d="M76.2600 4.2281
L76.2600 28.0406
" />
<path d="M95.3100 4.2281
L76.2600 4.2281
" />
<path d="M0.0600 56.6156
L19.1100 56.6156
" />
<path d="M19.1100 56.6156
L19.1100 37.5656
" />
<path d="M0.0600 37.5656
L0.0600 56.6156
" />
<path d="M19.1100 37.5656
L0.0600 37.5656
" />
<path d="M0.0600 37.5656
L19.1100 37.5656
" />
<path d="M19.1100 37.5656
L19.1100 4.2281
" />
<path d="M0.0600 4.2281
L0.0600 37.5656
" />
<path d="M19.1100 4.2281
L0.0600 4.2281
" />
<path d="M66.7350 85.1906
L85.7850 85.1906
" />
<path d="M85.7850 85.1906
L85.7850 66.1406
" />
<path d="M66.7350 66.1406
L66.7350 85.1906
" />
<path d="M85.7850 66.1406
L66.7350 66.1406
" />
<path d="M57.2100 28.0406
L76.2600 28.0406
" />
<path d="M76.2600 28.0406
L76.2600 4.2281
" />
<path d="M57.2100 4.2281
L57.2100 28.0406
" />
<path d="M76.2600 4.2281
L57.2100 4.2281
" />
<g >
</g>
<g >
</g>
<g >
</g>
<g >
</g>
<g >
</g>
<g >
</g>
<g >
</g>
<g >
</g>
<g >
</g>
<g >
</g>
<g >
</g>
<g >
</g>
<g >
</g>
<g >
</g>
<g >
</g>
<g >
</g>
<g >
</g>
<g >
</g>
<g >
</g>
<g >
</g>
<g >
</g>
<g >
</g>
<g >
</g>
<g >
</g>
<g >
</g>
<g >
</g>
<g >
</g>
<g >
</g>
<g >
</g>
<g >
</g>
<g >
</g>
<g >
</g>
<g >
</g>
<g >
</g>
<g >
</g>
<g >
</g>
<g >
</g>
<g >
</g>
<g >
</g>
<g >
</g>
<g >
</g>
<g >
</g>
<g >
</g>
<g >
</g>
<g >
</g>
<g >
</g>
<g >
</g>
<g >
</g>
<g >
</g>
<g >
</g>
<g >
</g>
<g >
</g>
<g >
</g>
<g >
</g>
<g >
</g>
<g >
</g>
<g >
</g>
<g >
</g>
<g >
</g>
<g >
</g>
<g >
</g>
<g >
</g>
<g >
</g>
</g>
<g style="fill:#000000; fill-opacity:0.0; 
stroke:#000000; stroke-width:0.1200; stroke-opacity:1; 
stroke-linecap:round; stroke-linejoin:round;">
</g>
<g style="fill:#D0D2CD; fill-opacity:0.0; 
stroke:#D0D2CD; stroke-width:0.1200; stroke-opacity:1; 
stroke-linecap:round; stroke-linejoin:round;">
</g>
<g style="fill:#D0D2CD; fill-opacity:0.0; 
stroke:#D0D2CD; stroke-width:0.1000; stroke-opacity:1; 
stroke-linecap:round; stroke-linejoin:round;">
<path d="M4.0287 4.2281
L91.3413 4.2281
" />
<path d="M0.0600 81.2219
L0.0600 8.1969
" />
<path d="M4.0287 4.2281 A3.9688 3.9688 0.0 0 0 0.0600 8.1969" />
<path d="M91.3413 85.1906
L4.0287 85.1906
" />
<path d="M91.3413 85.1906 A3.9688 3.9688 0.0 0 0 95.3100 81.2219" />
<path d="M0.0600 81.2219 A3.9688 3.9688 0.0 0 0 4.0288 85.1906" />
<path d="M95.3100 8.1969
L95.3100 81.2219
" />
<path d="M95.3100 8.1969 A3.9688 3.9688 0.0 0 0 91.3412 4.2281" />
<g >
</g>
<g >
</g>
<g >
</g>
<g >
</g>
<g >
</g>
<g >
</g>
<g >
</g>
<g >
</g>
<g >
</g>
<g >
</g>
<g >
</g>
<g >
</g>
<g >
</g>
<g >
</g>
<g >
</g>
<g >
</g>
<g >
</g>
<g >
</g>
<g >
</g>
<g >
</g>
<g >
</g>
<g >
</g>
<g >
</g>
<g >
</g>
<g >
</g>
<g >
</g>
<g >
</g>
<g >
</g>
<g >
</g>
<g >
</g>
<g >
</g>
<g >
</g>
<g >
</g>
<g >
</g>
<g >
</g>
<g >
</g>
<g >
</g>
<g >
</g>
<g >
</g>
<g >
</g>
<g >
</g>
<g >
</g>
<g >
</g>
<g >
</g>
<g >
</g>
<g >
</g>
<g >
</g>
<g >
</g>
<g >
</g>
<g >
</g>
<g >
</g>
<g >
</g>
<g >
</g>
<g >
</g>
<g >
</g>
<g >
</g>
<g >
</g>
<g >
</g>
<g >
</g>
<g >
</g>
<g >
</g>
<g >
</g>
<g >
</g>
</g> 
</svg>
